<mxfile host="app.diagrams.net" agent="Mozilla/5.0 (Windows NT 10.0; Win64; x64) AppleWebKit/537.36 (KHTML, like Gecko) Chrome/129.0.0.0 Safari/537.36" version="24.7.17">
  <diagram name="Página-1" id="LuOxkL1Yb-oQvovYPexT">
    <mxGraphModel dx="1120" dy="474" grid="1" gridSize="10" guides="1" tooltips="1" connect="1" arrows="1" fold="1" page="1" pageScale="1" pageWidth="827" pageHeight="1169" math="0" shadow="0">
      <root>
        <mxCell id="0" />
        <mxCell id="1" parent="0" />
        <mxCell id="Qr0_MQB-56ZItfrZqpIL-1" value="Repartos" style="swimlane;fontStyle=0;childLayout=stackLayout;horizontal=1;startSize=26;horizontalStack=0;resizeParent=1;resizeParentMax=0;resizeLast=0;collapsible=1;marginBottom=0;align=center;fontSize=13;" parent="1" vertex="1">
          <mxGeometry x="569" y="740" width="201" height="326" as="geometry" />
        </mxCell>
        <mxCell id="Qr0_MQB-56ZItfrZqpIL-2" value="&lt;div style=&quot;font-size: 13px;&quot;&gt;&lt;u&gt;Cod. Tipo de envío&lt;/u&gt;&lt;/div&gt;" style="text;strokeColor=none;fillColor=none;spacingLeft=4;spacingRight=4;overflow=hidden;rotatable=0;points=[[0,0.5],[1,0.5]];portConstraint=eastwest;fontSize=13;whiteSpace=wrap;html=1;" parent="Qr0_MQB-56ZItfrZqpIL-1" vertex="1">
          <mxGeometry y="26" width="201" height="30" as="geometry" />
        </mxCell>
        <mxCell id="Qr0_MQB-56ZItfrZqpIL-3" value="&lt;span style=&quot;font-size: 13px;&quot;&gt;&lt;u&gt;N° de envío&lt;/u&gt;&lt;/span&gt;" style="text;strokeColor=none;fillColor=none;spacingLeft=4;spacingRight=4;overflow=hidden;rotatable=0;points=[[0,0.5],[1,0.5]];portConstraint=eastwest;fontSize=13;whiteSpace=wrap;html=1;" parent="Qr0_MQB-56ZItfrZqpIL-1" vertex="1">
          <mxGeometry y="56" width="201" height="30" as="geometry" />
        </mxCell>
        <mxCell id="Qr0_MQB-56ZItfrZqpIL-4" value="&lt;span style=&quot;font-size: 13px;&quot;&gt;Tipo de envío&lt;/span&gt;" style="text;strokeColor=none;fillColor=none;spacingLeft=4;spacingRight=4;overflow=hidden;rotatable=0;points=[[0,0.5],[1,0.5]];portConstraint=eastwest;fontSize=13;whiteSpace=wrap;html=1;" parent="Qr0_MQB-56ZItfrZqpIL-1" vertex="1">
          <mxGeometry y="86" width="201" height="30" as="geometry" />
        </mxCell>
        <mxCell id="Qr0_MQB-56ZItfrZqpIL-5" value="&lt;span style=&quot;font-size: 13px;&quot;&gt;Medio de envío&lt;/span&gt;" style="text;strokeColor=none;fillColor=none;spacingLeft=4;spacingRight=4;overflow=hidden;rotatable=0;points=[[0,0.5],[1,0.5]];portConstraint=eastwest;fontSize=13;whiteSpace=wrap;html=1;" parent="Qr0_MQB-56ZItfrZqpIL-1" vertex="1">
          <mxGeometry y="116" width="201" height="30" as="geometry" />
        </mxCell>
        <mxCell id="Qr0_MQB-56ZItfrZqpIL-6" value="&lt;span style=&quot;font-size: 13px;&quot;&gt;DNI remitente&lt;/span&gt;" style="text;strokeColor=none;fillColor=none;spacingLeft=4;spacingRight=4;overflow=hidden;rotatable=0;points=[[0,0.5],[1,0.5]];portConstraint=eastwest;fontSize=13;whiteSpace=wrap;html=1;" parent="Qr0_MQB-56ZItfrZqpIL-1" vertex="1">
          <mxGeometry y="146" width="201" height="30" as="geometry" />
        </mxCell>
        <mxCell id="Qr0_MQB-56ZItfrZqpIL-7" value="&lt;span style=&quot;font-size: 14px;&quot;&gt;Nombre remitente&lt;/span&gt;" style="text;strokeColor=none;fillColor=none;spacingLeft=4;spacingRight=4;overflow=hidden;rotatable=0;points=[[0,0.5],[1,0.5]];portConstraint=eastwest;fontSize=14;whiteSpace=wrap;html=1;" parent="Qr0_MQB-56ZItfrZqpIL-1" vertex="1">
          <mxGeometry y="176" width="201" height="30" as="geometry" />
        </mxCell>
        <mxCell id="Qr0_MQB-56ZItfrZqpIL-8" value="&lt;span style=&quot;font-size: 14px;&quot;&gt;N° sucursal de despacho&lt;/span&gt;" style="text;strokeColor=none;fillColor=none;spacingLeft=4;spacingRight=4;overflow=hidden;rotatable=0;points=[[0,0.5],[1,0.5]];portConstraint=eastwest;fontSize=14;whiteSpace=wrap;html=1;" parent="Qr0_MQB-56ZItfrZqpIL-1" vertex="1">
          <mxGeometry y="206" width="201" height="30" as="geometry" />
        </mxCell>
        <mxCell id="zqR4lMhareDFhkP4AwBh-1" value="&lt;span style=&quot;font-size: 14px;&quot;&gt;Nombre sucursal de despacho&lt;/span&gt;" style="text;strokeColor=none;fillColor=none;spacingLeft=4;spacingRight=4;overflow=hidden;rotatable=0;points=[[0,0.5],[1,0.5]];portConstraint=eastwest;fontSize=12;whiteSpace=wrap;html=1;" vertex="1" parent="Qr0_MQB-56ZItfrZqpIL-1">
          <mxGeometry y="236" width="201" height="30" as="geometry" />
        </mxCell>
        <mxCell id="Qr0_MQB-56ZItfrZqpIL-9" value="&lt;font style=&quot;font-size: 14px;&quot;&gt;Prioridad envío&lt;/font&gt;" style="text;strokeColor=none;fillColor=none;spacingLeft=4;spacingRight=4;overflow=hidden;rotatable=0;points=[[0,0.5],[1,0.5]];portConstraint=eastwest;fontSize=13;whiteSpace=wrap;html=1;" parent="Qr0_MQB-56ZItfrZqpIL-1" vertex="1">
          <mxGeometry y="266" width="201" height="30" as="geometry" />
        </mxCell>
        <mxCell id="Qr0_MQB-56ZItfrZqpIL-10" value="&lt;font style=&quot;font-size: 14px;&quot;&gt;Fecha y hora alta de envío&lt;/font&gt;" style="text;strokeColor=none;fillColor=none;spacingLeft=4;spacingRight=4;overflow=hidden;rotatable=0;points=[[0,0.5],[1,0.5]];portConstraint=eastwest;fontSize=13;whiteSpace=wrap;html=1;" parent="Qr0_MQB-56ZItfrZqpIL-1" vertex="1">
          <mxGeometry y="296" width="201" height="30" as="geometry" />
        </mxCell>
        <mxCell id="Qr0_MQB-56ZItfrZqpIL-17" value="&lt;b&gt;&lt;font style=&quot;font-size: 18px;&quot;&gt;PRIMERA FORMA NORMAL&lt;/font&gt;&lt;/b&gt;" style="text;html=1;align=center;verticalAlign=middle;whiteSpace=wrap;rounded=0;" parent="1" vertex="1">
          <mxGeometry x="690" y="680" width="280" height="30" as="geometry" />
        </mxCell>
        <mxCell id="Qr0_MQB-56ZItfrZqpIL-37" value="&lt;b&gt;&lt;font style=&quot;font-size: 18px;&quot;&gt;SEGUNDA FORMA NORMAL&lt;/font&gt;&lt;/b&gt;" style="text;html=1;align=center;verticalAlign=middle;whiteSpace=wrap;rounded=0;" parent="1" vertex="1">
          <mxGeometry x="689" y="1220" width="280" height="30" as="geometry" />
        </mxCell>
        <mxCell id="Qr0_MQB-56ZItfrZqpIL-79" value="&lt;span style=&quot;font-size: 18px;&quot;&gt;&lt;b&gt;DER&lt;/b&gt;&lt;/span&gt;" style="text;html=1;align=center;verticalAlign=middle;whiteSpace=wrap;rounded=0;" parent="1" vertex="1">
          <mxGeometry x="689" y="1900" width="280" height="30" as="geometry" />
        </mxCell>
        <mxCell id="cyOIONu8UUpMF8aO_cER-1" value="&lt;span style=&quot;font-size: 18px;&quot;&gt;&lt;b&gt;MODELO DE DATOS&lt;/b&gt;&lt;/span&gt;" style="text;html=1;align=center;verticalAlign=middle;whiteSpace=wrap;rounded=0;" parent="1" vertex="1">
          <mxGeometry x="699" y="20" width="280" height="30" as="geometry" />
        </mxCell>
        <mxCell id="cyOIONu8UUpMF8aO_cER-6" value="" style="shape=filledEdge;curved=0;rounded=0;fixDash=1;endArrow=none;strokeWidth=10;fillColor=#ffffff;edgeStyle=orthogonalEdgeStyle;html=1;" parent="1" edge="1">
          <mxGeometry width="60" height="40" relative="1" as="geometry">
            <mxPoint x="70" y="640" as="sourcePoint" />
            <mxPoint x="1600" y="640" as="targetPoint" />
          </mxGeometry>
        </mxCell>
        <mxCell id="cyOIONu8UUpMF8aO_cER-7" value="" style="shape=filledEdge;curved=0;rounded=0;fixDash=1;endArrow=none;strokeWidth=10;fillColor=#ffffff;edgeStyle=orthogonalEdgeStyle;html=1;" parent="1" edge="1">
          <mxGeometry width="60" height="40" relative="1" as="geometry">
            <mxPoint x="69" y="1200" as="sourcePoint" />
            <mxPoint x="1599" y="1200" as="targetPoint" />
          </mxGeometry>
        </mxCell>
        <mxCell id="cyOIONu8UUpMF8aO_cER-8" value="" style="shape=filledEdge;curved=0;rounded=0;fixDash=1;endArrow=none;strokeWidth=10;fillColor=#ffffff;edgeStyle=orthogonalEdgeStyle;html=1;" parent="1" edge="1">
          <mxGeometry width="60" height="40" relative="1" as="geometry">
            <mxPoint x="79" y="1870" as="sourcePoint" />
            <mxPoint x="1610" y="1870" as="targetPoint" />
          </mxGeometry>
        </mxCell>
        <mxCell id="cyOIONu8UUpMF8aO_cER-10" value="" style="shape=image;aspect=fixed;image=data:image/png,iVBORw0KGgoAAAANSUhEUgAAAgoAAAIjCAYAAABiYjOrAAAAAXNSR0IArs4c6QAAAARnQU1BAACxjwv8YQUAAAAJcEhZcwAAEnQAABJ0Ad5mH3gAAP+lSURBVHhe7N0HfE3n/wfwz93ZiZUgMhGyjCY2IaU1glKqgoq9aY360SK10xpVra2DomZrtbSK2CtEEBKbSiKJDLKTe+/3f+69J8kNCbH6b5vvu69T7nOe85znec5xn+9Z90hIAMYYY4yxYkjFPxljjDHGnsCBAmOMMcZKxIECY4wxxkrEgQJjjDHGSsSBAmOMMcZKxIECY4wxxkrEgQJjjDHGSsSBAmOMMcZKxIECY4wxxkrEgQJjjDHGSlS2f8JZfRO7Fn2H4w/UIEggkUggU1mhSq1GeKtDS7hZF8ZR6pu7sOi743igfqy7JCrUfnci+jUwh+avfViy6gDicgkklCWVm8CmqgeadeiAZk7m4gJGhPX/+vUaHE9UQ2ZRG51G9EYDG+PYTY2buxbhu+MPoFutrn4SmQpWVWqh0Vsd0NLNWoj0tEg8tBxf7b2rz1McidQGjQZ+jC7VZYYEbQoitq3Ed9uP4uLtRGRJzVChmjsatOmBfr1bwsnEkI0xxhiDLlAoqzT3FpO/UogRhG4oOklIUcWfZh5Jyc9J9xb7k/KJfLpJQU1CovV5Yr5+s9g8EoUdNZ+0h+I0htLyZewZQg4yMZ/EjFp/fUcoxYjmHi32Vz5Rnm6SKKqQ/8wjlELZdHCUCwkhQLH59JPEhN5Zk24o8sFhmvVWVVJIissnJRvf8fTb4xVljDFWZpXtSw9areFPiRnenP4HDh7Yiy3fjECTChLkxYVi1sfLcEVjyFKQ1fItzPrjIA4eFKfQg/h2QA39PI1GN97qinsT0/84gL0/r8aUABfI1fE4Om8wpvyWpp9vkI79m3cjViOFhaUFpJSF41u34ba4PgOt8J+OBGZvTscfB4Uyt3yDEU0qQJIXh9BZH2PZFSncu3yECRPGY/z48fioqwdMJMIiMge8OcSQNn7CJ+jTyEQoLgYbhr2P4H2xUMsqofHAL7B25178tm01gnt6w1qiRWrYIgyasA2JYnsZY4yVcWLAUCZp7i4ynFGQWNJ7GzPE1Bw6/FFNkgtdI63wAf2SpUvT0N1FhjMKEptA2pKftQijPJbvUUFxD76nzlYSIYKQk9u4o2KiIHUb9bGTEhTeNC4kiOxlwnKqphQSpRYzCDR3aZH+jIKELN/bSAU1PPwR1ZQL9ZZWoA8MFSyQsSWQbHRnCxQtaP5No7IEeeemUl2FUBeJkup8fIQeiel6mlja0KOK/syExPxtWnqPzyowxhgr62cUiqONx9XrSfojeZm9E5yEiOGlmNvAWqk7xC8qZe9m7BUO2+VuAXh/aDe8bSdECrlnsHVzFNRinuJpEX/1OpIMFYRTqSuowe0//sTlPCFOUDRGvxFNYSnO0ZNWwTt92qKisEdQ1jmcOJMrzmCMMVaWcaCgl42w5YPxQZ8eaN+gEUb+mgwyccMHU4eh7uPj8KNfMMjZFra2uskO1Tp+g5tFLhcYU+P25vU4kCKM6lJr1G/kKaYn4dfNfyBZK0fNgHdQz8Yf77xVCVJSI+LnzbhUTKSQHbYcgz/ogx7tG6DRyF+RTCZw+2Aqhj1RwZKocf3GXX0AJK3khtpVntz0qurV4aC731H7CPfvPzIkMsYYK9M4UNChPNwK3YB167dg77k45Fq8gfG7jmNVd/snO0iigmW58ihf3jBVsDKF+CxBoaxQfNamGRrVcUWdAdsQo5GiQstP8EkXG/1sbfxObNmfCq28OgLeeQNKWODNd95CJSkh79I2bDr3eKQgpN8KxYZ167Fl7znE5VrgjfG7cHxVd9iXegsScnPzhP8LlCoU+2CDUinUxUCrKTH6YYwxVoZwoKAjsUDHbyIReWglPqitAtLCsfyTb3A2W5xvzLIDvgyPQlSUbrqCiA0D4fRYpECaZNw4ew6Rd3NQ0bsN+s3YiqO7xqGOfhTW4v6OLTj4iCC1coTJzW346aefsDvFBk4qiXDgH42fN51C0RP/Elh0/AaRkYew8oPaUCEN4cs/wTfFVrAkElhZWQj/F+qXmozkYuIATXw8HugiCYkZKtpaGxIZY4yVaRwo6ElgWtEZHn6DseTLIGHgJ6SfXYy5m+6LTx08H4nFu/gxJQvpqfG4Gf4Hvp/aFbXzf0ZBew+/bDmMdGFA1ibvw6wPeqFXL2Ea+DVOZ+lGaTVu7tiE4zmG7PkkphXh7OGHwUu+RJAQmVD6WSyeuwn3S11BBWrVdoVCiBS0aWdxPPyxFQjrjd5/CLeEAEKi8MAb9YWAiTHGWJnHgcJjLNuMQN86Cki0Kdizai2uvuIz8Jo7P2PrsUyQrDLajJuPhQsXFkzzRjSH7veW1Ld3YGNoprjEYyzbYETfOsKAr0XKnlVYW+oKSmHb+m346J6dVF/Hd5Pn4EjBM5BaJB6ZjTFfhSOPJLD0C8R7Lk9cUGGMMVYGcaDwOLkX+n7QFCYSQvap7/Hd6cfu/s8IxcyOb+LNN8WpdTuM2RQjznwWDW5s3YoT2QRZlY4YN3M8xo4dWzBNmD0G7SsIm0QTg92bDyBdXKooObz6foCmwoBP2afw/XenH7tMUTJZrcGYPlT3OwtapB6ZiTdruKBeUz80q++KGm9OR2iyFtIKrTBt/mBwnMAYY0ynbAcKSktYmckgkVvBxiK/K2Rw6TUYnewUkGhu4c+9F4U0KSzs7GAtEwbnvDhcyP+xJXE6df2hfkmlpRXMhDxyK2sUFGdMm4QjhyKQKzFB9W6B8DcT0/PZtEOvdxyglGqRcCwUEblKWFqZQSaRw8rGomBjyVx6YXAnOygkGtz6cy8uGt37KLOwhpVCApnusUz9Ly8Zs0Hr+X9g58zuqFNBDs2ju4g4cQTHz99BGpnDudUIrP5zB8bX5csOjDHGDMr2ux7KspxEXI24hBvx6YBFJTi514NHZX7JA2OMsaI4UGCMMcZYicr2pQfGGGOMPRUHCowxxhgrEQcKjDHGGCsRBwqMMcYYKxEHCowxxhgrEQcKjDHGGCsRBwqMMcYYKxEHCowxxhgrEQcKjDHGGCsRBwqMMcYYKxEHCowxxhgrEQcKjDHGGCsRBwqMMcYYKxEHCowxxhgrEQcKjDHGGCsRBwqMMcYYKxEHCowxxhgrEQcKjDHGGCsRBwqMMcYYKxEHCowxxhgrEQcKjDHGGCsRBwqMMcYYKxEHCowxxhgrEQcKjDHGGCsRBwqMMcYYKxEHCowxxhgrEQcKjDHGGCsRBwqMMcYYKxEHCowxxhgrEQcKjDHGGCsRBwqvW+Z1HNjwPdZsPYlYtZj2yqiRnpyCTI348f9FJq4f2IDv12zFyVffwNdMi9g9czAosAc+mLkXiVoxmTHGWAEJCcS/l13aZJzfshLf7TiCS3dTobGsBu+W72HosHfhbfNysZT69GTUaxaCSKk/vrr+J8Y4PKs8LRIPLcdXe+9CXcKWkUht0GjgGFh9VQftv7kJZYsvcObABNSWiRn+TurTmFyvGUIipfD/SgiKxjiIM/75tPc3o49vL2xM8cLYnQcwr3V5jpwZY+xxukChLNMkH6M5b1clhQS6YdlokpB5o1lirheXc2oSecqF8pT+tOiuRkx9mmw6OMqFhDH/sfoYTRITemdNPG3rXYGkQj0V9afR+Txx8b9bzima5CkX6qUk/0V3xcR/g2TaPdiF5LKq1HlFFOWIqYwxxooq2wdQ2gRsHxuIaftikSexgtf70/Hdjj34bdPXmNCpJmS3rooZ/04KuHf5CBMmjMf48ePxUVcPmEiEZJkD3hxiSBs/4RP0aVQBXZaF4fTR4zi/51PUlRuWZqVlinqj1iL03BlsGlILSjGVMcbYY8SAoUzKuziLGqokwtGwjKr13kxxRQ74H9Hl4+fFvwvy7tL+RSPpnaae5FrNnhzdfKhN32DadiVdzKCjprt/zKEPWnqRs4ML1Ws3hlZ9P5o8nuuMQlEZWwLJRne2Q9GC5t9Ui6k6Grq3awYN/KAvjfjmOKXpktR3aHvwQOo77Bs6HnOGVo3uQD41HMmpVhN6L3gX3S5y1iGP7u5fRCPfaUqertXI3tGNfNr0peBtV8i4RY9T3/2D5nzQkrycHcilXjsas+p7Gu1RzBmFrOu0c1Y/alO/BjnYO5Kbbwcatvgw3X9qF2TR9Z2zqF+b+lTDQdfHvtRh2GI6XLCQmu5sn0YDPhhKXx2No4gfx1MnH6F8x9rUtOcs2hcr5NMk0B9zBlLvPgNp2s+3hCXypdGJJSMpqHd/Ct55jzTqu7Rz+kDq03c4LT72SMyj28z7adHId6ippytV09Xbpw31Dd5GRTYzY4yVIWU4UFDTtc+bkkJ3Kl/uThNPPuXks/o2rQ901l+ekMgsqEp1V7Izl5IEEpLZdqClUYbhKOvEVPIx1wUe4iUCYZIoFIbLGq88UMihI2PdSC6sQ9nyS7qjKzrnCI11EwZtmT3VcrPSnS4qrIvEjHymnaJs/bJqur0+kJwVQl0lMrKoUp1c7cxJqm+fLXVYGmU0wBrJOkFTfcyFdhuXK7RPV45xoKC+Qd92tSe5REJSU1tyrVGVLOW6dZmTz5TjlGHI9Rg13fi2K9kL+SRSU7J1rUFVLeX6Pjb3mULH9Qvlt1lOTnW9qZzUqB6QUrmAlUI/pNKWXpUMl2QazqLL+Q15tI16V5IKdbCkjqvvkya/r4R6t/zyjhB26Tbzegp0Vhi2q0UVqu5qR+ZSQx/ZdlhK4mZmjLEypQxfelDj6tXb0D0wIDFxR12vkk8+p+2dif9tvg21vBaG7LiGv67fwL3IH/G+gxSahN8xZ8E+IVcKdixaivAM3TjdEfMPXMT5PfPQ1VFa4k2Jr40mBtfuu6D/ilBcDP8F4xtaCkNfJs6vXok/M4X5aXsx83+bcVstR60hO3Dtr+u4cS8SP77vAKkmAb/PWYB9unyPSdmxCEvDM0Aye3ScfwAXz+/BvK6OkD7WwPQ9czBtZwy0Nq0x/8wd3Lh2F5e+64Yq0gyEL/0Ku1LFjMbS92DOtJ2I0dqg9fwzuHPjGu5e+g7dqkiREb4UXxVZSI07F+/CeeC3OHLpFL7rXR1yiRapB7bjjyRrvNX1LVQQYgL1+d+w64bhkZCM0N04kKQV4oSW6BJQqZibFtOwd+b/sPm2GvJaQ7Dj2l+4fuMeIn98Hw5SDRJ+n4MFxXUKY4z9x5XhQIGQlZWl/5tEaQbTEp8YyMHpX/9EnDDeyOv3xYftKkOXVe7UHcPfdYFcCDXiTx0Vsp3HkdOp0EIBrwEz8KG/F+q2m4D1q4fA9W+/f0CB+uPXYfmQlvCq1wXBH3dEeWFLaxIjcO6WBjmnf8Wfhgah74ftUNnQIHQf/i5chLpq4k/h6JXHH3XMwfkjp5GqFUr3GoAZH/rDq247TFi/GkOKNDAX5/48hHiNBHKvZngj6xLCwsKR4OwNN5kE2kcXER6dK+YtlHvuTxyK10Ai90KzN7JwKSwM4QnO8HaTQaJ9JAQ80ULJhRRvTMC6ZQPQ3LMheo/oguq6uz/VibifqIH1W+/i7YpSUN5Z/Lr7rrCFsnF0959I0Epg6dcVHW2L2e1zTuPXP+OEvHLU7/sh2hk6BU7dh+NdQ6fg1NErhryMMVaGlOFAQQIrS3Ph/8IAk5mIhEclPUSfh5iYeCEAEAa+qo5wLAgoZKhWzU6/vDblgX4giX8glCGRwblGTWGIMZCamcNE/PvfRwILK6uCjWvq5GwIBugRUlM1yIuJQbyuqvKqcCxsEGTVqsHO0CA8SDYciRcSAqL4B/p+kDnXQM3CBsK8SAPViIuNF3ITco9MR6sGDdBAN/kF41Cu7syDGurHixao42KF4EKoYu4RTG8lLtPAD8GHcvXXFtSPLSQxt4CFrq4CqYUFzPV/10KjEXJbv413364IKeXizK+7EZN5UggCYqGRWKHVux1Rqbi9Pi8GMYZOQVVHR30wqCerhmqGTkHKg2RDGmOMlSFlOFBQoLanGxTCGEC5Z3HgQIqY/jgplEqF8CdBk5mOjIJ4gpCWZjgVLbGwErIpoJTrCtPi0cOHwrDyz6F5mAJ9HCQxh4WFFFKlUmi9UFVNJtILGwRKS4O+RRILIYgSR+ECUiiUciFMIGgfPcTDEhto6C+J8J+q2URs3bkTOwumXdj9+1b8r9GTl3n0dRJWKVE1w8StxsvsxK7dv2Pr/xo9x5MJlnir69tCQEDIPrUbO37fid/vaiCxaoWuAUIAIeYqQqqEYTNrkJmeUbj9KA2GzawLviz1SYwxVpaU4UBBCvt33kNL3YCoTcIvUz/CuujCa9Dq+JP4YeFG4W9KeHoazhCoIw4hND+e0NzEvoNRwvGxFOXqNwLkNVHDWXccqkb4rztxR3cAnHsDW77ehmuPHUGn7JkIv9o14Nl2No6/lsveapzftBJHkoThTpuIvRv2IFaog9SyFryqy6H09DScEVBH4FBhg3Bz30FEqYV85eqjkefjw7IcNWs464+01eG/Yqehgbix5WtsK9JABWrVri7kEwKr+AzY+HdCp075U0cEvOmNSoUnMQooatU2XD7QxCPDxt9omU7oGPAmvItb6CksdZcfKklBmUfxzSc/46ZaAmv/dxFQsYRdXukJT0OnIOJQKAo38z4cNHQK6jfyFFMZY6wMEW9qLKOyKGxWM7IW756XmNhR7YYtqEWDWmRrIiWJVQ99LnX0V9TaRnfHvJxsG/ahicFTaVSAG5nrnhIwrU9TTmYJufIo/DMfUukOuSVKsvNoRD4u1iSTyEgmkxg99ZBDxybU0j+tAEVjmhv99FvpX+ipB13ZkJCqsic1qleNzHTLQ0YOA3ZSim5RdTR91dpG/2SA3LYh9ZkYTFNHBZCb7okNiSnVn3JS6Jkn5YV/Rj76x0klpLTzoEY+LmQttE0mk5HE6KkH9bXFhf3lG0hjp82imVPHUf+AN8ihSXDxPw6lvkaLC+rkS4Fjp9GsmVNpXP8AesOhCQXrFyqmzYK8iGB6Q6HrIx/67EJ+4Y/ol76VdXfrGvpDakNd1z4Q5wmeeOpBTdFftSYbYV+QyG2pYZ+JFDx1FAW46Z7ykJBp/Smk38yMMVbGlPlfZiTNAzq2qA/5VNI9FicOKsIkUdqSz8B1YiY13d05kfwdTIzySMjEviWN23ZTCBFE6Wfoy05OZKIfmHVBhAsFzFhKH72hIpllAK3S/1CDhmLXBZKDiYIs3MfQ3sJH+IuVvWcYOSqFwdimE63S/U5AgTwKm+ZDplIZ2XRabfgNiILBT0EenXqSb3nd44VCXSQKsmvxCf0RX7i8+u5OmujvUFBXfX1N7KnluG10s7iBXC+dznzZiZxMdMGCrlxTcgmYQUs/eoNUMksKWBUn5lPTHaG/3nQwLdqnMguq/sE6umfcDCPqO0Kd3nQgU6M66R/frP4BrdMvVEybdctFL6CWFlKSWvjTwmuFwVT63tFUy1wIYiRSUjkE0dYkcYZOXhhN8zElqcyGOq2O0z8eKXQK7ZzoL2wbsX369ZuQfctxtK3kTmGMsf80ftdDPnUyboRfwLX4NJBFFdSqWw+u5XSnoo2oU3Dj3HlcTcyGqlJN1H+jBh7Pons6IO7CSUTEAtXqN4GX3d/4m3+5RzHO2x9fXpWi5ZfX8EdQFk6fuoncSp5oVN8R5k+cdVcj5cY5nL+aiGxVJdSs/wZqPNmgJ+TEXcBJQwPRxMuu5HsH1Km4ef48ou+nQ2JeEU4e9eBu96xbO9VIvXke56PvI11ijopOHqjnbve33hCqTrmBc+evIjFbhUo16+ONGuUKbk5ljLGypkwHChKJcLzL2HPi2JoxVpaU4ZsZGWOMMfYsfOnhv0SbgrDNP2DfHSXqdhuEDjVU4gzGGGPsxXCgwBhjjLES8aUHxhhjjJWIAwXGGGOMlYgDBcYYY4yViAMFxhhjjJWIA4X/D5nXcWDD91iz9SRiH3+b8z+aFrF75mBQYA98MHMvEkt8MRRjjLH/irL91IM2FgeXr8C+v3IhL18P3Qa/h7o2+bGTFjEHlmPVgURUazcCg5pXEtOzcffYz9geGo0kKg+3ll3QrYXTc/1yoPr0ZNRrFoJIqT++uv4nxjj8O+I17f3N6OPbCxtTvDB25wHMa12eI03GGPuv0wUKZZUm5mt6U5n/XgEZVev7Mz0oeA9BFu0IsiUp5OQ29oiYlkqhnzYwvDhIpiCF7mVPUhtqMv0EpYs5SiPn1CTylAvrLHhR1L9BMu0e7EJyWVXqvCKKcsRUxhhj/21l+4BQo9FHCZDIIJNpEbPxMyw8k6OfVRztX+sxe1EYHpr7Y/6lR0g6NhlvyB/i5JfzsD3/vcT/WaaoN2otQs+dwaYhtUp+vwNjjLH/FD5zrCOvj5ZNLYHcS1g2Yw3ulHDtPe/6FVzPJshdmqJlDRNY1muFBrZSUMZtXPurpJsNNPhr31z0beUNF0dX1G//IdZezjAEKEVk48au2ej/1huo6VgNTrUaIGD41zgS//QbAbJv7MLs/m/hjZqOqOZUCw0ChuPrI/HIX0pzdweCB/bFsMXHcP/COkzo7CuU7wT3ZoGY/WeckE+LRKF+g/p8gEHBv+C2RlxQkH5yKUb164MBn+1CTF4izm3/AcsXzMKq42liDoH6Lxz4ahS6NPNCdQddvX3xVtBn+DkqQ8zAGGPsX008s1Amae4uIn/dpQflm/TFj4PJWSb8XeZCQ/akCnOfvPSQF/Yp1VGAZPaD6LcMIeHBGupiLSGJ6Vu0tMgroAtlnZhKPuZGry0WJolCQQrdq5QLLj2o6ca3XcleLpQlNSVb1xpU1VL3imgJmftMoeO6dRVDfeNb6mov5JNIydTWlWpUtSS5UK7E3IemiAvlHBlLbnKQ3KkueZeTFqmHtFwArbyjodQtvaiS7nKKoiHNupz/muZHtK13JaH9ErLsuJruZ+W/wlpJLb+8I76W+TatD3TWt0X3Cukq1V3Jzlyqr7fMtgMtjSp85TNjjLF/Jz6joKeFsvkEjG1pBYnmNtZNX4JLxZwgkHt3RmdPE2hj12N4267o1PZ/+PWRFFU690cXu+K6MgU7Fi1FeIYQf9h3xPwDF3F+zzx0dZRCrRuq86XvwZxpOxGjtUHr+Wdw58Y13L30HbpVkSIjfCm+2pUqZjSWjj1zpmFnjBY2refjzJ0buHb3Er7rVgXSjHAs/WoXjJdS37mIu84D8e2RSzj1XW9UFyIKbeoBbP8jCdZvdcVbFYRIQX0ev+26Af1JhYxQ7D6QBK3EEi27BEAIJJ6Qtncm/rf5NtTyWhiy4xr+un4D9yJ/xPsOUmgSfsecBfvEnIwxxv6tOFDQI+HwujoGTu2HmnIg8/TXmPNzou491OJ8kbIhpv68FbP6t4J9+nXckXig26S12Ls6EMKY/qSc8zhyOlUIQxTwGjADH/p7oW67CVi/eghchfXkyz33Jw7FayCRe6HZG1m4FBaG8ARneLvJINE+wsXwaOSKeQvknsOfh+Khkcjh1ewNZF0KQ1h4Apy93SCTaPHoYjiijRdSvIEJ65ZhQHNPNOw9Al2qy4Rmq5F4X2in9Vt49+2KkFIezv66G3eFSCH76G78maCFxNIPXTvaFrOj5OD0r38iTsgrr98XH7arDKFEyJ26Y/i7LpAL4Ub8qaOGrIwxxv61OFAoIIG53wRMbF8OUm08fv58Oa7qhz5jabhxIwOubT7AqImfYPK4QejsLUX0uVvCsFkMTTziH2j1N0s616gpDJ4GUjPzIo9TquNiIcQJoNwjmN6qARo00E1+CD6Uq79GoFYb3TiQTx2HWMNCODK9lbhMA/gFH0KuYSHDmYF8EnNYWIiBj9QCFuaGv2s1ulzWePvdt1FRSsg98yt2x2TipBAExGoksGr1LjoWdzoBeYiJ0d0LIYG8qiMcC7pKhmrV7IRUoeyUB4Ykxhhj/1ocKBiTOqDPp0PhpRSOlyNWYsXRLHGGKOcslg7phcBevdCrYApEr0mbcaeYsRxSBZRyYcgk4Qj/4UNhUC2eVKmEQsgmUTXDxK07sXNn4bRr9+/Y+r9GTz5lIFVCaVgIzSZuLbLMzl278fvW/6HRczyaYPlWV7ytu1Eh+xR27/gdO3+/C43ECq26BggBhJipCCmUSoXwJ0GTmY6MgsYR0tIy9X+TWFjp/2SMMfbvxYHCY1QNPsLkrnaQah7g+vWUooO7qgVmHY1CdFQUogqmaFz5eRTcHj/5oCOviRrOuhlqhP+60xBM5N7Alq+34ZpRYKGoVRv6KwGaeGTY+KNTp04FU8eAN+FdqZjCFbVQ27AQ4jNs4G+0TKeOAXjTu9IT50OeylJ3+aESpJSJo998gp9vqiGx9se7ARVL2EmU8PQ0nCVRRxxCaP7joZqb2HcwSmixFOXqNxITGWOM/VtxoPA4qS26fzoKDUwNp+aLksG6ag241aqFWgWTG6pXNhfnP0buga7v1IFKokXqHx+hSZ3G8K3tg6D1N6GRFpYvq9UTH/jZQKq+gRW9/NFrXDBmz5qG8QM6wsexKT6LKObOSlkt9PzADzZSNW6s6AX/XuMQPHsWpo0fgI4+jmj6WYQwWD8PS7R5ty1spYTMq1G4o5bC2v9dBBR72UFHDo9eQfCzkUKbsBWjO3yA/302DaPf6YTPdGdiTOti6JgAMS9jjLF/LfHphzJJc/9b6mwtI5lNJ/o2zvjxxkd0dLof2SmlJJGXp7bfXBfTX0D6GfqykxOZ6B6HFLpbYupCATOW0kdvqEhmGUCrxPWq7+ykiW86kBCf6PPpJ4mMLKp/QOvuFf/opbAQ7Zz4JjmYGj9+KSGZRXX6YN09/SOMeWHTyMdUqm/j6vw2qqNpQUsLkkotyH/hNUOaTvpeGl3LnGQSCUlVDhS0NUmcIcgLo2k+piSV2VCn1XGGxyNJTXd3TiR/BxPSXWDJX7+JfUsat+0m5enzMMYY+zcr2+96+NvkIO7CSUTEAtXqN4GXXUk3D6iRevM8zkffR7rEHBWdPFDP3e6Z75FQp97E+fPRuJ8ugXlFJ3jUc4fd87x84mWpU3Dj3HlcTcyGqlJN1H+jBsoZPdXBGGPs34sDBcYYY4yVqEwHCpLHfyeBvRYcizLG2L8X38zIGGOMsRLxpQfGGGOMlYjPKDDGGGOsRBwoMMYYY6xEHCgwxhhjrEQcKDDGGGOsRBwoMMYYY6xEHCj8K2iRemEXftxyUvz8b5GJs6tGoc/Ib8XPL059+QeM6fsZfksq6R2c/z7auJPYvHYXLqT+d9r0/0VzezMmBk3G1mJf48oYexll9vFIbfxBLPv6D/ylLqH5Ejmc2o/FcK9TmBwYgqjW8/DLxP+vtyHm4th4b7Ra6Y28tK1i2j9f7vmZaNFiKWwXHMGuITXE1BeRiu39vNAragTCjn0Cj+d6LeY/V+bWXrDvdRb9D1zEwubP8U5w9qScoxhfpw12d/wTFxY0h0pMZoy9vDJ7RoGSL+PQ3r3Yq5/2YMuqBfhi4Wps3ZOfthdHrqRAm5OIG7rXSd/Lf48yKxXNVSyfsBjJ7y3FqkEvEyQIQd39bfh2ewoa9+6N2v+RIIG9YqrG+KCnO25v/Ba/p4tpjLFXoswGCjL3kdgcFo7z588L0ynMb28FabmOWHhK91mYwsOwYWgNSKsEYfOdBFxZ3E5ckpWKpALenrUfoUu7ovJL7WVaxO/YitBsX3TsWI2vlbESyOEV0A41E/dg258cKTD2KvH37rOoI7B61AB8uu12fgIiVo3CkMXHER/+PT7q6IuaTs7w8OuDuX/GosgVUm0Cji/7EF2aeMDFwRHV67ZCrykbcelZ32NpF7B2XGc0cHOCU+0W+ODz/Ygv5jK2JjYUi4a1h6+bIxxcveAXGIxfrueIc4v3zGV07R09GAsOx+PS+vHo6FMdjq510GboCoQ9NGTJOfU1Bvcbj3VX1IYEkebWVnzafwiWnM4V2n4PR9ctwtLdtwv75IX64xEO7juJnBpN0dy+8HSCOmI1Rg9egMPxl7B+fEf4VHeEa502GLoiDGI1DUqxzvyyDt3aj5ld6sLZyQsDNt4v7ItD93FhzRi0q+sCx5oN0X3mPsRptUg+uQSD/D2E/LXRrFcIDhptJG1qBH4K7o92Dd3hUq0aXDybo/vkzYjKFjO8MA1iQxdhWHtfuDk6wNXLD4HBvyB/E2qT92FO/yCM++EiCraq9i/s+mwgBoTsR6rwUR2xCqOGLMbx+HB8/1FH+NZ0grOHH/rM/ROx+RuroO23sH9mF9R1doLXgI3izKfXQS/3JnYE90AzdydUc3CDb4dRhfvL0+a9BHmdFmhcKRmhvwv7i5jGGHsFdPcosCz6uXd5ktkG0Y4sMSlfxhYKtFGQ29gj+Qm0JdCGFK71qW6FytS43zSaFzKBOtU0JalVC/riYp6YL4X2j69D5vLy9EbPSfT5l/Np6sDmZK+QkW3AcopWi9kep4mh9T3sSa50pDajZ9O86UPJ38GKbGzMSGrRTcwkSNpLo93NyMq7N4Ws20k7f1pIA31sSOk6kLYnaMRMjynNMmJ7azRqSPZO/jRsxjyaObQ5VZbLyWnwb/RIyKK+MpeaqORUe8JxyjEsJVBT5MwGpFA1pZAooXFG/WbI84L9kXOIPqwhJ6tuGyhNTNLJ2BJINooa1KihPTn5D6MZ82bS0OaVSS53osG/6WqpU7p1GsqqRU0b2VONgI8pZNZkWvjHA6O+aEAO1dvSmDmf0+SubmQmq0Ttxwwhn6ru1OXjEJo7ri056crssYHi9d2ooVsL/MnOI4BGzFxC369dTfNGtCA7mQn5BJ+j/D3EsF43GnuksBefJWnvaHI3syLv3iG0budO+mnhQPKxUZLrwO2k34Sae7SuexWSW7WkeZG6NWkodmNPoc3VqPeW+8Kn/PW6Uv26Fahy4340bV4ITehUk0ylVtTii4uG+oltr9W0EdnXCKCPQ2bR5IV/6OY8uw5CCec+8yFTKx8atHgz7dqxjhZ8+D5N2q7bLk+b95KEti/2V5Ki4Wy6XNL+xBh7bhwo6D1/oCCVV6Nu30ZTtpiaEzaF6inkVH1MqH5gVF+eS41VwnKj9lOqIYsgi8Km+ZBK5kTD9z2+IoO8i9PJR6Eg9/FHhTWJabc3Ut8aSpIUBApquhLSlEws/GnR9cJvRMMAbkatv74jphgr5TL69kpJWTOINt0WhzRNHK0OsCK5/RDaq2uw+gYtbGlKcrexVDDG5V2kGb4KMm31Jd3UFf9YoPCi/UHJq6mDiZzcxh01Ckp0xQuDnVRJNYM2UWE1V1OAlZzsh+zVb5fSrlNflkRCVi1C6EL+BtUp6Iv+tOVuflSxj4Y7y0hiVpc+3BuvH3iFStKmnhVJVr43/Zy/0bKzKMsw00AdTSFNFKT0W0i3xfTnDhTUVyikqQlZ+C+iwk0obNe5TUhl1pq+vmMoWH1rNXWqJKfyHZbTjfidNMBZQZW7raV7xuuVyqlat28punAHpin1FCSvPoZCddXRt11CEiH4DTHulNLUQRNL37RWkrLNEooz7gOdp817aVm0I8iW5Lb9nvx3zBh7YXzp4QXJXN/DR33cCu6uVnq3w5suwF/nzyJWq8X9/fsQrq2N7kF+sBbzACao17Mr6kpjceJIlJhWVPLxE4gkF3R4twHMxDS5U1cM6eyMghPv2gc4dPAcNE6ecEgKR1hYmH4KTy0Hh/J5iIq4LGY08lzLyODccRC6OMkNH6UVUaeOIyTJCUjQnSGWOaPbe82gurkLW04aTvKqr/yMHREqNH+vG5yeuOHwxftDk5iIZI0E1uXKFbY/n1CPjoO6oLCadVDHUYLkhASon3edMnv0mDwa3k/cLq/riwHo7CCu3URYh5sMcvduGNzaVrx2ZwVPD2dIMx4gMUufAKhMYKKbqX6ImKuXcP78A6hNJKD0h3j0gk9Dah8cwsFzGjh5OiAp3LD9wsLCkVrOAeXzohBxOU+fT+bcD/On+YP+mIb3Aj7EurS3MP2LXrA3/tcuc8V7H/WBW+EOjHaGHRhnY/MrKIN9j8kYbdQppaqDtBw83KtBe+xrjFtyGDHG1wGeNu+lSVGunLClHz5AEl97YOyV4UDhVZFVhl1FYSB4mIpUrRoxMfHQSKvAMX8UE8kcHFBZpkVKYpKYYkyDxPgH0EjsUKXKE8NiIW084hI1UEetQGCLZmjWTJxajsH2ZBNY2+SHGEZeZBkjSoVCKEMDjX4MkaLau++jpdlt7NpyHDnCsHzl5524YNoK779rX8xO9aL9IVCrhaWFfLKn9EcBJQzV1AhhwnOuU2IGS8ui+YolVUAuk4gfCsnkQv2IhHWLg2xaOFYN8YNz+QpwcK+Phk39Mf2wYSB/0eeRtfFxSNSoEbUiEC3yt58wtRyzHckm1rAxy6+XDG5DpmNgjWScC/sL1QdORT/XZ/WfDJXtKkJCD5Fa8LsOEphZWsK4V0pXBxO0nLEe8zpJsWdsK1R3aYQ+c/fiTq6uhKfNe3lyuT460+02jLFXhAOFV4XSkaE7mjS3gIVECpVSCYk2E+npRX8ARpuWhgytFBY2VmJKUQqlMNIhExkZTxlOJCqhfOFLscEMXMjMQU6O0ZT9CJHz/MSMRl5kmaeQ2nXG+29a4K9dm3Ek7TK27bwI89Y90LnYRxxevD8kQn+aC2NPZmbmcw6wL77Ol5eB/ZO6Y+RP6Wi/7BRiM3KQm5OCbzu+3G8lSFQqIRSSo8GMC8g03n7ClP0oEvP88svXIun3b7HthjWq2StxbdMq7E181mkMQrphB4aFxZOBUL7S1kFarjE+2nQB189uxpRWOfh1Sld0nn4SunjgafNeDgn/brJACjOYm4hJjLGXxoHCC9ImXcXlmMIBSJtwEqevaWHr7o1qMjlcPWrCXBuJY0eThK/tfMIXeOghRGjL4Y0G7mKaMRnsa7rCSnsD4WdTCpfT3MPFKKNyZA7wcCsHun4eEY/EtGd5kWWeRmqLju+/DeuYX7Fx9QbsuGSFtj07opI4u6gX7Q9hNZXsUdlMi8S4WP2ZhdJ78XW+NPU1HD7+FyRNhmB6oA8q669BaKAuGq88N5mDB9zKEa6fj8BTN2HKH5gyfi0evT0H+7aMhXf8j5gQbHjioYA2CVcvxxR5IuXk6WvQ2rrDu1rJZx9KXQc9GSrU7Y4p67ZjajMNroQexl8FK3zavBeVi/v3kyGxtUfVUpwcYoyVDgcKL0ib9BvGdRqIlafikBYfhpUfhWB/TnW890FL6A5mLNsFoXu1NOyeOgyLQm8hLTsNt0MXYegn25HuOQgj2lsYCnqMeauuaG+bhj0hk7DpcgrSY09g+YDOmLw/TcyhY4Y2QT3g8lD4kh21EqfjDcdi6uRoHPxxJXZfL+4b90WWebry7d9H+wpx2PTZElwq3wE925cT5zzpRfsDKg941pAi6Vo07heO9qXywut8WUIQVdVOCW30MYTGCeGNNhXnVwzGnH2GSw8lS8FPPSpAWWUgdhX3GKVZGwT1cMHD7VMxauVpGDahGsnRB/Hjyt0wbMKHOPDZWHx3vzH+9/kA1G7yP8wb5ILb336EmYeNngkVAoXfxnXCwJWnEJcWj7CVHyFkfw6qv/cBWj7taLw0dVCfxbKPZ2BzeIL+LEHGtVCcvg3YOFeHLT1lni4+yT2Cj91NYeY9SfhgkHvkY7ibmsF70rH8FBz52B2mZt6YdMywH+upryL6Rg4UNT3hrjsxxxh7JThQEKlMTCFTmcL08bOuUhVMVFIoTYqeNpa7vIshDcIxsak9rCo3wIidGrSe+T2CW4rX+q3b4YsNc9BB/gcm+LvCytQKLm9OwjHbQfhu8zQ0LunLuHxXzFkyFO5xP6C3Z3lYVmuJ6bc6YPnsDrBQFi5k/uYsrF/wDqS/jkDjqhYwtzSDWSV3tB2/ARcfFn+SvlTLFNteCRQqpdA/KgizClm3Rd/uzsjLyINz9z5421JM13m8nBftD1kNNG9cDXTxNE5niGkCqcpEqIsSRaupgEopg0qop76apVxnsWXpFNsXUmFfUUJuooLcaF9RCOuUK4X+kQlrllZFrykT0TR7E3rVtEMVO2d0WGOLYUPeENahgkJc7on1ajPx4EE6tHI5lMWe/TfHm7PWY8E7Uvw6ojGqWpjD0swMldzbYvyGi9BtQvXFrzFpdSzqjZuP0Z66w2pL+E8LQd9qN7Bi6gpE58eDche8O6QBwic2hb1VZTQYsROa1jPxfXBLw020Jez3pakDYArtlZXo61NVmGcCG/dB2GMZiPnB7wi1edo8HRL+k0AiMdrRdL8yLxHSpIVphiQJjJKgfRCGM9cBj2bNUcEonTH2csrsux5eXCa29rJHr7P9ceDiF3C7dgxn/wLs6zZCnSrFjHbqVNw4dw5XH+TB0rEufL0q6884PIsm5SpOh91EVjkPNPJ1FL6ei6dNv4sLZy8jJkMOa/sa8PJ0hs0zTru+yDKvzAv0R+bvQ1G7069ou+MqVrV/+k2XxXrBbfCytGm3EHb6ClLMa6NpQ1dYPmPw0t5ZjoB6HyNl/BEcnlIPjw/RhbRIv3sBZy/HIENuDfsaXvB0tily0+HTGL9j4gu3azhm2IHRqE6V5+iXZ9UhB4lXwnDuZipkFd3h6+sKm4IrGk+b9+JSNnRH9X43MOr0Gcyo93ft0Iz993Gg8NyMA4WF4Hf5/A1yjmFCXX9sbP4LolYH4DVdMPh/lo0j4+qj8/Fe+DN0KnxeYyTzn3wZlTYR67rXwtCESTh7aCK/E4SxV4hP0LF/PlVjDB/RAuk7vseOZ969/y+luY2/TLvi628nvtYg4b9Kc3cjvv9TiU6j+sGNgwTGXik+o/DcNLi1dxm2xNVDv6DmsOVQ6++hScHt6FRYubmgPJ9VfimaW3uxbEsc6vULQvP/yg6ck4DrN3NgV8vhmZd4GGPPhwMFxhhjjJWIY2/GGGOMlYgDBcYYY4yViAMFxhhjjJWIAwXGGGOMlYgDhf8XWqRe2IUft5wUP79m2lRc2PUjtpyMExP+JTLPYtWoPhj57SUx4UWpcfmHMej72W9I+o8+XcleP83tzZgYNBlb7zz/z50z9m9WxgOFbFzeOheffhKM+VsvwvhtCkVpEHNgKT775BPMWBsmpr0MNSLXTMCAAfPFz0Dyb5PR1q8rvjhl9Nv1r4o6EmsmDMCA+aFiwr9BLs4vGIFx2x6ibsvaYtoLSt2NL6asxlWlM2w4NH4FkvHb5Lbw6/oFXsfu+k8lq1IVmpNf4tPFJ5AjpjFWFpTtr03NTfzyRTDmzpuLyb2DMP98Ce8nTP4ZE3t9iNnzPsfMmevExFdJi5zEG4iKisK9FD7k1dFcXY4Ji5Px3tJVGFTjZX44QYv7277F9pTG6N27Nv623+LJCcWEetXQfEbYc7718l9Am4PEG1HC/noP/3+7aw5CJ9RDteYzEPZ3dbCqMT7o6Y7bG7/F70bv12Lsv67MH1/pfkVC/kYbtLK8hHWrDyNTTC+kwe0NK7ArqznatbAwLPDKSVElaDPuJFzB4nb8s3w6kgpvY9b+UCztWvnldlJtPHZsDUW2b0d0rPY37u70CA/iEnA/KVMIVf5jpFUQtPkOEq4sxv/f7kp49CAOCfeTkPm3dbAcXgHtUDNxD7b9yZECKzv4RKxAYtUGQV0q468tq/FripiYT30B3317FGYBA9GlUjHdpYlF6KJhaO/rBkcHV3j5BSL4l+tFT02mXcDacZ3RwM0JTrVb4IPP9yP+sS83dcRqjBrwKbbdNrr+qU3A8WUfoksTD7g4OKJ63VboNWUjLj3jOyrtwlqM69wAbk5OqN3iA3y+P76YwUqD2NBFGNbeF26ODnD18kNg8C+4/oxzqprYUCwa1h6+bo5wcPWCX2AwfjFaSNeO0YMX4HD8Jawf3xE+1R3hWqcNhq4Iw0N9jhyc+now+o1fhytFjgQ1uLX1U/QfsgSnc4Wm3zuKdYuWYrdRf2gTjmPZh13QxMMFDo7VUbdVL0zZeAlP7Y5HB7HvZA5qNG0O+4LTCWpErB6NwQsO4f6FNRjTri5cHGuiYfeZ2BenhTb5JJYM8oeHs9B/zXoh5GDR/ntWPbKPL8LAfotw9JEGiX/MQt/AXugz7seCNze+UDuKlY2rvwSjdytvuAr7R02fthi04ABidevRpiLip2D0b9cQ7i7VUM3FE827T8bmqML3V+dvq0P3L2DNmHao6yKU0bA7Zu6Lg1abjJNLBsHfw1nYZ5uhV8hBo31W13+jMODTbSi6uz6rXfn9fhjxl9ZjfEcfVHd0RZ02Q7EizLB35HvqfpZ9HIsG9sOio4+gSfwDs/oGolefcfhR38FapEb8hOD+7dDQ3QXVqrnAs3l3TN4cJfTWy5PXaYHGlZIR+vtJvvzAyg7dLzOWWepImumrIGWbpXT36ASqrbCidsvvkkacrZO+Zwg5KarT6IPJtPl9G5JXHyPO0UmivaPdyczKm3qHrKOdO3+ihQN9yEbpSgO3JxiyaGJofQ97kisdqc3o2TRv+lDyd7AiGxszklp0M+QRZGwJJBuFG409kiOmpND+8XXIXF6e3ug5iT7/cj5NHdic7BUysg1YTtFqMdtjNDHrqYe9nJSObWj07Hk0fag/OVjZkI2ZlCy6bRBzCTXfO5rczazIu3cIrdu5k35aOJB8bJTkOnA7JRh3gLGkvTTa3YysvHtTyLqdtPOnhTTQx4aUrgNpu7iQoR01qFFDe3LyH0Yz5s2koc0rk1zuRIN/eyTkUNOVuU1IJa9NE47nt1Wg2xYNFKRqGkJRQtue6I+U/TS+jjnJy79BPSd9Tl/On0oDm9uTQmZLAcujhVKLl3PoQ6oht6JuG9LEFJ0M2hJoQ4oajaiBQ3VqO2YOfT65K7mZyahS+zE0xKcquXf5mELmjqO2TgqS2fagDfFip5SiHjlnltHIoLfJzVRK1l4BFNSvPw38dDPd1M18wXY8SUP3NgSSg8KEnN8aTbO/XEjTRwZQ7fK+NP1iHmluLSB/Ow8KGDGTlny/llbPG0Et7GRk4hNM5/IMJRRsqwYOVL3tGJrz+WTq6mZGskrtacwQH6rq3oU+DplL49o66evXY0O8+G9D7D+3sVS4u5amXYX93tDeifyHzaB5M4dS88pykjsNJv3uofOs/SznDC0bGURvu5mS1NqLAoL6Uf+Bn9JmXQdrbtECfzvyCBhBM5d8T2tXz6MRLexIZuJDwfkNfxmae7TYX0mKhrPpcuk3FmP/ahwoiIHC/ZxLwkClJFWjORSZ/wWguU9rupYnlfDlGpGX8USgoL4SQk1NLMh/0fXCL3j1FZrbREVmrb/Wf8y7OJ18FApyH39U+Jo0yLu9kfrWUJLkKYGC+vJcaqxSkNuo/ZSqT9HJorBpPqSSOdHwfVlimrE8ujjdhxQKdxp/tGBtdHtjX6qhlBQGCkIdQ5qakIX/IrpeWHHDAG7Wmr6+U1ykIMwPaUomFv60qHAhoai51ERlRq2/vqP/rG+HVEk1gzbRbfF7WRO3mgKs5GQ/ZC9lC5/VNxZSS1M5uY09QvnjTN7FGeSrMKVWX97U92XR/lDT5bmNSSV8HrW/sDcoK4ym+ahI5jSciu0OQfLqDmQid6NxR/PXpGMYsKTKmtR/y11x22XQvuHOJJOYUd0P91J+XJC8qSdVlJWn3j/r+vM56pG1g4JsFVR9zKGCNr5MO56Qd4Y+8Rb2XZ9pdE7XqaKsmDvCvqz7WzZlZRlvRzVFhzQhhdKPFt4Wh/v8bdV/C90VN2nGvuHkLJOQWd0PaW9hJ1DPijIq3/tncR9+PFAobbsK+z1o021hz9TRUNzqALKS29OQvfq9o1T7mVA47QiyJYXw7/GQ8aYVZGdlFQn21dEh1EShJL+Ft4ukvxjDeuW2/WhHabcVY/9yfOkhn9wdffq2gPzcWnyvO/ct0Fxbi1W/58Gvf394PXE/nRYPDh3EOY0TPB2SEB4WhjDdFJ6Kcg7lkRcVoc+VfPwEIskFHd5tADN9irAqp64Y0tn5KTfWaXF//z6Ea2uje5AfrMVUwAT1enZFXWksThyJEtOMJeP4iUiQSwe826BgbXDqOgSdnQvXpn1wCAfPaeDk6YCkcLHeYeFILeeA8nlRiLicJ+Y0on2AQwfPQePkCYekcHGZMISnloND+TxERVwWMwpkzug4qAucxD6TVqyDOo4SJCck6G/skzl3w3vNVLi5awtO6s/fqnHl5x2IUDXHe92cnuwX7X3s3xcObe3uCPIr7A2Y1EPPrnUhjT2BI1HF3dGmQWJiMjQSa5Qr92Rvy5w7YkBnB3F9JqhTxw0yYT/oNrh1wcu+rDw94CzNwIPErJeoh+hllzeijTmCo9GAZ8C78FaJiQKTqo6w0785WgUTE10j1HgYcxWXzp/HA7UJJJSOh4+MLqTottWAznAQu8ekTh24yeRw7zYYrQs7AR7OUmQ8SITQC096znbp+n1QFydhz9SRoqKwTkdJMhIShDzPs5+VQGVior+mqn4Yg6uXzuP8AzVMJIT0h4+KuQT3vKTCviS08eEDJPG1B1ZGcKBQQArHHkF42+I6flr9B9KQg9Orv8Mp8w4YGOhUTEdpER+XCI06CisCW6BZs2bi1BJjtifDxNpGyCMMVPEPhIHKDlWqPDlQlUyNmJh4aKRV4Jg/2opkDg6oLNMiJTFJTDGiSUT8Aw0kdlXwtNVp4+OQqFEjakUgWhTUuxlajtmOZBNr2JhJxJxGtPGIS9RAHbUCgS0Kl2nWcgy2J5vA2iY/MCmOEgqFUIRGY/iillbDu++3hNntXdhyXPi2VV/BzzsvwLTV+3jXvphdUh2DmHgNpFUcC4IPAxkcHCpDpk1BYpLRxXIjarVugJJB9szul0Ihl+GJlguDpgwE0gp1f4l66L3s8kbU8QlI0kpRqWpVccB9XBrCVw2Bn3N5VHBwR/2GTeE//TD0IeBT7seVKoT2PtkJELoGRFpoihtpX7ZdSgUUwp6h0RX+UvuZQVr4Kgzxc0b5Cg5wr98QTf2n4/CzGv4c5HJ9GCLsW4bPjP3XcaBgRGrbBf272CH+l+/w8/XfsGLDDTj0GIJO5cUMRUigUgmHbvIGmHEhEzk5OUZTNh5FztPnUghfgkAmMjKe50tKCpVSCYk2E+npRb9gtWlpyBAGCAsbKzHFmEL3nSusLgNPW51EpRKGbjkazLiAzCL1zkH2o0jM89MfkhYlUQl10jV3Bi5kFl0mJ/sRIuf5iRlLQwq7zu/jTYu/sGvzEaRd3oadF83RukdnVC5uj5QK9VVKoM1MR9Hu0CItLQNaqQVsrIqLBCQwtzAX/p+JzMxXMEi8cD1EL7u8EamwfyiEo+TszOKfqsjYPwndR/6E9PbLcCo2Azm5OUj5tqOw3V+DV9iul97PMvZjUveR+Cm9PZadikVGTi5yUr5Fx1fWcBL+LWeBFGYw5weUWBnBgUIRlni733twSduLhUGz8PMDL/QZ5FdwyaAo4WjJww3l6DrORzwS0x4ng31NV1hpbyD8bErhF7rmHi5GJRX7BW8gh6tHTZhrI3HsqHE+LZJCDyFCWw5vNHAX04zI7FHT1QraG+E4a/SAu+beRUQZ/SShzMEDbuUI189HoKSaP0HmAA+3cqDr51Fic5+D1LYj3n/bGjG/bsTqDTtwyaotenasJM59jNwVHjXNoY08hqPGP62oTULooQhoy72BBu7FHVcLR9z2lWGmTURc7Cs4/HuuekghFY7M8/JyC49jX7gdT5I7u8HFVIMrZ04X3YaZaUgXDnWvHT6OvyRNMGR6IHwqG07Fa9RFg85X5hW263n2M6mhg5FrFAOqrx3G8b8kaDJkOgJ9KkN/9UWjxqtreS7u30+GxNYeVUvZJMb+7ThQeIyqaT8Eeqtx8Xg4qMUA9Pcu+dvArE0Qerg8xPapo7DydLzwFSJQJyP64I9Yufu6Po95q65ob5uGPSGTsOlyCtJjT2D5gM6YvL/k34HUsWwXhO7V0rB76jAsCr2FtOw03A5dhKGfbEe65yCMaG8h5jRmjlZd28M2bQ9CJm3C5ZR0xJ5YjgGdJ6PI6szaIKiHCx5un4pRK08j3lBxJEcfxI8rd+N6sd+qZmgT1AMuD7dj6qiVOG1YSGhuNA7+uBK7i1/oKcqj/fvtUSFuEz5bcgnlO/RE+3LirCdYol1Qd1RL242pwxYh9FYastNuI3TRUHyyPR2eg0ag2O4QqDw8UUOahGvR958SmJXWc9RDagvbCsD9U/txNjkNMVfv4KG29Mun/NQDFZRVMHBXCQ/1WbVDYEdbJP8SjLE/hCNBOJq/c3gp+vu9jdln1bCtagelNhrHQuOELatF6vkVGDxnn+HSwyv34tvnSaXdz6SwNXQw9p9NRlrMVdx5qBW6vSrslFpEHwtFnO6Wh9TzWDF4DvYZNzz3CD52N4WZ9yQxQZf0MdxNzeA96Vh+Co587A5TM29MOmaog576KqJv5EBR0xPuurN3jJUF4k2NZZM6muY1NyXLTt/RAzFJd9f1ja/fIhtlVeqzuTBVf7dzPzsy8fyf+Nkg9fRi6lHbmmQSKSnMLMhUISWJohK1nBMm5tDQ3Z9HUD1rIV133lKioMotPqaN87uQVfneYh6h9J39yU7lRZNP5d/CraHkY1/QO9XNDcuJy9o2HE4boo1uc3+c5i79PKIeWUsl+mUkisrU4uONNL+LFZXvvVXMJEg9TYt71CZrmYSkCjOyMFWQVCi/Uss5FFbiU2SpdHpxD6ptLSOJVEFmFqakENajqNSS5ogLPdkOgTqSZjcyIavuGyhdTNJL/4NG1lCRTFWDRv2R/5SGwRPlaJLp2BfvUHVzQ7sMbbOlhsM30NO6g7IP0CgXBZV7fxPlP32n25Y7+9uRymsyGVczdW1XsjRtRp/rns8Uqa8vID9TC+r0nbgvlLoeOXT+i5ZUXuhfXR6Z62gK1a2rVMtr6N5if1LKqolPAhRPE7ubPm5mRwqJWI7Ukty6fUVndJ386AhN97MlhcyUyleuSNZVmtDo+aPJ17IxzRGf6yt2W6Wupa6WptTs8yjhX4JIfZ0W+JmSRcG/k2L6r1TtKr7f1ZGzqZGJFXXfkL93PHs/08k5/wW1LC/k0a1P5kqj9R38iI5M9yNbhYxMy1emitZVqMno+TTa15Iaz7lsaFPOIRpf25TMvCfrPunlHBpPtU3NyHvy8fwUOjS+NgmBAk02eoxXE7ec2popyGfGJfGpDcb++yS6/wn/qNnL0Kbj7oWzuByTAbm1PWp4ecLZpuiZCE3KVZwOu4msch5o5OsoHPuXkjoVN86dw9UHebB0rAtfr8p49qVRDVKunkbYzSyU82gEX8eS1qZF+t0LOHs5Bhlya9jX8IKns00JN8cV0qbfxYWzlxGTIYe1fQ14eTrjsea+NurUGzh37ioe5FnCsa4vvCo/qzcy8fvQ2uj0a1vsuLoK7Z99L1yplK4euUiIPIGwW7mo6N0UDZ0Kt8NTl9fewfKAevg4ZTyOHJ6Cek+9vp6JmIgzuBCTh/K1G8DX1RoFdwNo03Ar7DSupJijdtOGcLV8/ScQn3/7lKw0+1luQiROhN1CbkVvNG3oJP670iLtVhhOX0mBeW2h310tX9mp05QN3VG93w2MOn0GM+r9TTs9Y//POFBg/3k5xyagrv9GNP8lCqsDSn0O/P9N9pFxqN/5OHr9GYqpPi8+0LJXTJuIdd1rYWjCJJw9NBG1S3l/JmP/dnyPAvvPUzUejhEt0rHj+x1IfPkbFV4zDW7/ZYquX3+LiRwk/KNo7m7E938q0WlUP7hxkMDKED6jwMoETcptRKdawc2l/DMvrTBWrJwEXL+ZA7taDvgbruIw9o/BgQJjjDHGSsRxMWOMMcZKxIECY4wxxkrEgQJjjDHGSsSBAmOMMcZKxIECY4wxxkpUxp96yMTFTV/ip/Np0JIEEpkCptaVUb2+H97290Klx5+jy47Eli9/QgQ80G14L9TXvUk6nzYFJ77/CvutemDSex76R/BST32PxX/I0OGjvvC1NGT7p0r+bTICQ6LQet4mTGz0Wt4xyBhj7F+obJ9R0NzGjgXT8fk367Br7x7s2bUVPyyYiKC2deFSuyNm/BlX5EVCmpvbMS94NmZ/GoRuE39Fipiup43Fn8vmYNaPp5GlT9Agdt9SzJq5EgcTXtNb+14ZLXISbyAqKgr38t86mROKCfWqofmMMLy21+7/HetgjDH2UvjSAwGyuh9i59nzOH/hMm7GJ+DqrzPxpnofpr/bFbPOGL+9j4T/FKhRywn31k7FwjM5Yvq/nRRVgjbjTsIVLG4n/hogPcKDuATcT8osEiy9Un/HOhhjjL0UDhSeYAbX9p9g87bJ8FGfwZcz1iO2yCgmhfvACehoeQHfTFmNm6/0ZIEaEatHY/CCQ7i1fya61HWGk9cAbLxvqIAmNhSLhrWHr5sjHFy94BcYjF+uFwYr6ojVGD14AQ7dv4A1Y9qhrosjajbsjpn74qDVJuPkkkHw9xDKrN0MvUIOIt6oXbplRw34FNtua5B9fBEG9luEo480SPxjFvoG9kKfcT8iWmzrs+ohFIbVowdjweF4XFo/Hh19qsPRtQ7aDF2BsIeGLC+9DsYYY38LDhRKYFJ/OAa3MsWjQ79ivzi45aOKPfDZRw2Quz8E03ckvsKj4VxcO7AOa1Z9gsCgtVC3HY4hnb1RQffe++TfMbZNAIKPV8B7wUuwdM5AuF1bjJ5tR2KH+AKD3GsHsG7Ncvyvc0fMvFoLPYf3gffDPZjeeyDGDn8b3ZYkoUHQMHR3jsHWKT0xZlNCQd11y65ftxXH7mkgVZrA1EQBmQSQyJUwMTGBiZkJ9HculKIeQmE4sG4Nlk/sjHafhsOhi9COt60R+d0odP94D9KELC+9DsYYY38P3c2MZZY6kmb6KkjR7Au6XvDy/Xw5dHKiO8kVb1BwhOHN8+rImeSrUFHH71KJHv1JI2sqSOk1kY5lCDPzLtEMHwWpOn1Pjwy5KXKmLykUzeiLJwsvQQZtCbQhicSKWoRcoILX+AtlXQlpSiYW/rTIqCz1lbnURGVGrb++o/+csSWQbKRKqtl/C90Vs2XsG07OMgmZ1f2Q9sZrDInJm6hnRRmV7/2zsEYD/bIKNxp7RHz3ftYOCrJVUPUxh4SeyFe6egiFUaCNlJQ1g2jTbfGt/Zo4Wh1gRXL7IbQ3v2Evsw7GGGN/Cz6jUCIpVColJNBAU9zlBUt/fDqtM8pdWY4pK6OFXK+OzL4HJo/2hkr8DO0DHDp4DhonTzgkhSMsLEw/haeWg0P5PERFXBYzCmTO6DigMxzEt9uZ1KkDN5kc7t0Go7WtuLmtPOHhLEXGg0TxxstSep56QAbnjoPQxUl8dERaEXXqOEKSnICEp925+FzrYIwx9rpxoFAiDWJjE6EVBrjKdsV1kxRVes7AuCZaHJk/GzuSCEJU8UpIzCxhafxopjYecYkaqKNWILBFMzRrJk4tx2B7sgmsbczEjE+SKuT60/tFySAXAgkiLTTPcyb/Jeqho1QohDKEwOtp63zJdTDGGHu1OFAoSU4YDhxNgLRmIzTKPxJ/nNwDI2cPRo2ETZix6ALUryhQeIJEBZVSWF2DGbiQmYOcHKMp+xEi5/mJGV+zv6Me/5S2MsYY0+NAoVipOPn5JKy+bo4Wg4JQ//EfXjJi3vx/+KxbBUQu/xy7kl/Tb1fJHODhVg50/TwiHolpr50UUiHwycvL1T1BavDK6/F3rIMxxtjL4EBBJ/ky/ti2BVs2/4Tvv56OoW0b4K3pYajY4yusGOkG8XJ/8aR26P7ZRLTQXkT4jdf1s0FmaBPUAy4Pt2PqqJU4HZ+rT1UnR+Pgjyux+/orfUbTQGoL2wrA/VP7cTY5DTFX7+Ch9hXX4+9YB2OMsZdStgMFiQUqVDCDJuoHjHi/B94PDMKoz77DibwGGPP9EZxaF4QaxmcTdI/0KUxgYlI0dJDVGo6FU1vDTqFABduK0D3NqKM0NYVCqYKJvLTXJKRQmaj0jw7qHxM0Yv7mLKxf8A6kv45A46oWMLc0g1kld7QdvwEXHxqOx6UqE6ikSpgYLywV1q+Uw0QlN7qFQgGV8FmpUkEm7gFPLKush8B+TWER8TmaVbCCU/sFOC/EQaWph36dKqnQXcYVkUChUkImrFOYZfAy62CMMfa3KOPvevj30abfxYWzlxGTIYe1fQ14eTrD5imXRl5OLhIiTyDsVi4qejdFQydzMf1V1uPvWAdjjLEXxYECY4wxxkrE9ygwxhhjrEQcKDDGGGOsRBwoMMYYY6xEHCgwxhhjrEQcKDDGGGOsRBwoMMYYY6xEHCgwxhhjrEQcKDDGGGOsRBwo/MNo405i89qdiEh5nvc/M8YYY69HGQ8UshG5ZS6mTJmLDeGpYlo+LVJOfIvPZm3B5df1rqdiZB9bjKGDPsaayL9xpf9fkn/D5LZ+6PrFKTGBMcbYP03ZDhQ0N7F9XjBmz/4UQd0m4tcUMV1Pi9g/l2HOrB9xOktMYq+UNicRN6KiEHWvsONzQiegXrXmmBH2ugKlHIROqIdqzWfgta2CMcb+Q8r8pQfdmy4UNWrB6d5aTF14RhhG2N9FWiUIm+8k4MridmKKsD0ePUBcwn0kZb6uSy+ERw/ikHA/Ca9tFYwx9h/C9ygIpO4DMaGjJS58MwWrb2rE1BJoE3B82Yfo0sQDLg6OqF63FXpN2YhL6eJ8gTpiNUYPXoBD9y9gzZh2qOviiJoNu2Pmvjhotck4uWQQ/D2c4VS7GXqFHER8MQMWpUVgzbhO8K3hCGdPP/QJ2Y+4/KqpI7B69GAsOHQL+2d2QV1nJ3gN2CjO1CA2dBGGtfeFm6MDXL38EBj8C64/JQIqqO+t/ZjZpS6cnbwwYON9ce6zylMjYvVoDF5wCPcvrMGYdnXh4lgTDbvPxL44LbTJJ7FkkD88hDrWbtYLIQfjUdBcXTtGDcCn224LH7JxfNFA9Ft0FI80ifhjVl8E9uqDcT9GCzUQaGIRumgY2vu6wdHBFV5+gQj+5bpRYJdfj8OIv7Qe4zv6oLqjK+q0GYoVYQ8NWbKPY9HAflh09BE0iX9gVt9A9OozDj9G53fs8/cdY4z913GgoEMV0eOzj9Agdz9Cpu9AYolHmqk4MPEtvD1mHf5yfgfDx3+I3g00OPxFH7TuuQJXxfEm99oBrFuzHP/r3BEzr9ZCz+F94P1wD6b3Hoixw99GtyVJaBA0DN2dY7B1Sk+M2ZRQOHjqaO9jy+D2+PS0HQKGjcC7Tvew9dN38f7CS8JwKMi9hgPr1mDVJ4EIWqtG2+FD0Nm7gn7R5N/Hok1AMI5XeA/BS5ZizkA3XFvcE21HltwuQ31X4ZPAIKxVt8XwIZ3hXUGhn/fs8nJx7cA6rFn+P3TuOBNXa/XE8D7eeLhnOnoPHIvhb3fDkqQGCBrWHc4xWzGl5xhsShAromvH+nXYeuye8EEKpYkpTBQySIT/5EoTmJiYwMxEKcxLxu9j2yAg+DgqvBeMJUvnYKDbNSzu2RYjdyTqiyqsx0R0bvcpwh26CO14G9aR32FU94+xJ03IIlXCxNQECpkEkMiF9enWYQb9KgQv0neMMfafp3vNdJmljqSZvgpSdfyOUukR/TmyJimUXjTxWIYwM48uzfAhhaoTff9IzH55LjVWKcht1H4hf74sCpvmQyqZEw3fl6VPydgSSDZSJdXsv4XuqvVJlLFvODnLJGRW90PaG68xJCZvop4VZVS+98+kW6OOYVk5OXT7jq7liInZp2iyt4Lk1cfQIV1axhYKtJGQxKoFhVzINuTRUV+hkKYmZOG/iK6L6xUS6crcJqQya01f3xHX+xj9OiUSsmoRQsbFla68DNoSaENSZU3qv+WuMFcng/YNdyaZxIzqfriXCpvbkyrKylPvn8XW6tsh9OfYI4bPgqwdQWSrqE5j9A01UF8JoaYmFuS/6LpYvkCo29wmKjJr/bWYUFiPoE23ha2no6G41QFkJbenIXvzG5ZFO4JsSZHfl/lesO8YY+y/js8oFLCE/6fT0LncFSyfshIFZ6MLaHF//z6Ea2uje5AfrMVUwAT1enZFXWksThyJEtMEMmd0HNAZDjLDR5M6deAmk8O922C0thW73coTHs5SZDxIRJH7JWWu6P5Rb9QQj3ShqocObVyAv87jbGz+oa0M9j0mY7S3Svws1PDBIRw8p4GTpwOSwsMQFqabwpFazgHl86IQcTlPzFkMmT16TB4No+KeqzyZc0cM6Owg1ErHBHXquEEmd0e3wa1R2FwPOEsz8CDxee4O1eLBoYM4p3GCp0MSwvV1EKbwVJRzKI+8qAgxn4GuHoO6OEGu/yRFRaHfHSXJSEh4+p2LL9V3jDH2H8aBghFplZ6YMa4JtEfmY/aOJBAk4hwdNWJi4qGRVoGjk2EYyidzcEBlmRYpiUliypOkCjl0Z7yLkkEujKxEWmieempbhiqVK0JCD5GSmp9RAjNLS3FANNDGxyFRo0bUikC0aNYMzcSp5ZjtSDaxho3ZExUoJDGDpWXRdr14eVIohIY92VyhD4ReJa2m6KWWp9IiPi4RGnUUVgS2KKhDs2YtMWZ7MkysbcR8JVAqoBDK0Dy9g1+u7xhj7D+MA4Ui5PAYORuDayRg04xFuKA2HhykUCmVkGgzkZ5e9HSDNi0NGVopLGysxJRXjZCRoTsKN4O5RckDlkSlglJoQ4MZF5CZk4Mcoyn7USTm+eWfoiidV13ei5FApRLWI2+AGRcyi9QhJycbjyLniflezj+jrYwx9s/DgcLjzJvjf591Q4XI5fh8V7IwROeTw9WjJsy1kTh2NMnoiFiLpNBDiNCWwxsN3MW0l6RNxvWoOMPd/jraBJw4fQ3aSh7wriZeyyiGzMEDbuUI189H4JGY9jJedXmlIpUKoUEe8nLze14GBw83lKPrOB/xamohlQrBVl4eClYh+H9pK2OM/QtwoPAEKey6f4aJLbS4GH7D8JSByLJdELpXS8PuqcOwKPQW0rLTcDt0EYZ+sh3pnoMwor2FmPMlUQr2jO+IQatOIi4tAWdXfYSQ/Tmo3r0PWpmIeYpj1gZBPVzwcPtUjFp5GvG5ukQ1kqMP4seVu3H9ifsunuFVl1cKUltbVMB9nNp/FslpMbh65yFM2gShh8tDbJ86CitPx8NQjWREH/wRK3df1y9XelLY2lYA7p/C/rPJSIu5ijsPhbDv/6GtjDH2b1DGAwXd43IK/WN4RY7TZbUwfOFUtLZTQFHBFhUNTwoC1u3wxYY56CD/AxP8XWFlagWXNyfhmO0gfLd5GhqLg7hUZQKV7lE847PVUpXwWQ4Tldzo2r0CKuGzUqWCTNwSUqUKKov2mBrSAGETmsHeyg6+w7cjr2UwVn/WCmb6TEJZKt3jhI+fDjfHm7PWY8E7Uvw6ojGqWpjD0swMldzbYvyGi3hodARtrNj66pWmPClUJiqh3iZCbxbSlamUC+XKjS6VKIS2yZVCm2WGHa+YdijrBaJfUwtEfN4MFayc0H7BeajN38Ss9QvwjvRXjGhcFRbmljAzqwT3tuOx4aL4Gwkl1EMirFMpE9YrrMdAiXqB/dDUIgKfN6sAK6f2WHBeFw6+WN8xxth/nUT36IP4d1Za6lTcOHcOVx/kwdKxLny9KuNpB/ovSp10BSfO3Ia6ch00qmdvCBJKRYv0uxdw9nIMMuTWsK/hBU9nGxS9VfF5vOryniE3AZEnwnArtyK8mzaEk7mYrk3H3QtncTkmA3Jre9Tw8oSzzYvVIjchEifCbiG3ojeaNnQSwoR8f3NbGWPsH44DBcYYY4yViO9RYIwxxliJOFBgjDHGWIk4UGCMMcZYiThQYIwxxliJOFBgjDHGWIk4UGCMMcZYiThQYIwxxliJOFBgL0UbdxKb1+7ChYK3WpaGFqkXduHHLSfFz6/S6yz7NdPG4eTmtdgZkSK0gjHG/hnKeKCQjcgtczFlylxsCE8V0/JpkXLiW3w2awsuG7/wITcGxzd8hZnBn+Hzlb/hSpqYXkZlH1uMoYMm4IdLxp30LGpErpmAAQPmi59fpddZ9muWfQyLhw7Cx2sihVYwxtg/Q9kOFDQ3sX1eMGbP/hRB3Sbi1xQxXU+L2D+XYc6sH3Fa94ZnndxLWNzpDbQauQz7zxzGj592QUO/iTiY/7oBxhhj7D+mzF960P2AtaJGLTjdW4upC88gR0wvTvafi/DFQSX6rDmJ0N8O4PTOj+AYuQwLtyaIORhjjLH/Fr5HQSB1H4gJHS1x4ZspWH2zpPcJaxF/9ToSpV5o0txGn2JW1xfeZjm4c/Ou/vOTcnFzRzB6NHOHUzUHuPl2wKh1VwynlXPPYOnQAQjeGWN0PVqD29umYMCIleJng+yrvyC4dyt4uzrAsaYP2g5agAOxhnrmnlmKoQOCsTPG6Kq25ja2TRmAESvDxQQ1IlaPxuAFh3Br/0x0qesMJ68B2HhfWCb3JnYE90AzdydUc3CDb4dRWHfFcOJbmxqBn4L7o11Dd7hUqwYXz+boPnkzorL1s0sv7QLWjuuMBm5OcKrdAh98vh/xxVyE18SGYtGw9vB1c4SDqxf8AoPxy/WnhW6CUpWtQWzoIgxr7ws3Rwe4evkhMPgXFCn6Kf2gjliFUUMW43h8OL7/qCN8azrB2cMPfeb+CXEzCLRIjfgJwf3boaG7C6pVc4Fn8+6YvDkKRbsrG1d/CUbvVt5wdXBETZ+2GLTggFE5AnqIsFWj0K6+Kxxd6qDN0BUIe+yslTbhOJZ92AVNPFzg4FgddVv1wpSNl5AuzmeMsVeFAwUdqogen32EBrn7ETJ9BxKLGcR0XWVpZQm5NgkJ8YZvde2jZKTkSFC+UiX958epw+eiR+Ai3PQYgfnLlyC4lxseRF6F/kpG7mX8vmYdfj4ZWyRQiDm+BT/++If4WVhHzE8Y0OZ9fHFcCf9B4zH2gyZQHJuD/62+op+fe/l3rFn3M07GGlVaE4PjW37Ej39EiQm5uHZgHdas+gSBQWuhbjscQzp7o4JCjfC5PRC46CY8RszH8iXB6OX2AJFXdTXU4u53YzF2ayKqdx6N4LnTMbKVFEfnBaFPSHjpr6FrY7FhUAcMXBIBm3ZDMbqXJ2KW9MTAH+4ZtVuQ/DvGtglA8PEKeC94CZbOGQi3a4vRs+1I7Ch+g5S67OTfx6JNQDCOV3gPwUuWYs5AN1xb3BNtR+Zv66f1g9B71w5i/Q9fYVTbt/DJqUoIGDoC79W4j5+ndEPPhZcMfaG9i+/GjsXWxOroPDoYc6ePRCvpUcwL6oOQ8Pze0iLmpwFo8/4XOK70x6DxY/FBEwWOzfkfVotBiS5P3E+D0GnWZbi8OwJD2loj8rtR6P7xHhTcDpN6ABPfehtj1v0F53eGY/yHvdFAcxhf9GmNniuuCnsRY4y9Qrq3R5ZZ6kia6asgVcfvKJUe0Z8ja5JC6UUTj2UIM/Po0gwfUqg60fePDNk1t1dSQDkFVfH/iBatWkKfdnIhVYUAWnlLbchQhIZiv2lNSmUbWhKnEdOMpP1AnVUK8pp8WlhTvhw6Os6N5BbdxM95dOYTb6FOPjTtXLaYJsiKoTv3c/R/TfuhM6kUXjT5dGEplHOUxrnJyaLbBjEhg7YE2pBEYkUtQi5QQUmaWPqmtZKUbZZQcVWk7CzKMk5XR1NIEwUp/RbSbTE9Y0sg2SjcaOwRQ30el3dxOvkoFOQ+/qhQCzHt9kbqW0NJkoJ2qulKSFMysfCnRdcL+1J9ZS41UZlR66/viClFlaps9RUKaWpCFv6LqLBoYX1zm5DKrDV9fUdoyDP6Qd9GqZyqdfuWovM7LyeMptRTkLz6GAoVm56dlSVs9ULq6BBqolCS38LbhvS8M/SJt9B/PtOo6Oa8Q/rNmbGFAm2kpKwZRJtui9tTE0erA6xIbj+E9uqXUdPluY2Fbe5Go/an6rPoZYXRNB8VyZyG074sMY0xxl4BPqNQwBL+n05D53JXsHzKSkQXc1gmdRqI73YuRBeLM1izeBVC0QFf7l6Dgc4yMYcxKcp5uKOa9hi+HrcEh2OecQq9ONoYHDkaDXgG4F1vlZgoMKkKRzul+KH0ZPY9MHm0NwpKkpaDh3s1aI99jXFLDuOJKqpMYKLbQ9QPEXP1Es6ffwC1iQSU/hCPSjjIf1zy8ROIJBd0eLcBzMQ0uVNXDOnsjIJe0z7AoYPnoHHyhENSOMLCwvRTeGo5OJTPQ1TEZTFjUaUpW/vgEA6e08DJ0wFJ4YZyw8LCkVrOAeXzohBxOe/Z/aAjc8V7H/WBW37nKb3R7k0X4K/zOCuezVGZmOhP0akfxuDqpfM4/0ANEwkh/eEj/RkObcwRGDbnuyi6OR1RuDllcO44CF2c5IaP0oqoU8cRkuQEJOhOOmjvY/++cGhrd0eQn7Uhj45JPfTsWhfS2BM4ElXq8z2MMfZMHCgYkVbpiRnjmkB7ZD5m70gCQSLOKVTedwDm/fQ7jpw4it9/+hxB9SzFOU8yaTkD6+d1gnTPWLSq7oJGfeZi751ccW4pqOORkKSFtFJVVBXHjZchMbOEZZFyTNByxnrM6yTFnrGtUN2lEfrM3YuCKqaFY9UQPziXrwAH9/po2NQf0w8LA6uA9P9/Fg0S4x9AI7FDlSrFBVMibTziEjVQR61AYItmaNZMnFqOwfZkE1jb5IcBxkpXtjY+DokaNaJWBKJFfrnC1HLMdiSbWMPGTLeNn9EPxZKhsl1FSOghUsXfkEgLX4Uhfs4oX8EB7vUboqn/dBi6y9Bb6vgEJGmlqFS1Kp5ncyoVCqEhGmh0q1HHICZeI+yrjsiPJQxkcHCoDJk2BYlJfPGBMfbqcKBQhBweI2djcI0EbJqxCBfURQMFbcxStLWxgIWF0WTVFLMulnAEJxypNv5oEy5cP4vNU1oh59cp6Np5Ok7qBiCJRAhDSHfpp+i1emNSpTBICLmyM5FZQiaJUI7u0Q2iEkt5Kmm5xvho0wVcP7sZU1rl4NcpXdF5+knkIgP7J3XHyJ/S0X7ZKcRm5CA3JwXfdny+MxkKpTDIIRMZGU8JLSQqqIRi5Q1m4EJmDnJyjKbsR4ic5ydmLKo0ZUtUKiiF7dpgxgVkGpcrTNmPIjHPz9CekvuhJIT0DN09DObCfiBsg4z9mNR9JH5Kb49lp2KRkZOLnJRvYdxdUqUSCgkhOzOz5G3+LFKhPUoJtJnpSC8SD2iRlpYBrdQCNlZPCcoYY+w5caDwOPPm+N9n3VAhcjk+35Vc5MhZaj8AGy5HISrKaLqyC2M9n358KKtQF92nrMP2qc2guRKKw38J3/AyC5ibEZKEo8yCQUN9C+cuJhZ+ljvDzcVUWOYMTj8S0/QykZZuCE5kFuYwoyTEJxQOPepb53CxpBsAiyVDhbrdMWXddkxtpsGV0MP4K+caDh//C5ImQzA90AeV9dcghKP+5zpYlcG+piustDcQftbo1wY193AxKqnws8wBHm7lQNfPI6JIO5+mdGXLHDzgVo5w/XwEnl10Mf2Q315tEq5ejim8UVCbgJOnr0Fr6w7vajKorx3G8b8kaDJkOgJ9Khsu2WjURW4slDu7wcVUKPfM6aJ1yUyDuDmfTe4Kj5rm0EYew9Eko20s1C/0UAS05d5AA/dXcPqJMcZEHCg8QQq77p9hYgstLobfeOzufjPYubqhVq1aBZNb9SqwLLYX1Ti77GPM2ByOBN1hacY1hJ6+Ddg4o7qtcMSnqIcGdVVI3PUVvjx2H2lxJ7Cs7zuYccpwat/ACu0CO8I2+RcEj/0B4QmZSL9zGEv7++Ht2Wf1ORT1GqCuKhG7vvoSx+6nIe7EMvR9ZwaKFFMS9Vks+3gGNocn6I+cM66FwlDF6rBV2KKqnRLa6GMIjRN6QZuK8ysGY86+0hRcyLxVV7S3TcOekEnYdDkF6bEnsHxAZ0zeb/yTlmZoE9QDLg+FAXrUSpyONxzHq5OjcfDHldh9vfjopFRlm7VBUA8XPNw+FaNWnoahaDWSow/ix5W7oS/6af1QcLNDEn4b1wkDV55CXFo8wlZ+hJD9Oaj+3gdoaSLsNbZVYafUIvpYKAzddR4rBs9Bke6yaofAjrZI/iUYY38Q9ovMdNw5vBT9/d7G7LOGNj+bJdoFdUe1tN2YOmwRQm+lITvtNkIXDcUn29PhOWgE2luIWRlj7FUw3NNYRqmv0bwWZmTdfQOliUn5ssPnURs7BSmqDqRdL3QXeR5FfhNA9ioJyZSmpJILf1p5UN810QVPOTw6Nota2cpJd/EAEhU5tJtNOxZ2IIvyvcUcAk0s7f64Gdnpzlnr80nJ0q0bfXUmXczwiI7NakW2Qvm6+RKVA7WbvYMWdrCg8r23iXmyaGd/O1J5TaZTxg8n5EXSNwH2pJLISGmqIrnwp5VHX1oTbajhoyPTyc9WQTLT8lS5ojVVaTKa5o/2JcvGc+iy+ARB1s7+ZKfyoslFCjamobs/j6B61lKxnQqq3OJj2ji/C1kZt5NS6fTiHlTbWkYSqYLMLExJIZWQolJLmhNm9ERHEaUsO/U0Le5Rm6xlEpIqzMjCVEFSIW+llnNIX/Qz+sHwZIcLdRvbj+oUrEu3vULoWIo+i+ARHZnuR7YKGZmWr0wVratQk9HzabSvJTWec5nyH7jQxO6mj5vZke6Kkn57SS3JrdtXpN+cWTupv52KvCafosLeVFPk7EZkYtWdNuRvck0yHfviHapuLu4TunIUttRw+IbCpzIYY+wVkej+J3zRsNckJ/EKws7dRKqsItx9feFqU/T6sebhTYSdiUZ6OS808XEouHv/cZkxEThzIQZ55Wujga8rrIsUo8HDm2E4E52Ocl5N4ONQUinFyUHilTCcu5kKWUV3+AplG1dRm3YLYaevIMW8Npo2dC3h7MmzaVKu4nTYTWSV80AjX0eYi+mP06bfxYWzlxGTIYe1fQ14eTrD5hln0ktXthbpdy/g7OUYZMitYV/DC57ONkY3FZbcD5lbe8G+11n0P3ARX7hdw7GzfwH2ddGoThWYGLKItEi7FYbTV1JgXrspGrpalnDKLhMxEWdwISYP5Ws3gK+rNYruFaWjTr2Bc+eu4kGeJRzr+sKrctHaMMbYq8CBAmPPYBwoLGz+fDdzMsbYvx3fo8AYY4yxEnGgwNgzqHz6YuasSXjXjZ8mYIyVPXzpgTHGGGMl4jMKjDHGGCsRBwqMMcYYKxEHCowxxhgrEQcKjDHGGCsRBwr/MNq4k9i8diciUox+x5+9JC3iTm7G2l0XIL7osXS0qbiw60dsORknJrxCr7Ps14z3UcbKljIeKGQjcstcTJkyFxvCU8W0fFqknPgWn83agsulfWHPK5B9bDGGDvoYayL/xpX+52Xj2OKhGDThB1x6nm5VR2LNhAEYMD9UTHiFXmfZrxnvo4yVLWU7UNDcxPZ5wZg9+1MEdZuIX1PEdD0tYv9chjmzfsRp3duEGWOMsTKozF960P2KhKJGLTjdW4upC88gR0xnjDHGGAcKelL3gZjQ0RIXvpmC1TeLf6VxAW0Cji/7EF2aeMDFwRHV67ZCrykbcSldnC9QR6zG6MELcOj+BawZ0w51XRxRs2F3zNwXB602GSeXDIK/hzOcajdDr5CDiC/mUi+lRWDNuE7wreEIZ08/9AnZj7j8qqkjsHr0YCw4dAv7Z3ZBXWcneA3YKM7UIDZ0EYa194WbowNcvfwQGPwLrj8tAsq9iR3BPdDM3QnVHNzg22EU1l0RTyvnnsHSoQMQvDMGhdXU4Pa2KRgwYqX42SD76i8I7t0K3q4OcKzpg7aDFuBArK7SuTizdCgGBO9EjFFbNbe3YcqAEVgZLq7rKe3KvbkDwT2awd2pGhzcfNFh1DrkV1GbGoGfgvujXUN3uFSrBhfP5ug+eTOisg3zSyvtwlqM69wAbk5OqN3iA3y+P96ozfleoH8Fr6rsp/WDOmIVRg1ZjOPx4fj+o47wrekEZw9h35n7J/SbQU+L1IifENy/HRq6u6BaNRd4Nu+OyZujUKS7sq/il+DeaOXtCgfHmvBpOwgLDsSKMw3oYRhWjWqH+q6OcKnTBkNXhOGhOM9Ai4Tjy/BhlybwcBH2iep10arXFGw0/sfCGPvn0/0yY5mljqSZvgpSdfyekiJmUWMzGVXru40SNLqZeXRphg8pVJ3o+0f63IIU2j++DpnLy9MbPSfR51/Op6kDm5O9Qka2AcspWnyXsOG1xDWoUQMHqt52DM35fDJ1dTMjWaX2NGaID1V170Ifh8ylcW2dSCGzpR4b4km/yvxlZVZkb1+B7JsNpGnz5tLY9i6kklpRiy8uGl5RnbGFAm0UVKtpI7KvESCUNYsmL/xDv3zS3tHkbmZF3r1DaN3OnfTTwoHkY6Mk14HbxXY9Lo/OfeZDplY+NGjxZtq1Yx0t+PB9mrRdbHTaD9RZpSCvyacLXo9NlENHx7mR3KKb+JlIc28DBTooyMT5LRo9+0taOH0kBdQuT77TLwpz0+iHzipSeE2m00ZvjM45Oo7c5BbUbUOGIaGkduWdo898TMnKZxAt3ryLdqxbQB++P4kMVdTQrQX+ZOcRQCNmLqHv166meSNakJ3MhHyCz4l1zqAtgTakcBtLR0p4G7YmZj31sJeT0rGNUP95NH2oPzlY2ZCNmZQsum0Qc71I/77Csp/aD/n7nSvVr1uBKjfuJ+w7ITShU00yNd53NLdogb8deQSMoJlLvqe1q+fRiBZ2JDPxoeBz4sbR3KMNgQ6kMHGmt0bPpi8XTqeRAbWpvO90/WzDPmpJdpXLk6P/MJoxbyYNbV6Z5HInGvxbwT8WStk/nuqYy6n8Gz1p0udf0vypA6m5vYJktgG0PP8fC2PsH48DBX2g8B2l0iP6c2RNUii9aOIx3cD1ZKCgvjyXGguDptuo/UL+fFkUNs2HVDInGr4vS5+i/yKVKqlm/y10Nz942DecnGUSMqv7Ie2NF0eU5E3Us6KMyvf+WRjKDAzLysmh23d0LX9Qyz5Fk70VJK8+hg7p0vQDqoQkVi0o5EK2IY+O+gqFNDUhC/9FdL3ge1hNV+Y2IZVZa/r6TjEjmSaWvmmtJGWbJRRX3EBXqkAhj8584i30nQ9NO2dUn6wYunNfV+HnCRSebJcm9htqrVRSmyVxBQFVEdlZlGU8Qx1NIU0UpPRbSLf16c8KFPLo4nRhWyvcafzR/C2RR7c39qUaSknhYP4i/fsKy35WP+TvO9W6fUvR+d2XE0ZT6hn2nVCx7dlZWUWWV0eHUBOFkvwW3tan5535hLyFzz7TzlHhVsiimDv39X8r2L+DNtHt/NgibjUFWMnJfshewzLqyzS3sbDN3UbR/sJ/LJQVNo18VDJyGr5PKJEx9m/Alx4KWML/02noXO4Klk9ZiegnrkBocX//PoRra6N7kB+sxVTABPV6dkVdaSxOHIkS0wQyZ3Qc0BkOMsNHkzp14CaTw73bYLS2FbvdyhMezlJkPEhEkfslZa7o/lFv1Mh/o7GqHjq0cQH+Oo+zsfknrGWw7zEZo71V4mehhg8O4eA5DZw8HZAUHoawMN0UjtRyDiifF4WIy3liTiPScvBwrwbtsa8xbslhxLzITRraGBw5Gg14BuBdo/rApCoc7Z73tcxPtktazgPu1bQ49vU4LDkc8+R9JCoTmOi6VP0QMVcv4fz5B1CbSEDpD/HoyfP7xUjG8RORIJcOeLeBmZgmh1PXIejsLG5AwQv17yss+5n9oCPsO+991Adu+d2n9Ea7N4vuOyoTE/01R/XDGFy9dB7nH6hhIiGkP3wk7OVaxBw5imh4IuBdbxRuBRNUdbQT/y7Q7d+DusBJfE+WtGId1HGUIDkhAborIdr7+7EvXIva3YPgV/iPBSb1eqJrXSliTxxBlHjJhDH2z8aBghFplZ6YMa4JtEfmY/aOJBAk4hwdNWJi4qGRVoFj/rejSObggMoyLVISk8SUJ0kVcsiMi9OTQS6MFURaaJ46oMlQpXJFSOghUgp+CEACM0tLYcgppI2PQ6JGjagVgWjRrBmaiVPLMduRbGING7MnKiAwQcsZ6zGvkxR7xrZCdZdG6DN3L+7kirNLQx2PhCQtpJWqoupLv2DxyXbBpCVmrJ+HTtI9GNuqOlwa9cHcvXdQUMW0cKwa4gfn8hXg4F4fDZv6Y/phw6BdqjeeaRIR/0ADiV0VVCkcu5/wQv37Kst+Vj8US4bKdoZ9J1Xcd9LCV2GInzPKV3CAe/2GaOo/HYbu0vWWGvEJSdBKK6Hqc21MJRQKoR0ajRBqCKXExCBeI0UVR6ei21LmAIfKMmhTEpH0jNuBGGP/DBwoFCGHx8jZGFwjAZtmLMIFtfEXvxQqpRISbSbS04t+w2nT0pChlcLCxkpMedUIGRm6cw5mMLcobrA3kKhUwte1HA1mXEBmTg5yjKbsR5GY51f80b20XGN8tOkCrp/djCmtcvDrlK7oPP2kYQCSSIShW3+JSj8AFEuqhFIh5MrORGaxmYQyhGrryhBiohcgRbnGH2HThes4u3kKWuX8iildO2P6SV0NM7B/UneM/Ckd7ZedQmxGDnJzUvBtx+c5k6EQ6i/8kZmBjKdEFi/Wv6+y7Kf1Q0kI6fp9xxwWun0nYz8mdR+Jn9LbY9mpWGTk5CIn5VsUdpcUSqHCEspGZvEbs1SkKmGfkGiRmZ6OIv9atGlIyxCCSgsbWD0lcGKM/XNwoPA48+b432fdUCFyOT7flWx0RCqHq0dNmGsjceyocMQlpgrffEgKPYQIbTm80cBdTHtJ2mRcj4or/ILVJuDE6WvQVvKAd7WSv11lDh5wK0e4fj4Cj8S00pOhQt3umLJuO6Y20+BK6GH8pauAzALmZoSk+ITCNqtv4dzFxMLPcme4uZhCc+UMThdZcSbS0nXnl2WwMDcDJcUjobAQ3Dp3EYnPMxbJKqBu9ylYt30qmmmuIPTwX9Cor+Hw8b8gaTIE0wN9UFl/DUID9fMcrcrsUdPVCtob4Thr9GuDmnsXEZVU+PmF+vd1lF1cP4izoE3C1csxRfadk7p9x9Zdv++orx3G8b8kaDJkOgJ9Khsu2WjURoO5HM5uLjAVyj1TdGMiM630TyvIXT1Q01yLyGNHYdRMoXqhOBShRbk3GsD9pc8+Mcb+DhwoPEEKu+6fYWILLS6G39Bfb81n2S4I3aulYffUYVgUegtp2Wm4HboIQz/ZjnTPQRjR3kLM+ZIoBXvGd8SgVScRl5aAs6s+Qsj+HFTv3getTMQ8xTFrg6AeLngoDCCjVp5GvP5AU43k6IP4ceVuXC9u8FSfxbKPZ2BzeIL+DELGtVCcvg3YOFeHrS4mUdRDg7oqJO76Cl8eu4+0uBNY1vcdzDhlfD3eCu0CO8I2+RcEj/0B4QmZSL9zGEv7++Ht2WeF+QrUa1AXqsRd+OrLY7ifFocTy/rinRmnUNxV/cepzy7DxzM2C+UaziBcCz2N27CBc3VbyKS2qGqnhDb6GELjhK2lTcX5FYMxZ19pSs5njlZd28M2bQ9CJm3C5ZR0xJ5YjgGdJ2N/mphF50X69xWW/dR+0GXXEQKF38Z1wsCVp4R9Jx5hK8V9570P0FLYd6S2VWGn1CL6WCgM3XUeKwbPgXF3WbULREfbZPwSPBY/CPtFZvodHF7aH35vzxZzlIJlOwR1r4a03VMxbFEobqVlI+12KBYN/QTb0z0xaER7vKJ/LYyx101/S2NZpb5G81qYkXX3DZQmJuXLDp9HbewUpKg6kHYV3J6toeRjX9A71c1JdyZd132QKMi24XDaUHCbOVHWzv5kp/KiyaeMbrFPXUtdLU2p2edRVHhT+3Va4GdKFp2+owdiUtaOfmRn1ZGmL+1PXlZSw3qEddi3mUWHk/Mz7aT+dirymnyKnriJP/U0Le5Rm6xlEpIqzMjCVEFSYflKLedQmNETBwXyIumbAHtSSWSkNFWRXPjTyqMvrYkuzPzo2CxqZSsX66Iih3azacfCDmRRvreYQ6CJpd0fNyM7hUTsFylZunWjr86kG+Y/OkazWtkK5ev6TUIqh3Y0e8dC6mBRnnpvEzu4hHblRX5DAfYqksiUZKoS6iGzIo++ayi/io+OTCc/WwXJTMtT5YrWVKXJaJo/2pcsG8+hy/rOzqKd/e1I5TWZjDdJEZq79POIemQtNdRfoqhMLT7eSPO7WFH53lvFTILn7V+dV1T2s/pB/zSCwoW6je1Hdazz9x3d9gqhYymGPEJv0ZHpfmSrkJFp+cpU0boKNRk9n0b7WlLjOZfFfVNDsbs/pmbC/m/Yz4X6WLpRt6/O6OcWu3+rI2l2IxOyEv4tiVucNMnH6It3qpO5fpsbylHYNqThG6KNnqZgjP3TSXT/E/4Rs+ehTsWNc+dw9UEeLB3rwterMp52oP+i1ElXcOLMbagr10GjevbIv2f+2bRIv3sBZy/HIENuDfsaXvB0tkHJZ3pzkHglDOdupkJW0R2+vq6weewKh+bhTYSdiUZ6OS808XEosS6ZMRE4cyEGeeVro4FQjrVxOZqHuBl2BtHp5eDVxAcOpW+QUMVEXAk7h5upMlR094Wvq03hUbRAm3YLYaevIMW8Npo2dIXlC50r0yDl6mmE3cxCOY9G8HU0F9Mf97z9q/OKyn5KP2Ru7QX7XmfR/8BFfOF2DcfO/gXY10WjOlUe2z+1SLsVhtNXUmBeuykauloWf2oxMwYRZy4gJq88ajfwhWuRjVlaaqTeOIdzVx8gz9IRdX29UPl1/GNhjL02HCgw9h9hHCgsbP48N3MyxljJ+B4FxhhjjJWIAwXG/iNUPn0xc9YkvOvGjxMwxl4dvvTAGGOMsRLxGQXGGGOMlYgDBcYYY4yViAMFxhhjjJWIAwXGGGOMlYgDBcYYY4yViAOFfyNtKi7s+hFbTsaJCS9Om3oBu37cgpNxRm/u+X+VibOrRqHPyG/Fz4wxxv4/lfFAIRuRW+bg08mTMGnyZHwyJRhzv9mEY3czxfnPkozfJreFX9cvcEr/Ep+Xl/zbZLT164ovnlagOhJrJgzAgPmhYsKLU0euwYQBAzA/NFtM+f+Ve34BRozbhod1W4opjDHG/j+V7UBBcxPb532GkG/WYdeePdj98xrMHx+IFm4e6PJNhHBs+wzaHCTeiEJU1D0YvUH4JWiRk3hDKC8K915Ngf8umqtYPmExkt9bilWDaoiJjDHG/j+V+UsPup+bktX9EDvPnseFy7cRd2sPJngnYdf/xmB58e8NLiStgqDNd5BwZTHavZIX3UhRJWgz7iRcweJXU+C/i6QC3p61H6FLu6IyXxRjjLF/BP46foyyaltMHukP06wwHD5hOKegjliN0YMX4NCt/ZjZpS6cnbwwYON93RxErB6FAZ9uw+2CmEKLhOPL8GGXJvBwcYBj9bpo1WsKNl5KF+cL1BFYPXowFhy6hf0zu6CusxO8BmwUZ63GqAGfYlthgUi7sBbjOjeAm5MTarf4AJ/vjxfWYkyL1IifENy/HRq6u6BaNRd4Nu+OyZujUPSCQhourB2Hzg3c4ORUGy0++Bz745995kITG4pFw9rD180RDq5e8AsMxi/Xc8S5gvz2HI7HpfXj0dGnOhxd66DN0BUIe2jIknPqawzuNx7rrqgNCSLNra34tP8QLDmdKzTjHo6uW4Slu2+jsDsTcHzZh+jSxAMuDo6oXrcVek3ZCOPuZIwx9vpwoFAMqUwGiUQOpcLQPbnXDmDdmlX4JDAIa9VtMXxIZ3hXUOjm4NqB9Vi39RjuiSNb6oGJeOvtMVj3lzPeGT4eH/ZuAM3hL9CndU+suCpmyr2GA+vWYNUngQhaq0bb4UPQ2buCOOsA1q/bimNigdrYDRjUYSCWRNig3dDR6OUZgyU9B+KHe0YDvPYuvhs7FlsTq6Pz6GDMnT4SraRHMS+oD0LC8wdmLWI3DEKHgUsQYdMOQ0f3gmfMEvQc+AOMi3pC8u8Y2yYAwccr4L3gJVg6ZyDcri1Gz7YjsSNRXFBsz/KJndHu03A4dBmOIW9bI/K7Uej+8R4hPAHk1hmI3LgYs787I/RaPg2i13+BeT9FIl33CmNdOevXYevxe2KgkIoDE9/C22PW4S/ndzB8/Ifo3UCDw1/0QeueK5DfnYwxxl4j3bseyix1JM30VZCi2Rd0XS2mpZ+jkFY2JLNuR8vvaPRJGVsCyUYiIasWIXQhW58kyqAtgTakcBtLR3KEj+rLNLexSvg8ivanGnLoZIVNIx+VjJyG76MsXULGFgq0kZDEqgWFFC3QsC6FG43VF5hHF6f7kELhTuOPZhgyCGm3N/alGkoJWXTbIKYRZWdlkaG2BuroEGqiUJLfwtuG9LyLNN1HaKv7eCos6jZt7FuDlBIL6rYhP9GYmq6ENCUTC39aVNBBQuqVudREZUatv75jSNC3R0rKmkG06XaeIU0TR6sDrEhuP4T26pqovkELW5qSPL+vdIQ6zRD637TVl3RTV7y+HAW5jT1Chu6cS41VwudR+6mwO7MobJoPqWRONHyfvjcZY4y9RnxGQaC9vhkf9/sAfd7viMYeLfDJMXO0n/UFghyNukdmjx6TR8NbJX4uhvb+fuwL16J29yD4WYuJApN6PdG1rhSxJ44gquDMuwz2PSZj9NMKRDKOn4gEuXTAuw3MxDQ5nLoOQWdn4QjciMrERH96SP0wBlcvncf5B2qYSAjpDx8ZLlMkH8eJSIJLh3dRWJQTug7pjMeKKqR9gEMHz0Hj5AmHpHCEhYXpp/DUcnAon4eoiMtiRh0ZnDsOQhcn8c2F0oqoU8cRkuQEJOjaLHNGt/eaQXVzF7acNFy2UF/5GTsiVGj+Xjc4PVEHLe7v34dwbW10D/JDYXeaoF7PrqgrjcWJI1FiGmOMsdeFAwUB5WUiNSkZj/Is4Nl9GtafCMf2Ud7CkGREYgZLy6e/vlcdE4N4jRRVHJ2E4dyIzAEOlWXQpiQiqeB0uQRmlpZF8z1Ok4j4BxpI7KqgSkmDuSgtfBWG+DmjfAUHuNdviKb+03E4TzfH8HJQTWI8HmgksKtSRRjSS0kbj7hEDdRRKxDYohmaNROnlmOwPdkE1jb5EUfxlAqFUIYGGn2kIkW1d99HS7Pb2LXlOHKgxpWfd+KCaSu8/659MTuiGjEx8dBIq8AxP/gQyRwcUFmmRUpikpjCGGPsdeFAQSBz74dVu37Fzp834tsFE9HTp1LpB1MjUpUSSokWmenphTfj6WjTkJahhdTCBlbPVbBCGGyFPzIzkPG0l4Fn7Mek7iPxU3p7LDsVi4ycXOSkfIuOSnG+jkIplKYrKkMMHUpBooLQJMgbzMCFzBzk5BhN2Y8QOc9PzFg6UrvOeP9NC/y1azOOpF3Gtp0XYd66BzoX+4iDVFi3EhJtJtLTi96MoE1LQ4ZWCgsbKzGFMcbY68KBwiskd/VATXMtIo8dRZLxvYZJoTgUoUW5NxrA/eknJYqS2aOmqxW0N8Jx1uh3FTT3LiLKaAXqa4dx/C8JmgyZjkCfyjDRbVWNukiwIrOvCVcrLW6EnzX6zQcN7l2MKlLXImQO8HArB7p+HhGPxLSXIbVFx/ffhnXMr9i4egN2XLJC254dUUmcXZQcrh41Ya6NxLGjSUZPeWiRFHoIEdpyeKOBu5jGGGPsdeFA4VWybIeg7tWQtnsqhi0Kxa20bKTdDsWioZ9ge7onBo1oDwsxa+mYo1XX9rBN24OQSZtwOSUdsSeWY0Dnydive5RAJLWtCjulFtHHQhGnFobS1PNYMXgO9ukvPYjMW6Fre1uk7QnBpE2XkZIeixPLB6Dz5P36pxKKZ4Y2QT3g8nA7po5aidPxhucV1MnROPjjSux+1u9MFKN8+/fRvkIcNn22BJfKd0DP9uXEOU+ybBeE7tXSsHvqMCwKvYW07DTcDl2EoZ9sR7rnIIxo/3y9yRhj7PmV8UBBCRNTOZQqE8glYlIxpMJ8lVTIa3wqX08KlYkKUqWJUJKONdp9sQFzOsjxxwR/4QjeFFYub2LSMVsM+m4zpjUW73qQqmCikkL5ZIFPrKt81zlYMtQdcT/0hmd5S1RrOR23OizH7A4WBctLq/bClIlNkb2pF2raVYGdcwessR2GIW8I9VIpYGhaeXSdswRD3ePwQ29PlLeshpbTb6HD8tnoYKFbX/G7gvmbs7B+wTuQ/joCjatawNzSDGaV3NF2/AZcfChexCi2PRIoVErIVCqhPWKSjnVb9O3ujLyMPDh374O3LcV0ncfLsW6HLzbMQQf5H5jg7worUyu4vDkJx2wH4bvN05DfnYwxxl4fie7RB/Hv7JVRI/XGOZy7+gB5lo6o6+uFyi81qGmQcvU0wm5moZxHI/g6movpxrRIuxWG01dSYF67KRq6WhYfBWpScPV0GG5mlYNHI18UW1QxtOl3ceHsZcRkyGFtXwNens6weZ7LKC9DnYob587h6oM8WDrWha9X5aI3mjLGGHttOFBgjDHGWIn4HgXGGGOMlYgDBcYYY4yViAMFxhhjjJWIAwXGGGOMlYgDBcYYY4yViAMFxhhjjJWIAwXGGGOMlYgDhb+BNu4kNq/diQij9zX8f/kn1eX5aRF3cjPW7rqA1L+p+trUC9j14xacjPt39Vfm2VUY1Wckvr1U8F5zxhh7IWX8B5cycXHTl/jpfBq0xr0gtUSDoEnoVutF3iH5pMytvWDf6yz6H7iIhc2f/Nnmv9M/qS7PLxNbe9mj19n+OHBxIf6O6uceGw/vVivhvTYeWwOf/lrtf4zc85jZogWW2i7AkV+GoMbf9QuajLH/pLJ9RkFzGzsWTMfn36zDrr17sbdg2odzsXwk9m+QEzoB9ao1x4ww3l4GGlxdPgGLk9/D0lWDOEhgjL00vvRAgKzuh9h59jzOnxenc6GY7a8SM7B/Mnr0AHEJ95GU+W+8lPI6SFDh7VnYH7oUXSvzP2/G2Mvjb5JS0MSGYtGw9vB1c4SDqxf8AoPxy/Ucca5B9tVfENy7FbxdHeBY0wdtBy3Agdiir2Gmh2FYNaod6rs6wqVOGwxdEYaH4jzd9ffUiJ8Q3L8dGrq7oFo1F3g2747Jm6OQLeYoIvcMlg4Nwri1l1HkWFpzBz9PHYChS8+ICcV7el10tEg4vgwfdmkCDxehTdXrolWvKdh4KV2cL1BHYPXowVhw6Bb2z+yCus5O8BqwUZjxnG3Re95lsnF80UD0W3QUjzSJ+GNWXwT26oNxP0YLx9Qvsn6dNFxYOw6dG7jByak2WnzwOfbHFxOAaGIRumgY2vu6wdHBFV5+gQj+5TqK7hGP0yA2dBGGtfeFm6MDXL38EBj8Cwp3IzUiVo/G4AWHEX9pPcZ39EF1R1fUaTMUK8LELZNzCl8P7ofx6648ts1vYeun/TFkyWnhgxb3jq7DoqW7cbtg9yvFtmSMsZLo7lEos9SRNNNXQYpmX9B1tZj2uKS9NNrdjKy8e1PIup2086eFNNDHhpSuA2l7gkafRXNvAwU6KMjE+S0aPftLWjh9JAXULk++0y/q52dsCSQbmSXZVS5Pjv7DaMa8mTS0eWWSy51o8G+P9HlIc4sW+NuRR8AImrnke1q7eh6NaGFHMhMfCj6XZ8hjTH2N5jU3IXnNj+hwjpgmUF+eTY2UKmr2ebSYUlSp6iJI2T+e6pjLqfwbPWnS51/S/KkDqbm9gmS2AbQ8WuysjC0UaKOgWk0bkX2NAPo4ZBZNXvjH87dFp1TLZNCWQBtSuI2lIzk5dGbZSAp6241MpdbkFRBE/foPpE833yT1i6yfNBSzvgfZy5Xk2GY0zZ43nYb6O5CVjQ2ZSS2o24YMMV8S7R3tTmZW3tQ7ZB3t3PkTLRzoQzZKVxq4PUHM86SkvaPJ3cyKvHuH0LqdO+mnhQPJx0ZJrgO3k2E3EttWoxE1tHci/2EzaN7ModS8spzkToNJv2nUV2huExXJa0+g48bbPHImNVCoqGlIlPDJuI8M80u1LRljrAQcKAiBgtypHX00bRpNE6fgWevpnH5cUNOVkKZkYuFPi4wiCfWVudREZUatv74jfMqjM594k0LpQ9POZRsy6GTF0J37hm9q/eAsVVLNoE10WxynNHGrKcBKTvZD9lL+UtlZWcJwVUgdHUJNFEryW3i7SLqBhu5804bM5S40cn+WmKamSzMbkNJUqO/N4geAUtVFfZnmNlYJg80o2p+qz6KXFTaNfFQychq+j/Rr1AcKEpJYtaCQC0ZtFzxfWwyevcyTg2DWjiCyVVSnMYeMRk7Bc68/7yJN9xGCRvfxdDQ/Jsi7TRv71iClpDBQUF8JoaYmFuS/6LrQ2yJxADdr/bWY8BhhfkhTE7LwX2QUkAr71twmpDJrTV/f0dXI0DapsiYFbbot7FU6GopbHUBWcnsaslfXv2q6sbAlmcrdaGx+Bwg5L87wJYVpK/pSv80f66PSbkvGGCsBX3oQaBLDsXvTJmzKn7YcQFS6FtA+wKGD56Bx8oRDUjjCwsL0U3hqOTiUz0NUxGUhTwyOHI0GPAPwrrfRfQ0mVeFoZ3RbvswZHQd1gZN4c5m0Yh3UcZQgOSGh4DSyysREfy1I/TAGVy+dx/+xdx9wURztH8B/d8cV6aCiSBUVKbZXsYE1amxEYxdNxJ5o0NijUWPErtEYTWKJSTT2krzWV2PFgkREKQqCYhcQkN7hbue/d7fIoaCAmH8izzefk9zs7OzM7MI820OeKaEQMWSmpePlA+BiWA8Yhi6Gj3F4jx+y1UnKW/j9YChk7QdhoN0r7th4TV24p2dwKpiD00BvdDDR5lFTNBuKfk3FiA24iMjnx74lsBo8B5N0284rX1u0KjJPacpdVvJlBIQz1O3VHy0Lb27Qs0O/8X1g/7wrOTw7fw7XVXZwtUlCsLA9BAWnwszGHAWRoUK+4rhn53Huugp2rjZIChbmCQpGqpkNzAsiERpRIORUrxpPjP3QDtpVI0aNJk1gK0pGQoK6wyWwHzAIHvJ7OLL/L+2pDn6d/3EoFPJ2gzCghHVevnVJCCEvo0CBp/ef6TgRHonISO3nVsgWeFnwXcPFIy5RBWXkJni194CHh/DpOBkHkxUwMeVHFGU8EpI4iGvWQZ1yXWEug1TKL0KlPqOulRH8E8Z3sId5dRs4/6cV3DsvxAXNGFLyHazi2n0x7H1TxB3bhzOZfFUiDuBQWDV0HtIPluVas8XrooyJQbxKDEvbwgFLILGBTW0JuJREJD0//y2CvpFR8Xy88rZFrSLzlKa8ZakS4/FMJUItS0t+OC4Nh/i4RKiUkdjk1b5oe/DoiMkHk6EwMRXyFcfFxyFRpUTkJi+0fz6PBzpOPohkhQlM9UVCzhLIpJDyy1WptFuJ2Lo/hnTUx4Mj+3GZjxSUt/7AYX6ddxrSH1YlrPPyrUtCCHkZBQqvIpJDLuMDiZa+CMvOQ16ezic3HeGrOvA9KOP/lovAcrPxRhfeZ53B7IGfYXdmT2y4EousvHzkpfwMz1c+K8AcvYZ7wiLhGPadTMbN3w/hhmEXDO5b+41WrJhvtEzEITszE8XGEC4DGVl8UGRoCuNXPWKiIm2pUPtLUZGypHywxP/Izsp6RVgigly7QcA3LLv49pCXi/TwVUK+4kRyOR+K6aGlbxiyi82Th9z0cKzqUI5Gimuhz5D3YPj4CPZdzEDE74dxw4Bf531KXudvvC4JIVUeBQqvwu91uTiagUWHIDRdSHuRnj0c61aD6tZVBBbLk42MzLIf01XeuYDLj0VoO34hvFrUhkK9Zvi90Nft7Bl1HY6+Vik4vvM7/HowHKY9hsKzujCxgvQcXNDAgEO4/yUk6QQ/XJIfzodyMGveEs6vOHpSkbZUtP0Qi/nhuwAF+UXDe0XKklg1gIMxh7vB11D00EoVntyI1OkDCWxcHGHGohFS6gbxMomNCxzNGKJDQlH2uUojhoXnELxvEoNje7Zg16GbMO7Or/OawuQXvOm6JIQQChReSR9dvQejbtpBzPfZjMD4fE2qMjkK57ZvxtFo9dBjjB5e/F598n+xYOpWBCdkI/PhBfw4qgPeX3JNk78sxBZ1UEvGIcrfD3F8fMGlhmDTuKU4VXT6umT6HTB8QF2kH12OjeE10GtID5R8ALwcjHrAe6A1Mo7Ox6dr/XA/IxcZD/yw9pMvcTDTFWMn9oShkLUkFWlLRdsvtrBAdTzFlTPXkJwRg9sP04CKlGXQCf16WiDj+HLM3huBlMxYBGwcjT5zziBDyKKm39Ubg+um4eB8H2wOjIdmi1AmI+rcdmw+Gq3J8xL9rvAeXBdpB+fDZ3MgtJuREslR57B981FoNqPyMO+JIT2rI27v1/jhpjl6De0JM2HSS95wXRJCSBW/6+EO+6a9PjN4bx17UOKl8GqpLHDdYOZkImEisZTpG1ZjUrGISWt2ZEuDCm8biGVHZ3qwWlKRereWQSRmRo4D2HdXMzWTcw6PYrXkjdicKzpX5ivD2ZLWCmY8cBfT5kpnFxd2YBZSCatmXpvVMLFkbSd9wya5GbE2SyOKrrAvQUHwV6y5XMQk1uPY/wqv2C9F2erCNynZn63sW48ZiDRH4vkP32aLVmzCrqjnd2nwhbFRteSs0ZwrrPg9BxVpS1nmyWGHR9Vi8kZz2PPq54WwlR3NmURTTwlzmOTH16Vifal69Aeb2MyEiTVl8e2t3Z7N3PMN+9DYnA0/UHRvQGrgOjbYyYRfpphJ9Q1ZNamYiaQ1WcelQUKOEqQGsnWDnZiJRMTEUn1mWE3KL0fKanZcyrSbUQlt4ynDl7DWCmM2cFfhmtHKPPkZqy+XMHl9H3ay2Dp/uZwyrUtCCClFFX/XQ9lxmY8Qdi0CMVl6MLGqj0au9jB94ZBtdkworobFoMDcCS3dHGBS7nO/HDLuByHwVgoMnNzRysGoTId8uPit6O80DqHDTuDWD12gENLfnBKpd6/j+u1nKDCyRVO3Rqhd5sIr0paKtR/5CQgPCML9/Bpo7N4KdgbqxAqWpUrB7cAg3Msxg0trN9hqyioBl4lHYdcQEZMFPRMr1G/kCvsXN4iXcMh8FIZrETHI0jOBVf1GcLU3felC0LfjTdYlIaQqo0DhX4/D4w094TI5GiNPRmA9PXqaEEJIJaJrFP7tVPewb/cF5Np7YpA7BQmEEEIqFwUK/3piOA9aiPUbpsGD4gRCCCGVjE49EEIIIaRUdESBEEIIIaWiQIEQQgghpaJAgRBCCCGlokCBEEIIIaWiQIEQQgghpaJAgZQRh/ijC/Dx1B24Xcq7CZQRWzF5xNf4n+7bh94W1QPsm+WNOQcevv7FUYQQQiqsigcK2bixdwm+nDMbs2fPwZy5X8F35Y/YeeomEsv+4sc3l/w/zOneAf1WXhES/klUeHz+v7gYq4RebCAOXrqPAlUyrh36E1F5QhaNVBxdOQ9bbstgb/riZsUhKXA7li1Yg2MPKmlYl1iijuovfDt3HQKK1YMQQkhlqtqBAr9Xemj1Qqz4fgeOnDiO40cOYOvqWfDu3hR1nTzhezqOH+IqUx78ZjSDdTtfBOkEIlxeIu5GRiLySYqQ8g+iuo3ffceim1t3LA5nMJI9xq5BrdDhoxn49Yr2bZpq3NPf8fPBFLQZPhxOuu+4yH+E4197okVHb3y5ZA0ORVZWBCZHm4+HwvnBHvz8Z6aQRgghpLLRqQfG75w2/RyHr4UgJCwC9+ITcPvYIrynPIWF/fth8dVcIWNlYEh/FoeEp0nI1olAxJbe2PcwAbfW9RBS/kEkzphyKhpBq5vA/7dTiAvYid8Np+L0nWtY3kEmZOIQf+gA/HLd4OlpXbRRZVzAgs5u6L8xFV37t0Q1Ibmy6DXqjR4NEnH899OgUIEQQt4OChReog+Hnl9i3+9z0EJ5Fd/67kSszqCuivXD2k97ws3RFjYOjdDBawH+G61z7Dv/Hg4tGAwPZztY2zjCrZcPdtzi96JzL2PtmJFYeykdqsSTWDzCC8M+mobtUSpAGYotPqMx9/cHQiFKhG6ZhHGrLyD+5k5M92yBerYOaNL1E2wKShPyaHEJl7Hh8w/R1qUubGzroWmnYZi352bxgbO0OpWF6hGOLBgFr893IdfJGeb1G8PUbz4+Hv45fgsvLCMd5079hbz67mhnVXQ4gcuKR36TL/FnyEWs62NX5rckKkO3YNK41bgQfxM7p3uiRT1bODTpik82BaFY6/WaoH2bmkj2+xN/0ekHQgh5KyhQKIXiPxMwrlM1pJ8/hjOFo1Pyn5jatTcWXK6OQQt+wI9Lx8DxzjoM7f4ZDiWqowklgpcNhtfae3CZ+A02/rAAwxyfIfx2Dt/TMiiqKSCViACRHmQKBRQKfSjUO+X5d3B25w4c8H+iWQyfgDtnd2Dbxlno02Mugm0+xITx78Mk/Bf4DJyJ4xlCttSzmNXtfUze8Rj2fSdg+ufD0VJ1ASs/6oKhm24LF/m9ok5lITGGoawGen1/EacnNgBXayC2BezFqLoGkBsJm09+GAJDM1HNqQlcCg8y8MS1B2HZhinoULt879vOv3MWO7ZtxKw+PTA32AYfThiP903C8YvPQMx83ng1GZo2bQhR3HUE3qNLGgkh5K1Qv+uhylKGs0VuUib1WMmilULac3nsr1nOTE/anC0ILeC/K9mt5e5MYdiZrdXJrLy1jLWV67Mu6x8ypopl33eRMVnXH1icSshQTA475G3BpPUms/N5QpJa1n7mZSpljlMvFiaw/V6mTCxrwLz3PmDqpfOFs7gtvZmxnhUbfyKX/65kEcvaMLnUkfmcSdXk0MgJYl+1kDOJ3QR2Kof//to6lZWKPVj/PqvRYh4L1FaoSPIW1kuhxxynXeJ7rWRZewYxI4kVG3dcXfdXy9rvxUzFMtbAey97ICxLFbeF9TbWY1bjTzDdEnIOeTMLPQs28pC6sYQQQiobHVEolRhyuQwifr9cpd5Z5Z7h/LnrUNm5wiYpGEFBQZpPcKoZbMwLEBkawc9iBhdna3D+6zHthwuIecPD4RJ7T4z9sPCQvRg1mjSBrSgZCQlK9dWDOHMqGJzTQHh3MNHk0FA0w9B+TSGODcBF9YWDlVYnMex8/kRi0CK0fOEcgioxEckqEUzMzFC+YwevILGH59gPYScsS1yjCZrYipCckADdkyZifpkmSMOzJDr3QAghbwMFCqVSITY2EZy4BmrX4ruJi0dcogrKyE3wau8BDw/h03EyDiYrYGKqz8+jQEffnVj1gRjHp3ZCvbqt8dGyE3hYdHPAm5FJIQXHBy4coIxBTLwKYkvb54OplgQ2NrUh4VKQmKSOcN5yndSUSs3gLZFUWphQAhmkUn418FFbsTtR9PQ0G7GSrwMhhJDKR4FCafKCcPZSAsQNWqO1Bd9NIjnkMn5caumLsOw85OXpfHLTEb6qg2Y2sVkbTNkbhuhr+zCvUx6OzeuHPgv/QmWOyxpiOWQyEbjsTGQWOz3PISMjiw9wDGFqrB2433adRAaGMBAB2dnZ6ptI/lYsKws5TAp9A4WQQgghpDJRoFCiVPy1Yja2RBug/Vhv/Ee9xy6xgYujGVh0CELTtblKJ0H1pgMxb8dBzPdQ4ZbfBTwWBnOxmB9RCwqQ/6Yjqp4DXBoYgAv3xyXdJyFySfA7HwrOrDlaOuseaii9Tm9KXNMKtfU5JMbFFjst8HfIf/oUySILWNV54XwIIYSQSkGBglpyBE7+vh/79+3Gr+sX4pPuLdFtYRBqDP4Omz5zFM6766Or92DUTeMHWp/NCIzX7o8rk6NwbvtmHI3mR13lNWyY6Yt9wQmavfWsO34IfACY2teDhaYQMSwsqgNPr+DMtWRkxNzGw7RiB9LLwQg9vAfCOuMo5n+6Fn73M5Cb8QB+az/Blwcz4Tp2Inoa8tleW6dKIHeBa30xku5E4aluc7inCDpyAPv378fBoDgoWS4eBfzBfz+A4yGJwimEFOweXB0yyzE4Uu5HVihxO+ou8qQN4OosFdIIIYRUKuGixqpJ9ZD92N2E8Tv56v17JhJLmb65LWvc2Yt9ue0qe/bSXQKpLHDdYOZkItHmNazGpGIRk9bsyJYGFTBWEM6+723F5CIJk1WTMz3+p7HLCLYtqug2gbyQlayjOT+/+ulLEgc2yS+PsZzDbFQtOWs054qQK4cdHlWLyRvNYVd0biNQhi9hrRXGbOCuTG2CKpn5r+zL6hmINPXXtEFqwVpN2MWiCm8NKEOd3lwuO+tTl0nNhrC96UKSWtIv7AOduhV9RMzUaz/fSp7qCVvXWcYk1uOZ5mYOXs7hUayWvBGbU7zxbElrBTMeuIsJrVffCsE2dtdn0ha+7GZlNocQQshzIvU//B9vUg5c5iOEXYtATJYeTKzqo5GrPUyfH/nOQ+KtIFy/lwpJDWe4uTnA9IU99/yEcAQE3Ud+jcZwb2UHAyG9opSpd3H9+m08KzCCbVM3NKr94vn619fpTWX/+QmcPjiG7odu46ee6gs7y4Z7uBG9m81EyvSLuDCvGXQew/B6KbswsN5I3PUJxFXfZmV+oBMhhJCyo0CBVI48f8xo2hl72v0XkVt6Q33W4/VycXHaf9Dn8jCc9puPFuW6HpFD4o6BaPhJAmZfO49ZxV4wQQghpLLQNQqkcsjbYMLE9sg89KvwlMoyUD3A42r9sP7nWeUMEniqR9jz62nIPvDBSEcKEggh5G2hIwqk8qhS8CAqFcaOdWH+1s8D5CEh+h7yajWETeGjpAkhhFQ6ChQIIYQQUiraFSOEEEJIqShQIIQQQkipKFAghBBCSKkoUCCEEEJIqShQIG8Rh9SwI9i+/y/hOyGEkH8buuuhCskN349vd4cCLgMwYdh/YCqkq3EpAfj1uzMwHjwbg1yEexvzY3D5wAGciUqBzKoV+nj1grORdlLZ5MN/emN02twYBRkHhLSKyMaNvd9id0gGH3qIIJbIYFCjLlp064NurubCuzjevuT/zYHX8kh0WbUXs1qX6xmShBDyr0VHFKoMFe4dXIUFS5ZgrvcAzDqWIqRrcbGnsWHpYmwPzNEm5N/Eug+ao9NnG3Dm6gVsn/shWnWYhXNp2sl/K9UDHFq9ECu+34Ejx4/j2MHd+H7+OPRq5owui/zx91SJQ17iXURGRuJJivBAqTw/zGhmjXa+QX/7WzMJIeTvQoFCVaI+eCStj4Z2T/Db/DW4mieklyD39FqsPCfDR9v+gt//ziLw8BTYhm/AmgMJQo6/GV91SdPPcfhaCEJv3kbMo4tY0CYXF5fOxk+3K+l92a8khqX3PjxMuIV1PYTHSLJ0PItLwNOkbOFNmIQQ8u6hQKGqETtjzAxPGIV9j3lb7qHkIZZD/O1oJIoboW077QkK/aZuaKyfh4f3Hmm+lygjDL9N64OWjnawc2qPj1ecQXwJI6gq1g9rP+0JN0db2Dg0QgevBfhv9CuilhKIzVph/NCW0MuPxq3bBUIqTxULv7WfoqebI2xtHNCogxcW/Dcaz0tXhmLLpHFYff4pwrZNRo+mdWHboBUGLjqFOI5D8l8/YGxnF9jbOcFj2HKc02mAMnQLfEbPxe8PVMi9vBZjRq7FpXQVEk8uxgivYfho2nZEFXYol4DLGz7Hh21dUNfGFvWadsKweXtwM1OYTggh/xIUKFQ5DDUGf40pLfNxZvnCUt7LIIaRsRH0uCQkxGtHPi49GSl5IpjXrKn5/hIuFrvG9sKYH0Jh2uMTTBrmipgfhmLM1ifF97aT/8TUrr2x4HJ1DFrwA35cOgaOd9ZhaPfPyv6OCI1c3L3Lly2pAxvbwudFJ+PPqV3Re8FlVB+0AD/8uBRjHO9g3dDu+OxQojZL/h2c3bENG7/oA89Ft9Fw6AR81DgNxxcOx5ipE/D+gB+Q1NIbnw60R8yBeRg6eS8ShGrl3zmLnTsOwP+JCmKZAtUUUkhEgEhPBoVCAYW+Qnj7ZSrOzuqG9yfvwGP7vpgw/XMMb6nChZUfocvQTfhbDoAQQkhlUV/MSKoCJQtf5Makck/2Sypj6ac/Yw2kMtZolj/L4qcW3PRlLaRy9sGv6ZrcqgebWW8zKbPsPIWt/ekHNveDukxevTfbfF+pmf6ighsL+fmlzHn6JU15mrQHe9iI+jImMhwgpCjZreXuTGHYma2NLipHeWsZayvXZ13WPxRSXqAMZ4vcpEyv4Ufs222/sW2//MAWfdKJWcv0mfMnB1mcSsh2azlzVxiyzmuj+SUJlLfYsrZypt9lvfZ71n7mZSpmsgaj2P5HQq6sU2yCvYSJ9Juyz0/EM21xyWzv0BpMYj6c/SE0KGu/FzOVOrKpF/O0CTmHmLeFlNWbfJ4JKRrKiGWsjVzKHH3OML6rBTks6KsWTC6xYxNO5QhphBDyz0dHFKooo85z8VUfM9zaOA+bnx8vLyK2G4NfDq/Bh4ZXsW3dT/BDL3x7dBvG2Jd8j0Hy5QCEs7ro1b8l9IU0Pbt+GN/HvuiuBO4Zzp+7DpWdK2ySghEUFKT5BKeawca8AJGhEULGkqnu7MUX48Zg9JjPMP+n66g15Qgu/dgXtTVbMYdn58/husoOrjZJCBbKDgpOhZmNOQoiQzVlaElg7zkafWyEmimaoImjBHrOAzCui4VwmM0Yri72EGc9Q6JwfWfZcHh65hSCOScM9O4AEyGVXwiaDe2HpuJYBFyMFNIIIeSfjwKFqkpsiaG+09CWu4hvlhxCEgNEwqRC5m6jsWr3n7gYcAl/7l4B72al3RupQmL8M6hEtWBp+YqbFbl4xCWqoIzcBK/2HvDwED4dJ+NgsgImpoUhRsn02i5BRHY+Mh+eweIu1RDywxf4LihXmMohPi4RKmUkNnm1LyrboyMmH0yGwkT3ZtAXiKXQU59DeIFEj28LY+BU5TklokRMTDxUfP/a2hV/habExga1JRxSEpOEFEII+eejQKEK03P5DEvG1UfCXl+sDVMWCxS4mB/R3dQQhoY6H2N3LL5R8o2AUpmU/zcbWVmveCyHSA65jF9uS1+EZechL0/nk5uO8FUdhIyvprB5D3N+XYyesmCsX7oHcZpxXAS5tnD4hmUXLzsvF+nhqzTzvn1ivo0yiLhsZGYWP1LDZWQgixPD0NRYSCGEkH8+ChSqNAO0++JrDKgejo0rjiBZZ4wXW43GrohIzXMDnn9uHcFU1+J7yVoSWDVwgDF3F8HXUoouXlQ9wY3IpKLvEhu4OJqBRYcgNF1IqyCxlRc+G2SF9D83YZvm1IkENi6OMGPRCHnTwstMDDEfXRUU5Kvv3hTowcGlAQy4cPhf0mk7/39JfucRypmheUtnIY0QQv75KFCo4sS1BuLrWe3B3QjG3WIHC/RRy8ERDRs2fP5xrGcJo1K2GINO/dDTIgPHl8/G3ogUZMYGYOPoPphzJkPIoaaPrt6DUTftIOb7bEZgfL4mVZkchXPbN+NodHluBzDAe2OHw1kVhF+3BGhS9Lt6Y3DdNByc74PNgfHQlK5MRtS57dh8NFqTp1KJLWBRHXh65QyuJWcg5vZDpPGRgVEPbwy0zsDR+Z9ird99ZORm4IHfWnzy5UFkuo7FxJ6GQgGEEPLPR4FCFSJTVINUfRtfscsIJGg4YQ3md6kFqbQ6LGqoTyFUgHk/LP3hEzjHbcVwV3MYWXfEwvu9sHFJLxjKhAcU8QzeW4ydq/tCfGwi2tQxhIGRPvRrOqP79F24kVbaaQsZFNX0IJMroKdzfkTWfDTGttfH/UP7tQkG72HxztXoKz6GiW3qwNDACPr6NeHcfTp23RCe3yiWQyEX832h+whmMeT8dz2FvFj5Ujn/XSaHXKL9NRHzy5eL+boUziprBq+R7jAMXQGP6saw67kaIepgy6QHVu5ail56JzGjswOMqxmj7nuz4W8xFr/s+wptirqDEEL+8ehdD6RSqVJuIzDoHnLMXNDazZbf7y8Zl/kIYdciEJOlBxOr+mjkag/Tks5qVASXiUdh1xARkwU9EyvUb+QK+0or/EX5SAgPQND9fNRo7I5WdjotVqbi7vXruP2sAEa2TeHWqDYoRiCE/NtQoEAIIYSQUtGpB0IIIYSUigIFQgghhJSKAgVCCCGElIoCBUIIIYSUigIFQgghhJSKAgVCCCGElIoCBUIIIYSUigIF8v+KSw3Dke378Zf2zU6EEEL+YeiBS1VI9o29+HZ3CDI4BpFIAmk1E9Su9x90eL8zGtV84cmFueHY/+1uhMIFAyYMw39039LMpSDg1+9wxngwZg9ygXrO1Cu/Yt1JCXpNGQG30t5GXYJ8/+lo3GkzGv8WjwNer37N9JtJxv/meGF5ZBes2jsLrXWf4PyP9G+rLyHkXUVHFKoMFR4cWo2FK77HjiMncPz4ERzYuhqzvLujaV0nePqeFl7XrKW6dxCrFizBkrneGDDrGFKEdA0uFqc3LMXi7YHI0SSoEHvqRyxetBnnEsrzYqe3I89vBppZt4NvkM5brrg8JN5VvwXzCVIq/eBFHvxmNIN1O1/oLvKNvNX6EkJI2VGgUKUwQNIUnx++hpCQMETci0fC7WNY9J4Spxb2R7/FV5Er5FTnZZCifkM7PPltPtZczRPS//lY+jPEJTxFUrbOCCu2hPe+h0i4tQ49Kv2FCwzpz+KQ8DQJuot8I2+1voQQUnYUKFRx+g498eW+3zGnhRJXv/XFzljdkU4M5zEz4GkUhu/nbcG9Nz5YkIGw36ahT0tH2Nk5of3HK3Am/uWRVRXrh7Wf9oSboy1sHBqhg9cC/DdaN1DJx71DCzDYwxl21jZwdOsFnx23oOTDnMtrx2Dk2ktIVyXi5OIR8Br2EaZtj4KKnxq6xQej5/6OB0I7lKFbMGncalyIv4md0z3Rop4tHJp0xSebgiC8a5LHITV0NxaM6oFWznVhbV0Xru0GYs6+SG1QlXsZa8eMxNpL6VAlnsTiEV4Y9tE0bI/iF8KlInT3Aozq0QrOda1hXdcV7QbOwb7IonCMrwS2TBqH1efv48yiD9HU3g6NRu9RT3ipvuq6JFzegM8/bAuXujawrdcUnYbNw56bmcJ0QgipfBQoEEDxH0wY1wnV0s/j2JmiIVKN1RiMr6e0RP6Z5Vh4KJEfqiqKQ+yuseg15geEmvbAJ5OGwTXmBwwdsxVPdAtN/hNTu/bGgsvVMWjBD/hx6Rg43lmHod0/w6FEbUZl8DIM9lqLey4T8c3GH7BgmCOehd9GDr85q1+lrZBKIOL/05MpoFAooK95L3Q+7pzdiR0H/PFEGHjz75zFjm0bMatPD8wNtsGHE8bjfZNw/OIzEDOPZ2gzcY/wy9SpOJBYD30mLcCyhZ+hk/gSVnl/hOXBSv43SP0KbAWkEhEg0uOXr16mvuZV1NyjXzB16gEk1uuDSQuWYeFnnSC+tAreHy2HelaN/Ds4u2MbfvrSC96/KdGdr0OfxtXVE16qb+rZWej2/mTseGyPvhOm4/PhLaG6sBIfdRmKTbefRxOEEFK51BczkqpAycIXuTGp1IOtjFYKaUXy/prFnPWkrPmCUFbAf1eGL2JuUjnz/CWVsfTT7LMGUiZrNIv5Z/ETC24y3xZSJv/gV5aumfvVZWsU3GAL+XmkztPZJXUZmrQHbM+I+kwmMmQDdqkTlezWcnemMOzM1uqUo7y1jLWV67Mu6x/y31Qs9vsuTCbryn6IU2kzvCDnkDezkNZjk8/nCSlqWWy/lymTOk5lF4XkrP1ezFQsYw2897IH6kbzVHFbWG9jPWY1/gTL1Sax3JwcfqlFlFHLWVupjHVY80BIz2GHvC2YtN5kVmyRfAk5OcXmZFHL2zKprANb80BIz9rPvExFTGTcni0PK1yi2gv1VUawZW3k/HcfdoZfJYVygr5iLeQSZjfhFF8LQgipfHREgWiI5XLI+J1ilaqEPVOjzpj7VR+Y3dqIeZvVh/ErIPkyAsIZ6vbqj5aFNzfo2aHf+D6wlwjfuWc4f+46VHausEkKRlBQkOYTnGoGG/MCRIZG8JnEMHNxhjXnj/XTfsCFmDe8dkJiD8+xH8JOuOlDXKMJmtiKkJyQgMKdfrlCoTn0pkyLwe2bIQh5poRCxJCZlv6aIyxyKBSaOZEWcxs3Q0LwTKmAiGUiLV13TgmsBs/BpMZy4fvLuKdncCqYg9NAb3QwERJ5imZD0a+pGLEBFxFZWRdSEkKIDgoUiIYqNhaJnBg1atcqYaMQw3KoL6a15XDxmyU4lMQAPqgoD1ViPJ6pRKhlackPi6Xg4hGXqIIychO82nvAw0P4dJyMg8kKmJhqIwxFR1/sXPUBxMenolO9umj90TKceJivmfbmZJBK+arwAVPhUJ4R/BPGd7CHeXUbOP+nFdw7L8SFAvWU191ZnIHgn8ajg705qts44z+t3NF54QW8PKsI+kZGmttMS6OMiUG8il8PtnbF80lsYFNbAi4lEUl09oEQ8hZQoEB4eQg6ewkJ4gZo3dqi5I1CzwWfLRmH+gl74bs2DMpyBgqQ8gMw/yM7K6v04VUkh1zGL6qlL8Ky85CXp/PJTUf4qg7afGIztJmyF2HR17BvXifkHZuHfn0W4q/KihV0ZZ3B7IGfYXdmT2y4EousvHzkpfwMzzI81yDrzGwM/Gw3MntuwJXYLOTl5yHlZ08+FCk/Md8xMhGH7MzM4kd0uAxkZHEQG5rCuNQIjBBCKo4CBYLUv1Zg9pZoGLQfC+//lL5fa9DuC3w9oDrCN67AkeTX7U0XJ7FqAAdjDneDr+k8F0CFJzcikVT4nd87dnE0A4sOQWi6kPYKkupNMXDeDhyc7wHVLT9ceCwMoWIxv49egIL88tWxJMo7F3D5sQhtxy+EV4va0JxJUClfOv0iFvORU0EBihapxJ0Ll/FY1BbjF3qhRW3t6QuVsmK7/XoOLmhgwCHc/1JRf/G4JD+cD+Vg1rwlnF91SIIQQiqIAoUqJxkRJ3/H/v37sPvX9Vj4SXe07LYQQTUG47tNn8HxVXul4loY+PUstOduIPhuOU+IG3RCv54WyDi+HLP3RiAlMxYBG0ejz5wzEO4v4Omjq/dg1E07iPk+mxEYrz1EoEyOwrntm3E0Wj3IKnFtw0z47gtGgnpy1h34BT4ATO1Rz0JbebGFBarjKa6cuYbkjBjcfphW4bs1xBZ1UEvGIcrfD3F8k7nUEGwatxSnNOcPColhYVEdeHoFZ64lIyPmNvhFwqJOLci4KPj7xfG15pAasgnjlp7SnnooL6Me8B5ojYyj8/HpWj/cz8hFxgM/rP3kSxzMdMXYiT1hKGQlhJDKRIFClSGCYfXq0FdFYuvEIRg8xAvePl/jl4ACtJz8Ky5e2QHv+jq7pDIFqknVt/oVjxwkDSdgzfwuqCWVorpFDc3pBDVZtWqQyuRQ6JV2TsIc/Zb+gE+c47B1uCvMjazRceF99Nq4BL0MZVDItJuiwXuLsXN1X4iPTUSbOoYwMNKHfk1ndJ++CzfStLvr1bhb2DyiBerw0xSmzhh73Ahe3yxAX+HR0bJmXhjpbojQFR6obmyHnqtD+IFaDLlCDjHfrsJD/2K5AnL17Y265wJEUshlEsjlfF7+q7jOMMyb5Y7cvcPQoJYlatn3wjaLTzG+OV+OXCpcqiFDM6+RcDcMxQqP6jC264nVIRzqDJuHWe652DusAWpZ1oJ9r22w+HQ8mvMLlEuFfhLzfSZX39b54gmJF+trgh4rd2FpLz2cnNEZDsbVYFz3Pcz2t8DYX/bhqzb0VCZCyNtB73ogfy9VCm4HBuFejhlcWrvB1kBIfwGX+Qhh1yIQk6UHE6v6aORqD1OdOCYv8RaCrt9DqqQGnN3c4GD6wqGQ/ASEBwThfn4NNHZvBbtSllM2HDLuByHwVgoMnNzRysGoxAg7PyEcAUH3kV+jMdxb2UGzSC4D94MCcSvFAE58PRyM3jQ2VyL17nVcv/0MBUa2aOrWCLUpRiCEvEUUKBBCCCGkVHTqgRBCCCGlokCBEEIIIaWiQIEQQgghpaJAgRBCCCGlokCBEEIIIaWiQIEQQgghpaJAgRBCCCGlokCB/L/h4gKwd+shhBa9/OH/B5eKsMNbsds/VkgghBBSiAKFKiT35l4smj0bi367qvNiJi0uJQBbFizCvohyvsPhDeT6r8en42dhW/jft8wSKcOxbeY4jP/2vJDw9nDJRzGrizs+WB4gpPyz/dvqSwipfBQoVBkq3Du0GotWrMCCMYMw838pQroWF3saG5ctwY7AHCGFvJE8P8xoYgUP3yAUC4PykvAgOhp348rwesxyyvObgSZWHvANqsTA6y3WlxDy70CBQlWiflq3tD4a2sVix7xvcCVPSCeVj6XjWXwi4pOyi725UmzpjX0PExDxXXchpfKw9GeIT4xHUnblncp5m/UlhPw7UKBQ1YidMWamJ4xv/oh5P92F+sXNpVI9xcX1n8GzZUPY1LGCnWs7DJ6zCzeK3gsNZehP8Bm7GuefhmHb5PfRyNYa9VoOxKJTceC4ZPz1/Rh0bGgN6watMXjpWTwtYQxj6dfx8+SeaGZvBZuG7TB82WnEPa+YEqE/+WDsaj/c+3MBPF35slxHY7emICVizn6Dsd2awcGqDmyd3DFo7gFE5WrnLE1ayK+Y3Ks5HKyt0aCtF5acfFpCP5Sh7Lxo/DG3P1o7WsPS2hFuvXyw/ZYSuZfXYszItbiUrkLiycUY4TUMH03bjijNW7JDscVnFOYeeKAt43n7ziP+5g5M69UM9la2cOk8Fhuupgl51KeGgrFrwSj0aOUE2zqWfD+1Qf8v9iJSU59cXF47BiPXXkK6KhEnF4+A17CPMG17lKZdr55X7RV9/FJ9eWXYLggh7w4KFKochuqDfDGtVQHOLV+IQ4ml7X2m4PSMbugxbQ/i6vfHpFnT4N1WhMurR6Dr0I24LYys+XfOYedvG/FFH08suu2M4T4j0DT9OBYOG40pE97HgB+T0Xq0D4bUi8fBr7zw+d6EYnvY4OKwd1xvLLhuhb4+kzCoXix+nzcAQ9bc5IcvtXzcObcTv/30JbzG7AJ6T8KEvk1QU8Yh+cRUdPNcjCBLLyzauAkrP3HB/R+Ho6fPIZTWLC52F8Z7jsem8OrwnDgFHzeNx6ZhY7D1se4MZSlbieBlQ/HR94/QZNK3+OnHBRjm+AwRt3M0r4auppBCIgJEejIoFAoo9IXXReffwdmdO3Hg8hP1N3WCtn0bv0CfHvMQYjcAPhN6oXrkNkweNBP/0wy+HB5tnY4ZB1PQsP80LF29HNO7KxCwZiQfVAXzNVG/proaFFIJRPx/evzy1cvU17y6+nXzqpXWx+pJL9a3bNsFIeQdon57JKkKlCx8kRuTyj3ZL6mMZZydxBylMtZolj/L4qcW3PRlLaRy9sGv6drc4UtYa7mUOfqcYXx2QQ4L+qoFk0vs2IRTOZqUrP1ezFQsZ46jD7BHSk0Syzo1gdlLRMyg2VR2Ml6lTUzey4bWkDDz4X9olqemnVeP2Qz4hd3JExJzr7A5jaVMr95k5qdJy2L7vUyZSGTM2i8PY7maTDxlBFvWRsEMO69l0cJy1W28tawtk+t3YesfCsstpoDdWNiCSaXObPqlwloUsAd7RrD6MhEzHLBLm1SWslWx7PsuMibr+gOLK2lROYeYt4WU1Zt8nhU2TSNrP/My5ft16sXCBE37xHJHNmrfA742aioWt6U3M9azYuNPCC3OzWG5ustR3mEr3KVM1mENuy+k5xzyZhbSemzy+WJLLMO8pfSx2gv1Let2QQh5d9ARhSrKsOMcfPWhGW5tnIfNmmPiujg8PXMaIZwTBnp3gImQCijQbGg/NBXHIuBipJDGk9ih96gPYCPRflU0aQJHiR6c+o9BZwthEzN2hYu9GFnPElHsckmJAwZOGY76mt1tnrwZenWtCzwOwbXYor18idUQzJnUGHLhO/fsPM6FqGDnaoOk4CAEBak/wUg1s4F5QSRCIwqEnLqScTkgHKxuL/RvqS+k6cGu33j0sRcqzytT2WIzuDhbg/Nfj2nf++HRa053vI7ErjdG97Xja6MmRg2+D21FyUhIEC5MlCsgV3dlfgoeRd1ASEgCCuQisMw0ZJRy9OS5Ms77Yh+/rJzbBSHknUCBQlUltsTQhdPhzl3AN4sPIokBImGS+rB6TGwCVHweWzvt0FVIYmOD2hIOKYlJQsrLxFI9zWH34iTQ48dixjioXjmwSWBZuwZELA2pqUUZRfqGMNKpChf/FM9USkRu8kJ7Dw94CJ+Okw8iWWECU/2XKgCoEhH/TAVRLUtYFsUFLylb2Qp09N2JVR+IcXzae3B0aI2Plp3Aw3xtGW9MJoWUH5hVhZ2VdhUbxrjDxrwG7F2ao5V7Zyy8oA2G+FX3amWc98U+ftmbbReEkH8nChSqMInzRCwe1wAJ+xZhbZhSJ1AQQy6TQcRlIzOz+NEGLiMDWZwYhqbGQkplY8jKUh9z0IeBYQmDvUAkl0PG73+39A1Ddl4e8nQ+uenhWNWh8BCFLql6/AWys5D1itG1rGWLzdpgyt4wRF8/gK+7FODYvA/R5+u/UFmxQpEsnP5yCD7flwvPTYGIzcpDfl4KfvYsqY0vepN5X/T/uV0QQv6/UKBQpRmg3RcLMbBGODauOILk54OnHhxcGsCAC4f/pSR+v7YQhyS/8wjlzNC8pbOQ9oa4ZERHxhXddcAlICDwDriaLmhsXfpuv8TGBY5mDNEhoSjzHf4SKzRwMAYXHYxrOk+cUj25gcikou/lK1uC6k36Y/a2PzDfg8Ot8xfwWNMYMcR8nFNQkP/6Pf7XUd7BxctPIGo7Hgu9WqC2Qv1rq4LyxTNGYjEf7BWgIF9niWWdt0z+xu2CEPKPQYFCFSeuNQALZrYHdyMYd3We02PUwxsDrTNwdP6nWOt3H2m5abh3ZjXGzTmITNexmNjTUMj5hlgKjk/3xNif/kJcRgKu/TQFy8/kod7Aj9BJIeQpiX5XeA+ui7SD8+GzORDxmt14JZKjzmH75qOILnEgNECnfj1hkXkcy2fvRURKJmIDNmJ0nzk4o3trX1nKVl7Dhpm+2BecoDmCkHXHD4EPAFP7erBQxzdiC1hUB55eOYNryRl4HHkfOmdSyocvq04tGbgof/jF8SuJS0XIpnFYeqr4dRhiCwtUx1NcOXMNyRmPEXk/FVwZ5y2rv227IIT8Y1CgUIWob6GTqm/VK7ajLkHDCWswv0stSKXVYVFDfWyeZ9IDK3ctRS+9k5jR2QGm1UxRr9tcBNQai1/2fYU2wiAu1lwoJ4PmTrxCYjn/XQ8KuZ7O6Qwp5Px3mVwOibDViWVyyA17Yv7ylgia4QEr41pwm3AQBR0XYMvXnaC93FAMuUKuueWw+MFyA7y3eCdW9xXj2MQ2qGNoACN9fdR07o7pu24grZTdePN+S/HDJ86I2zocruZGsO64EPd7bcSSXoZ8/xQuoSxlVwN3azNGtKjDT1PA1Hksjht54ZsFfWGknixrBq+R7jAMXQGP6sao2/tbhKoDMXXfyNW3MxYuq+T2iaRyyCR8/6ivQhTXwbB5s+CeuxfDGtSCZS179NpmgU/HN+f7WQ6p0MmyZl4Y6W6I0BUeqG5cF72/DYWyTPOW1se8F+tbxu2CEPLuEKlvfRD+n5CXKVNx9/p13H5WACPbpnBrVBtvYyxQJt1CwNUHUNZugtbNrIQgoSw4ZD4Kw7WIGGTpmcCqfiO42psKdw+URoWU24EIupcDM5fWcLM1ENJf9Lqy85B4KwjX76VCUsMZbm78wFksCMtHQngAgu7no0Zjd7SyK205ZcNl3EdQ4C2kGDjBvZUDjEoK8/MTEB4QhPv5NdDYvRUKF1mmecvjb9ouCCH//yhQIIQQQkip6NQDIYQQQkpFgQIhhBBCSkWBAiGEEEJKRYECIYQQQkpFgQIhhBBCSkWBAiGEEEJKRYECIYQQQkpFgQIhhBBCSkWBAvn34xJwetkoDJt7EHEVfZ/C63CpCDu8Fbv9Y4UEQgipGihQqEKyQ3di4ayZmDFjBmbO/AJfLliKddv+h1DtW490cEg+Ogtd3D/A8oDKf2lyeXHJRzGrizs+WB4gpBSXemoBJiy6DCN3D9R6W1u0MhzbZo7D+G/PCwlvyz+r71/v31ZfQkh5UaBQZajw4Mh3WLJ6E/ad9MO5c6dwdPcPmDfOE/9xcEbvhaeL7Y3nJT1AdPRdxKW/rV30cshLwoPoaNyNK+Glz9kBWPHFPphO/xWre9f8V23QeX4z0MTKA75BOq/t5L3Nvi9tmW/iH7WtEEIqHQUKVQoDJE0w6b9XEBR0HWG3Y5Bw5ySWvQ+c8e2PfouvIleTTwxL7314mBCB77r//7/qR2zpjX0PExDxXXchRYeePYZt9seJr93xb3vBMUt/hvjEeCRl6w6wb7fvS17mm/hnbSuEkMpHgUIVp7Drii/2/I65bipc/dYXO2O1A4gydAt8Rs3FgQcqzXc+AT/5jMVqv3v4c4EnXK2t4Tp6t3YalIg5+w3GdmsGB6s6sHVyx6C5BxCljToE2Yg8MA9D2jnDto416jfvjrGrTiNGKP6V0/llb/EZhbkHHmizqqme4uL6z+Dp0Qm9PuyC5k3aYfCcXbiRIUznKUN/gs/Y1TgffxM7pvVCM3sr2Lp0xtgNV5Em5ClNWsivmNyrORz4djZo64UlJ5/ieVWfe32786L/wNz+reFobQlrRzf08tmOW8pcXF47BiPXXkK6KhEnF4+A17CPMG17lGYZpfb9+Xjc3DENvZrZw8rWBZ3HbsBVnYZwKcHYtWAUerRy4vvQEjYN26D/F3sRqanPq5bJISV4FxaM6oFWTraoY2mDhm3644u9kULgqKZE6E8+GLvaD/f+XABPV2tYu47G7qfcy/XlqZ5exPrPPNGyoQ3qWNnBtd1gzNl1AzqrhxDyL0GBAgHkTTB+bEdUSz+PY2e0I0/+nbPYufMALj8R/vjn38G5nb/hpy+9MGYX0HvSBPRtUpOfwCH5xFR081yMIEsvLNq4CSs/ccH9H4ejp88hJGriDg4xu8fi/WGrEajfDZ/Omg5vDxn8l8/Bz7fUh8BfM51f9tmdO3Hg8hN1YbwUnJ7RDT2m7UFc/f6YNGsavNuKcHn1CHQduhG3n1f5HHb+thFf9OmBeSF2GOAzAb2qR2Lb5EGY+b/ShywudhfGe47HpvDq8Jw4BR83jcemYWOw9bHuXngZ2q0MxrKhH+H7R00w6duf8OOCYXB8FoHbOWLIFNWgkEog4v/TkymgUCigr5BpSi6t7zd+0Qc95oXAboAPJvSqjshtkzFo5v+EwZfDo63TMeNgChr2n4alq5djOr+HH7BmJIYvC+aH+Vcsk3uErdNn4GBKQ/SfthSrl09Hd0UA1owcjmXBhaco8nHn3E789tOX8NJuAJjQtwlq8rO/VN+U05jRrQem7YlD/f6TMGuaN9qKLmP1iK4YuvF2CQEXIeQfTf2aaVIVKFn4IjcmlXqwldFKIa1I3l+zmLOelDVfEMoK+O9Z+72YqdSRTb2Yp82QtZ95mYqYyLg9Wx6Wq01TU0awZW0UzLDzWlZUrJLdWtaWyfW7sPUPVYwVXGVfNpYyWYuv2HWdWXNiH7F49cJeN12zbClznHpRk64MX8Jay/nvPmdYqiZFLYcFfdWCySV2bMKpHE2Kpg1iOXMctY89UJfDU8VtYb2N9ZjV+BNMZ1E6CtiNhS34fnJm0y9lPU97sGcEqy8TMcMBu7RJZWi3KvZ71kUmY11/iGN8L7wk55A3s5DWY5PPC30sKLnvxUzuOIrtK2oI29LbmOlZjWcnChuSm8NydRekvMNWuPP92mENuy+kl7bM3JzcYnVU3lnB3KUy1mHNfSE9i+33MmUikTFrvzysWN8Vry+/nS1pzeT8d58zRWuH5QSxr1rImcRuAhNWDyHkX4KOKBANsVwOmQhQqV61vyeB1ZA5mNRYLnznd0afnce5EBXsXG2QFByEoCD1JxipZjYwL4hEaEQBuJiLuBQFuPbuD51ZobC0gYUeX8ZrphfH4emZ0wjhnDDQuwNMhFQ+N5oN7Yem4lgEXIwU0ngSO/Qe3Rd2QjniGk3QxFaE5IQEfi+7JMm4HBAOVrcX+rfUF9L0YNdvPPrYS4TvZWu32MwFztYc/NdPw/d+j3QO41eEBHa9R6NvUUPQpIktRMkJSChsiFwBufo3Oj8Fj6JuICQkAQVyEVhmGjJec0mCXCHXHF7MT3mEqBshCEkogFzEkJmWwfd4EYnVEMyZ1Bg6q6k47inOnA4B5zQQ3h2K1g4UzTC0X1OIYwNwMbLknieE/DNRoEA0VLGxSOTEqFG71is2ChH0DY34YbMIF/8Uz1RKRG7yQnsPD3gIn46TDyJZYQJTfRGU8QlI4suuWadOsXkLvW56cUrExCZAJbaEbeGgKZDY2KC2hENKYpKQUhIZpFK+3nxAVOLYqUpE/DMVRLUsYVkUF7ykLO2GoiN8d67CB+LjmPaeIxxaf4RlJx6ism4ilGkbAlVhQ9KuYsMYd9iY14C9S3O0cu+MhRcKNJOY5t/SpV3dgDHufJBTwx4uzVvBvfNCaGctPqdI3xBGr1pJyhjEJqggtrR9HpxpSWBjUxsSLgWJSXTygZB/EwoUCC8PQWcvIUHcAK1bW5RroxCpj0Tww3tL3zBk5+UhT+eTmx6OVR1kEMv4wZnfO83NzipxcH7d9OLEkPP5RVw2MjOLDzhcRgay+IDD0NRYSKkIKT8A8z/4umS9YnQtS7vVdTVrMwV7w6Jx/cDX6FJwDPM+7IOv/3obzxvIwukvh+Dzfbnw3BSI2Kw85Oel4GdP7XUPr5R1Gl8O+Rz7cj2xKTAWWXn5yEv5GWWZ9SVivl9kInDZmSi+ejhkZPDrV2wIU+NXRGCEkH8cChQIUv9agdlbomHQfiy8//P6fXpdEhsXOJoxRIeEooSnHGjo2TuibjUVbl29WjxPdgYylK+fXpweHFwawIALh/+lJJ3AgkOS33mEcmZo3tJZSKsAiRUaOBiDiw7GtZSi0lVPbiAyqeh7Wdr9nKQ6mvSfjW1/zIcHdwvnLzzWXtAnFkOEAhTkv25/vwyUd3Dx8hOI2o7HQq8WqK1Q/2qroHxx572EZSrvXMTlJyK0Hb8QXi1qQzursmIXHeo5wKWBAbhwf1zS6S9wSfA7HwrOrDlaOpdvGyOE/P+iQKHKSUbEyd+xf/8+7P51PRZ+0h0tuy1EUI3B+G7TZ3As786efld4D66LtIPz4bM5ENqHPCqRHHUO2zcfRbR6tDHuAS9PCyT/dwGmbg1GAr+3+fDCjxjV4X0svcbP8LrpLzDq4Y2B1hk4Ov9TrPW7j7TcNNw7sxrj5hxEputYTOz5Jk9UMECnfj1hkXkcy2fvRURKJmIDNmJ0nzk4o3ujRBnarby2ATN99yE4QT0xC3f8AvEAprCvZwF1N4stLFAdT3HlzDUkZzxG5P3UMhxRKYXYAnVqycBF+cMvjo+uuFSEbBqHpae0px4KlbRMWNRBLRmHKH8/aGcNwaZxS/HCrGVkhB7eA2GdcRTzP10Lv/tpyE27hzOrx2HOwUy4jp2IN1o9hJC/n3BRI3nnqdjDH7szE7FIvSvJIBIzqb45s23cmXl9uY1dfVb8uvycw6NYLXkjNueKcHV8zmE2qpacNZpzhRW/Xp6XGsjWDXZiJhIRE0v1mWE1KROLpKxmx6UsqPAi/dijbKZHLSYVaU56M5HYiDkO+I5dzSzDdJ1la6lYsv9K1reeARNpT6Lz7ZEyi1YT2K6oouvxX2qDmjKcLWmtYMYDdzFh0S9TPWJ/TGz2vK9E0tqs/cw97JsPjZn58ANCJt5r2l0Q/j3rbSVnIomMVZPr8T+NmcuIbSxK6BOWF8JWdjRnEk2bJcxhkp+mb8vW99q7CxTGA9kuoSHpFxeyDhZSJqlmzmrXMGGWbSexbya5MaM2S1lE4Z0ZJS4znV1c2IFZSCWsmnltVsPEkrWd9A2b5GbE2iyN4JeklsMOj6rF5I3mMN3uVHupvqpk5r+yL6tnIGxrmj60YK0m7GI6q4cQ8i8hUv/D/yIT8oY4ZD4Kw7WIGGTpmcCqfiO42pu+cHFiNmJCryIspgDmTi3h5mCi2bMu8rrpL1Cm4u7167j9rABGtk3h1qg2Ku/ZgCqk3A5E0L0cmLm0hputgZD+ote0Oy8Rt4Ku416qBDWc3fg2mRZvU34CwgOCcD+/Bhq7t4JdaYspIy7jPoICbyHFwAnurRxgVNIxwxKXySHjfhACb6XAwMkdrRyM3vhwozL1Lq5fv41nBUawbeqGRrXpyY2E/BtRoEAIIYSQUtE1CoQQQggpFQUKhBBCCCkVBQqEEEIIKRUFCoQQQggpFQUKhBBCCCkVBQqEEEIIKRUFCoQQQggpFQUKpJw4xAXsxdZDodB5FUIxaZfXYfywadipeX6zjvz7OL5mGkZ7eWHU9J8RlCmk/wNxqWE4vHU3/GMr/FBlUlZcPI4u+BhTd9wu8/sllOFbMenjr/E/3fdJvBUq3N87EyNmH8CDCr38gpB/PwoUqgL+D/GZdbMxc8YMzCjxMxOzv/dDYpn+5ubCf/2nGD9rG8JfemETLzsAKybOwQnODe0ddJ9BmI8rX/dFvy924WaBHLlRAQiO/+f+5VWGb8PMcePx7flcIeVt4ZB8dBa6uH+A5QEvv9fin6cS66t6jPP/vYhYpR7iAg/i0v0CqJKv4dCfkcgTspQsFUdWzsXP0XLUNX3hTxiXhCvblmD+N8cqaWCXoI4NQ+DauVgX8OpaEfKuokChKmCpuB1wDuf8/ODHf84d3op1a9Zh25Fzmu9+fvzPK3eQ/sbP6FTi5rqZ2JQ/Cpt/GApb3a1LGYFj/4uEpMtCHN63FbuPbsG4eq98QPM7J89vBppYecA3qHiElZf0ANHRdxGXXvl7x6Ut801UVn1Vt3+H79hucOu+GDeZMeRPdmNQqw74aPqvuPKKGISL248th1LRdtgwNNTZhPIfHMOCXs3RcdQ8LFt7CJGV1GR5q48wxPkB9mw5Ad33ghFSVVCgUBVIGmLC7isICgrSfPxX9ICR2Ay9V/k/T/tr+zi8+bgtgkWf1bhwdg16VH9h01I9Q2IKYFzHCi/uBFYVLP0Z4hPjkZStO8CKYem9Dw8TIvBd98p/F0LJy3wTlVdfifMUnIoOwuom/vjtVCwu7zgAw6mncef6CnSQCZlewuHpod9xPtcNvT2tn/8Byzj/FTq6DcCm9G4Y0LKakFpJ9Bqhd48GeHbid5z5B58uI+RtoUCBFKeMwdlvxqJbMwdY1bGFk/sgzD0QhdcdgFfGnMU3Y3vgfc/+6NaqCdwHzcWBKO1c+YHfY6z3MpxNUiHt0hp4ew3D2HV/CYeXVXh6cT0+82yJhjZ1YGXninaD52DXDZ19N2UofvIZi9Xn43FzxzT0amYPK1sXdB67AVfThDwC1dOLWP+ZJ1o2tEEdKzu4thuMObtuvGZPMA0hv05Gr+YOsLZugLZeS3DyaQnHrcvQN3nRf2Bu/9ZwtLaEtaMbevlsxy1lLi6vHYORay8hXZWIk4tHwGvYR5i2PUpzTl4ZugU+o/j+KjxWXqb2ckgJ3oUFo3qglZMt6ljaoGGb/vhib6RQn1ct83XzqikR+pMPxq72w70/F8DT1RrWrqOx+yn3cn15Fel31aMjfB288PnufLi4VEeDZtVxfv7HGP75byWf1tJIx7lTfyG/vjvaWRVGthyyEgrQbN5JhFxchz52xV9FVqoyb1d6aNK+DWomn8eff9HpB1L1UKBAinDJODG1GzwXB8HSaxE2blqJT1zu48fhPeFzKFHI9DIu+QSmdvPE4iBLeC3aiE0rP4HL/R8xvKcPDiVyEMurwUAhg0QEiMQyKBQK/iMF/xUpp2egW49p2BNXH/0nzcI077YQXV6NEV2HYuNtYSDKv4NzO3/Dxi/6oMe8ENgN8MGEXtURuW0yBs38X9FglHIaM7r1wLQ9cajffxJmTfNGW9FlrB7RFUM3lnahHIfYXePhOX4Twqt7YuKUj9E0fhOGjdmKx7o74WXpG2Uwlg39CN8/aoJJ3/6EHxcMg+OzCNzOEUOmqAaFVMK3WQQ9mbr9CujzfaKWf+csdu48gMtPytFe7hG2Tp+BgykN0X/aUqxePh3dFQFYM3I4lgWrR9lXLPO186rl4865nfjtpy/hNWYX0HsSJvRtgpr87C/Vt0L9DkhMDCGv0Rs/XDyJT+urYPHhr7i8bzTqGlUr/ahTfigCQ7NQzakJXJ4fdRCj9qBl2DClA2qX56hYWbcrnqxpUzQUxeF64L1S20PIO0v99khSteT8MZyZSyyY96EcIUVLGbGMtVEYss5ro5lSSGPKW2xZWznT77JeSMhi+71MmdRxKruYp/6uZBHL2jCFYWe2Nvr5XPxsy1hbuT7rsv6hNiH3BBtvLWWWY46x50tVhrMlreV8WT7sTKqQxssJ+oq1kEuY3YRT2rxZ+5mXqZjJHUexfQ8KNHmYKo5t6W3M9KzGsxO56gQlC1/SmsmljsyneGHsqxZyJrGbwE4Vb65WwQ22sIWUSZ2ns0tZhWkP2J4R9ZlMZMgG7NImlqVvVLHfsy4yGev6QxxTaVKKyznkzSyk9djk85qOey5rvxcz5es9VduhZWwv36U5ucWWo7yzgrlLZazDmvvP00tb5uvn1a5nkciYtV8exoRFahSvbwX7XZfqAVvfvRZrMT+QCa0tXdIW1kuhxxynXWLFW1Qoi+0ZZMQkVuPYcd1Kl6SM/ayRc4iNtNBjFiMPFW2/hFQRdESBCDg8O38OISo7uNokIVi4diEoOBVmNuYoiAwV8r2Ae4bz50KgsnOFTVLw82seglPNYGNegMjQCCHjy7inZ3A6hIPTQG90MBESeYpmQ9GvqRixARd1LkiTwK73aPQtPKwsroEmTWwhSk5AgjoP9xRnToeAcxoI7+KFYWi/phDHBuBiSVe3JV9GQDhD3V790VJfSNOzQ7/xfWD/fO+0bH0jNnOBszUH//XT8L3fo9eernm117SXJ1fINYcE81MeIepGCEISCiAXMWSmZfA1frWyziuxGoI5kxpDLnx/SUX7XZfYDj4nniLItyVed9JAlZiIZJUIJmZmfA9Vhtf3s4bYHGZ889KeJb3mjgxC3j0UKBABh/inz6BSRmKTV3t4eHgIn46YfDAZChNTId8LuHg8faaCMnITvNoXzsN/Ok7GwWQFTEwLR9+XKWNikaASw9LWrvgAIbGBTW0JuJREJL3iOK9MKuWXr4JKPbIpYxCboILY0hbFT1FLYGNTGxIuBYklFKZKjMczfuCpZWn5ioGnjH2j6Ajfnavwgfg4pr3nCIfWH2HZiYeorJsei7WXl3Z1A8a428C8hj1cmreCe+eFuFCgnvL621fKOq9I3xBGrxq9K9jvFaZSQj1+SySVEyaU5MV+1pJAov5rqdQun5CqhAIFIhBBLpfxe9Mt4RuWjby8PJ1PLtLDVwn5XiCSQzubL8KydefhP7npCF/VQcj4MjE/o0zEITszs/h5Xy4DGVkcxIamMC7reCCWQyYTgcvORGbxwpCRkQVObAjTkgqTysAPC8jOynrF8FrWvhHDrM0U7A2LxvUDX6NLwTHM+7APvv7rLTwfIes0vhzyOfblemJTYCyy8vKRl/IzPJ+ft3+FN5n3RRXt9woSGRjCQMSvr+zsMoRDlYhlISuHQapvgMq/N4WQfzYKFIiA3wN0cYQZi0ZIaLqQVgb83r+LoxlYdAjKM5uanoMLGhhwCPe/BN0H7HFJfjgfysGseUs4v2pvVpeeA1waGIAL98el4oXB73woOLPmaFlCYRKrBnAw5hAdfE3nSZMqPLkRqVOncvaNpDqa9J+NbX/Mhwd3C+cvPNYGQmIxH3IUoCD/zYc45Z2LuPxEhLbjF8KrRW0o1L/J/N72S/vuJSyzzPOWRQX7vaLENa1QW59DYlzs37tnn/8UT5NFsLCq89rTI4S8ayhQIM/pd/XG4LppODjfB5sD47WHzJXJiDq3HZuPRmvyvEwfXb0Ho27aQcz32YzAeO3eszI5Cue2b8bRFx/jrMuoB7wHWiPj6Hx8utYP99NykXbvDFaPm4ODma4YO7EnDIWsr2eEHt4DYZ1xFPM/XQu/+2nITbuHM6vHYc7BTLiOnYieJRVm0An9elog8/hyzN4bgZTMWARsHI0+c84Uu+q9LH2jvLYBM333IThBPTULd/wC8QCmsK9noTmtIbawQHU8xZUz15Cc8RiR91OLXQ9QHmKLOqgl4xDl74c4fsTkUkOwadxSnNKcPihS0jJRxnnLpoL9XlFyF7jWFyPpThSe6sYlT4Nw5MB+7N9/EEF8o1juIwT8wX8/cBwhhY8cTdmNwdVlsBxzpNzXjyhvR+FunhQNXJ01R6AIqVKEixpJFZJzbAyzktmwT0++fFl4auA6NtjJhElEYibVN2TVpGImktZkHZcGCTly2OFRtZi80Rx25fll56kscN1g5mQiYSKxlOkbVmNSsYhJa3ZkS4OEq8lzz7HJ9eTMfuLpYlfQq5L92cq+9ZiBSHMkmf/w81m0YhN2RRXlyznMRtWSs0Zzruhc6a692l5hPJDtyhSSVMnMf2VfVs9AJJQFvu4WrNWEXSzqFVfAqx79wSY2M2FiTR345dduz2bu+YZ9aGzOhh8ousb9dX1TEP49620lZyKJjFWT6/E/jZnLiG0sqvBS/rwQtrKjOT+/ejkS5jDJT9OenMOjWC15IzansEPL1N50dnFhB2YhlbBq5rVZDRNL1nbSN2ySmxFrszSi6M6MEpdZlnlLWs9aL9W3gv1eMbnsrE9dJjUbwvamC0m8pF8+0NmGdD4iU+a1X7sOVU/Wsc4yCbMef0K7bZV1u2IqFrexO9OXtmC+N197XwYh7xyR+h/+F4qQIlwmHoVdQ0RMFvRMrFC/kSvsTV9/wJXLfISwaxGIydKDiVV9NHK1Rxlm4ymRevc6rt9+hgIjWzR1a4Tab3AiWJl6F9ev38azAiPYNnVDo7IUpkrB7cAg3Msxg0trN9gaCOkvel3f5CXiVtB13EuVoIazG9wcTDVHE57LT0B4QBDu59dAY/dWsCttOWXCIeN+EAJvpcDAyR2tHIxKPkRY4jLLOG85VKjfKyD7z0/g9MExdD90Gz/1LP1i2eI4PNzYG81mpmD6xQuY16w8F2SkYNfAehh51weBV33RjM49kCqGAgVCyL9Lnj9mNO2MPe3+i8gtvct2eir3Iqb95wP4Dz2N8wvcynVBIpe4AwMbfoKE2ddwfpZT8cCPkCqArlEghPy7yNtgwsT2yDz0q+bJn2WhevAY1T5cj59nly9IUF/Y+mjPrzgt+wA+Ix0pSCBVEh1RIIT8+6hScP9WMoyd6qH6Wz4VkPs0Cnfz68DZ9s1PzxDyb0SBAiGEEEJKRQEyIYQQQkpFgQIhhBBCSkWBAiGEEEJKRYECIYQQQkpFgQIhL8lG0MaJGPbZL8J3QgipuihQqHI4pIbuw9IJA/F++zZo07E3hk9djYMRacJ0kh+yGp/N/C+ymncUUgghpOqiQKFKyUXElqFo0doLS48nwMy1LdwbVUfS6WUY3KobfIMr6318efCb0QRWHr4I+re9vF91GxtnrEPy4A3YNKqekEgIIVUXBQpVSN7VZRjx+R/IaL8CfjcuYO/Gb7Hmh99wIvQ2Lq3th7qV9lo8hvRn8UiMT0J2RV+P+P9FVB3vLzmL8z9+iNr020EIIRQoVB0pOPrdJoRwrTF9/VS4GQnJamJztBo7Bx83Eh5xp3qKi+s/g2fLhrCpYwU713YYPGcXbui+dzkvGn/M7Y/WjtawtHaEWy8fbL+lBHIvY+2YkVh7KR2qxJNYPMILwz6ahu1Rwuumy1J2CZQxZ/HN2G5o5mCFOrZOcB80FweidF4WrAzFTz5jsfp8PG7umIZezexhZeuCzmM34KpwViXvynqMGzkdO9T11KG6fwBzR43D91fyAe4JLm1fg++P3MfzF2RXsM6EEPIuoEChqsj1x7EziRC3+BADG7zqifUpOD2jG3pM24O4+v0xadY0eLcV4fLqEeg6dCNua0ZPJYKXDcVH3z9Ck0nf4qcfF2CY4zNE3M7htygZFNUUkEpE/N65HmQKBRQKfSg0L+srS9kv45JPYGo3TywOsoTXoo3YtPITuNz/EcN7+hQ96z//Ds7t/A0bv+iDHvNCYDfABxN6VUfktskYNPN/UI/peqbZiNizDkt+uQo+JBCoELVzJVbtvoUcM75f+HLO7tyJ3y/HCIFCxepMCCHvDPUjnMm7T/VgDesgEzOLkYeZ9u38JVOGL2Gt5VLm6HOGpQppjJ8j6KsWTC6xYxNO8XOrYtn3XWRM1vUHFqcSshSTww55WzBpvcnsfNGL/stW9kuULGJZG6Yw7MzWRiuFND711jLWVq7Puqx/qE3I2s+8TMVM7jiK7XtQoE1TxbEtvY2ZntV4diKX/668x77tVI3pOU5lFwvrVXCD+bpJWbXOa9l9dfGacvg6Tr3I1FkqVmdCCHl30BGFKoJlZSOHifi9+2rg9/VLweHpmdMI4Zww0LsDTIRUQIFmQ/uhqTgWARcjAbEZXJytwfmvx7Tv/fBI5wxA6cpY9ou4Zzh/LgQqO1fYJAUjKChI8wlONYONeQEiQyOEjGoS2PUejb52wikUcQ00aWILUXICEtRnGyR2GDCoHeT3jmD/X3maLMpbf+BQqBztBw2E7UsHWipYZ0IIeYdQoFBFiEyMYSjikJ6cjNJvRFAiJjYBKrElbAsHW4HExga1JRxSEpP4bwp09N2JVR+IcXzae3B0aI2Plp3Aw6Lj+SUoa9kv4OLx9JkKyshN8GrvAQ8P4dNxMg4mK2Biqi9kLJlMKuXLUEGlOUMhhlW/weik/wBH9l9GHl+nW38cRph+JwzuZ1nCL0MF60wIIe8QChSqCHENFzhZipEZFoSwUgd0MeQyGURcNjIzi5985zIykMWJYWhqrPkuNmuDKXvDEH39AL7uUoBj8z5En6//0jn3/6Kyl12MSM7PB+i19EVYdh7y8nQ+uekIX9VByFg24lp9MbiLIR4f2YeLGRH4/fANGHYZgg9LvMWhgnUmhJB3CAUKVYW8LQZ9YA/c2Y0fjyTgpbsW89OQmq0HB5cGMODC4X8pSScPhyS/8wjlzNC8pbOQpiZB9Sb9MXvbH5jvweHW+Qt4LIynYrEIKChA/vOXmJe3bIHEBi6OZmDRIQhNF9LehLgmPhj8PkxijmHPll04dNMY3Yf0RnVhcnEVrDMhhLxDKFCoMvTRcdZC9K/9FLvGeeKzn84jOjkX+RmPEfT7Ugxv3RSfHcuGUQ9vDLTOwNH5n2Kt332k5abh3pnVGDfnIDJdx2JiT0NAeQ0bZvpiX3CC5ghC1h0/BD4ATO3rwUJznl8MCwt+6H16BWeuJSPjcSTup3JlK/sl+ujqPRh10w5ivs9mBMZrj1kok6NwbvtmHI0u/20HZj2Holf1OOz9+gfcNO+FIT3NhCkvq1idCSHkHSJc1EiqiMywX9kn7nWYXAT1vr7mI5LVYi1GrGMByepbGFQs2X8l61vPgImE6RBJmUWrCWxXlPrWAV5BOPu+txVfhoTJqsmZHv/T2GUE2xYl3G3AywtZyTqaS7RlSBzYJD/1PQRlKLtEqSxw3WDmZMKXJ5YyfcNqTCoWMWnNjmxpkLDMnMNsVC05azTniuZuBS0lC1/SmimMB7JdmUKSRiY7+Vl9JpfIWX2fkyxLSNV4qZyK1pkQQt4NIvU//B8/UqUokXI3GCG345Etq4H6zZqjYXXNgw6KKFNx9/p13H5WACPbpnBrVBsKYZJWHhJvBeH6vVRIajjDzc0Bpi/cNZCfEI6AoPvIr9EY7q3sYCCkv77sknGZjxB2LQIxWXowsaqPRq72MC1+jeHbU8E6E0LIvx0FCoQQQggpFV2jQAghhJBSUaBACCGEkFJRoEAIIYSQUlGgQAghhJBSUaBACCGEkFJRoEAIIYSQUlGgQAghhJBSUaBACCGEkFJRoEAqFRcXgD2/HkRIykuvnfrb/ZPqUjVxSDi9DKOGzcXBuH/hOsgOwsaJw/DZL+FCAiFVEz2ZsQrJDt2JVTtDkMHprnIxjFuNxpeDnVAZT0POPjAMVsOuYdTZG1jT7oXHQv/N/kl1eSdxyTg6exCW3uqG1b/PRtsXuzj1T0xo2Q9n39uPSxt6o+a/arckHyGL2qP9j7Wx9tIfGFPvheeTE1KF0BGFKkOFB0e+w5LVm7DvpB/8/Ao/53D+5lN+KiHllYekB9GIvhuH9JcOGGQjYMUX2Gc6Hb+u/rcFCfxvy+2NmLEuGYM3bMIoChJIFUeBQpXCAEkTTPrvFQQFBQmfqzjj2wlyIQchZSa2hPe+h0iI+A7dX3pDlh7sh22G/4mv4f4vfBO3qPr7WHL2PH78sDb9kSRVHv0OkGKUMWfxzdhuaOZghTq2TnAfNBcHonKFqVrZkQcwb0g7ONvWgXX95ug+dhVOxxQ/JsHSgvCTT3c0sbOCrUtnjN1wFWnCNPW565TgXVgwqgdaOdmijqUNGrbpjy/2RqL4kgrlI/CH8fCe9hsilEKShgoP/5iHUeN/QGC+kFSCV9dFTYWnF9fjM8+WaGhTB1Z2rmg3eA523cgQpvOUoXwZY7Ha7x7+XOAJV2truI7ezU8ob1vUlAj9yQdjV/vh3p8L4OlqDWvX0dj9VLtbXhnr4LVlaNozDt/5xyP41ynwbFEP1tYN4T50MU481l2X2Yg8MA9D2jnDto416jfvjrGrTkO7KL4dW3wwau4BPHg+S2FfeqBTrw/RpXmT0vvyfDxu7piGXs3sYWXrgs5jN+Bq8RXzkrK169Vl511Zj3Ejp2PHrWIbE1T3D2DuqHH4/ko+uCeXsH3N9zhyX6cvVE9xcf1n8GzZEDZ1rGDn2g6D5+yCbtMIeSepr1EgVYGShS9yY1KpB1sZrRTSilMlHWc+ztWYSdOP2fIdh9nh3WvYmBamTFZ3DDuYoNLmebKLedlImcK+G5u05Fu2xteHeTqZM7eFNzTTs/Z7MVOJEatV25zZdv6U+a5axD5pV5vp6dmxccfSNXmY6j5b09mSNek7mS3btJ3t2votm9SRz6Nozr66XqDNU4yS3VnVjin0GrApF/KENJ4ygi1pLWNyjxUsqoQmlakuvORTU1gjfT1m3nwom73iW/bN/DGsnZWUSSx6sQ2FBWftZ16mUtawbStmVb83m7l8MZvz7akKtEUti+33MmXShm1ZK6v6rPfM5WzxnG/ZqSRVpayDspRR2J66zRqz6nXaslFfrWLLZ3zAGlQTMyOPZSxMU3UVe7LLi9lIFcy+2yS25Ns1zNfHkzmZu7GFN9QZhHY4TmUXhdVSnr6s35rvS7vO7FPfVWzRJ+1YbT09ZjfuGCtaM8WVp12vKlsZuZy5y/WY04zLrGhrUv9+tGRSOf/7wddTs+1IHdnUwoaxZHZqSiOmr2fOmg+dzVZ8+w2bP6Yds5JKmEWvDSVuf4S8KyhQqDKEQIEfJHtM+Yp99ZXwWbCY7byepZkesawNUxh2Zmt1AgnlrWWsrVyfdVn/kP9WwK5+2ZhJZS34QTBXm0EtJ5Y9itcOipo/sGI5cxy1jz0QxklV3BbW21iPWY0/wQrnys3J5YehIso7K5i7VMY6rLlfLL2Q6uH3rKuBHqv72RmWI6Qpby5iLWXVWOe19/jav6xMdVGG88GGnB/sfNiZVE0WjZygr1gLuYTZTTilXZ5mABIxkXF7tjxMp+288raFL0wzwIpExqz98rDnfcLPWQnroCxl8DTtETM96wHs56jCcvJY0Lxm/DbiwCad49MKrrIvG0uZrMVXrPiiHjHt6n4hUChXX4qZ3HEU21e0YtiW3sZMz2o8O6GzrCLla9cry1beY992qsb0dAIcVnCD+bpJWbXOa9l9vvgXAwVl+BLWWi5ljj5nWFHTcljQVy2YXGLHJpwq3CoJeffQqYeqRpWI4KN7sXdv4ecAzkZlguOe4fy5EKjsXGGTFPz8GobgVDPYmBcgMjQC4GJw8VIU4Nob/RvrXNWgsISNhc49ExI79B7dF3ZCkrhGEzSxFSE5IQGFB3vlCrnmvFd+yiNE3QhBSEIB5CKGzLQMlHQjndh6AIZ1McTjw3vgl61OUeLW7wcRKmuPQQPtUOrlZq+pC/f0DE6HcHAa6I0OJto8aopmQ9GvqRixARcR+fwItQRWQ+Zgkm7beeVtSyGJ1RDMmdS46PqQylgHZSnjOQkcBk3BR46F5cjQuMd7qIsnCL0exy/qIrSL6o/ii7KB7uouVN6+tOs9Gn2LVgyaNLGFKDkBCcXPCGiVs12vLJvfJgYMagf5vSPY/1eeJovy1h84FCpH+0EDYfvSxsTh6ZnTCOGcMNC7A4qapkCzof3QVByLgIuRQhoh7x4KFKoavf9g+olwREZGaj+3grFlqAXEXDyePlNBGbkJXu094OEhfDpOxsFkBUxM9fm/pvFISOIgrlkHdUoYKEong1TK/7lVqZ4PnGlXN2CMuw3Ma9jDpXkruHdeiAsF6iml3K0rro2+w96Hadwx7DuTydclAgcOhaFa5yHoZ1mezbh4XZQxsUhQiWFpa1f89lCJDWxqS8ClJCLp+WlqEfQNjV66jbTcbRGI9A1hpFtYZayDspTxCpLatVCDD3LSUlP5RSUgiROjZp06Zbp1tnx9+TKZdsVAVVJ09YbtKl62GFb9BqOT/gMc2X8Zeeqg84/DCNPvhMH9LEv4o6hETGwCVGJL2BYGHwKJjQ1qSzikJCYJKYS8eyhQIFoiOeQyPo5o6Yuw7Dzk5el8ctMRvqoDv7XI+D+4IrDcbGS9alf5dbJO48shn2Nfric2BcYiKy8feSk/w/M1jzow7zUcnhYJOLbvJJJv/o5DNwzRZXBf1H6DrVjMN1om4pCdmVn8FlEuAxl8I8WGpjB+1d1xFWxLiSpjHZSljFdgmVnI4X8aGBryi+KDKj5oyM3OeuWRkUJv3Jev8obtepG4Vl8MVh+hOrIPFzMi8PvhGzDsMgQflrgxifllyyDispGZWTzS4TIy+PUghqGpsZBCyLuHAgWixe/1uTiagUWHIDRdSHuRnj0c61aD6tZVXC2WJxsZGSUdLy6Z8s5FXH4iQtvxC+HVojYU6q1QpSw+uJTEqCuG97VCyvGd+O7Xgwg37YGhntWFiRWj5+CCBgYcwv0v8XvPQiKPS/LD+VAOZs1bwvkVu9MVbktJKmMdlKWM5zgk3Y4Q7mBQ45AQcAV3OAs4N7bmF+WIutVUuHX1Koovih/4S1jdb9qXr1SudpWBuCY+GPw+TGKOYc+WXTh00xjdh/RGyVuTHhxcGsCAC4f/pSSdoInvP7/zCOXM0Lyls5BGyLuHAgUi0EdX78Gom3YQ8302IzBee7+hMjkK57ZvxtFo9WhijB5enrBI/i8WTN2K4AR+D+vhBfw4qgPeX3pNk78sxBZ1UEvGIcrfD3H8gMOlhmDTuKU4pTlc/yr66DB8AOqmH8XyjeGo0WsIepgKkyrKqAe8B1oj4+h8fLrWD/fTcpF27wxWj5uDg5muGDuxJ171GICKt6UklbEOylJGIX6g+980fDBmM67EZSA+aDOmrDiLvHqD8HFHBb+oHvDytEDyfxdg6tZgJGRn4uGFHzGqw/tYeq2E+1HfsC9frTztKhuznkPRq3oc9n79A26a98KQnmbClJcZ9fDGQOsMHJ3/Kdb63UdabhrunVmNcXMOItN1LCb2/Bc+LIKQshIuaiTvPCW78017pm/wHlv3oORr8RlLZYHrBjMnEwkTiaVM37Aak4pFTFqzI1saVHgFeSw7OtOD1VIfk1afhBeJmZHjAPbd1UzN5JzDo1gteSM250rRjWfaq+EVzHjgLqbNlc4uLuzALKQSVs28NqthYsnaTvqGTXIzYm2WRpR4B8NzBcHsq+ZyJpJYs3H/U9+tUbqy1YVvUrI/W9m3HjMQaS4q4D98my1asQm7ooruSMg5zEbVkrNGc67o3FKnVpG25LDDo2oxeaM5TLdqWm++DspUhnAbYd2B09noZqZMrGm7iMlterDl/inaPDxV7FE206MWU5/tUC9LJDZijgO+Y9pFvdyOivelkoUvac0UxgPZrsJmvKQM7SpX2Zns5Gf1mVwiZ/V9TjLdrenlbUfFkv1Xsr71DJhI0y7+I5Iyi1YT2K7nd40Q8m6idz2Ql3CZjxB2LQIxWXowsaqPRq72MH3hkHF2TCiuhsWgwNwJLd0cYFLuc88cMu4HIfBWCgyc3NHKwahsh7e4eGzt74RxocNw4tYP6PLSEwErSonUu9dx/fYzFBjZoqlbI9Quc9kVbMsrVMY6eGUZ2QcwzGoYro06ixsrHXHH/xoewwpNWzeB5UvtzkZM6FWExRTA3Kkl3BxMSr/LRONN+vL1ytI3b40yFXevX8ftZwUwsm0Kt0a1UYlNI+QfiQIF8q/CPd6Ani6TET3yJCLWd6ZHT1eUbqCwph0qcu0lIaRqoGsUyL+ICvf27caFXHt4DnKnIIEQQv4GFCiQfxWR00AsXLcB0zwoTHgj8hb42HcxvujvWKZnJBBCqi469UAIIYSQUtERBUIIIYSUigIFQgghhJSKAgVCCCGElIoCBUIIIYSUigIFQkrCxePogo8xdcftMr63QYnwrZPw8df/K/aeg7dFdX8vZo6YjQMPyv/oYkIIKQ8KFKqQ7Bt74PvFTMyYMRMzZ83BgmXfY6//I2QL0wlP9Rjn/3sRsUo9xAUexKX7BVAlX8OhPyORJ2QpUeoRrJz7M6LldWH64m8Vl4Qr25Zg/jfHUFnjuqSODVjgWsxdF/DqehFCyBuiQKHKUOHB4TVY/M0m7Dt5DudOH8POb2diWHtHuHz4PUL/0dFCHvxmNIGVhy+Cyv6SygpR3f4dvmO7wa37YtxkxpA/2Y1BrTrgo+m/4koJ70HS4hC3fwsOpbbFsGENiz3eOP/BMSzo1RwdR83DsrWHEFlZ9Ze3wkdDnPFgzxacyBDSCCHkLaBAoSpRPzJD0gST/nsFQdfDEB17HydnNkHSkS8weWN0xV6N/LdgSH8Wj8T4JGS/5cP6EucpOBUdhNVN/PHbqVhc3nEAhlNP4871FehQ2nOOuac49Pt55Lr1hqd10a9Uxvmv0NFtADald8OAltWE1Mqih0a9e6DBsxP4/UymkEYIIZWPAoWqTK82usyeiM7VchB0IUBzCoJLCcauBaPQo5UTbOtYwqZhG/T/Yi8ic7WzFMoI3YrP+T3letbWaNBmKJaeuo9L68ZhwsbC103n48r34zF6wSHE6Azuqge/Y+7oidh0rWjXWhlzFt/we/HNHKxQx9YJ7oPm4kCUsMDcy1g7ZiTWXkqHKvEkFo/wwrCPpmF7VGFYo0TM2W8wtlszOFjVga2TOwbNPYDC2dXyov/A3P6t4WhtCWtHN/Ty2Y5bpezZqx4dwYJRXvh8dz5cXKqjQbPqOD//Ywz//DeEl3Y0IP0cTv2Vj/ru7WD1/HACh6yEAjSbdxIhF9ehj11Zn3+oROhPPhi7+jzib+7AtF7NYG9lC5fOY7HhapqQR0uvSXu0qZmM83/+RacfCCFvDQUKVZ1YAolIBD2ZlN8YODzaOh0zDqagYf9pWLp6OaZ3VyBgzUgMXxbMD2FaXOxujOs9DhvDq6P3xCn4uFkCNg7qjBErtmLH6dtCrnxEnvoNO/64gljdQCHmMg5s345Tt7XH8bnkE5jazROLgyzhtWgjNq38BC73f8Twnj44lMjPKJZBUU0BqUQEiPQgUyigUOhDodm755B8Yiq6eS5GkKUXFm3chJWfuOD+j8PR0+cQ1LNDGYxlQz/C94+aYNK3P+HHBcPg+CwCt3PU879MYmIIeY3e+OHiSXxaXwWLD3/F5X2jUdeo2svXHgjyQwMRmlUNTk1cdF6uJEbtQcuwYUoH1C7XmzXzcefcTvy28Qv06TEPIXYD4DOhF6pHbsPkQTPxP93TDLKmaNpQhLjrgbhH1zQSQt4W9SOcSVWgZOGL3JhU6sFWRiuFtEx2fXknZioxYT02PmQqdVJuDsvV/I9AeYetcJcyWYc17L4mvYDdWNiCL8eZTb9U+Ab/AvZgzwhWXyZihgN2CWkZbGsfOZM2msMCC4QkXt6lacxRz5AN2KWeV8kilrVhCsPObO3zOvGpt5axtnJ91mX9QyElhx3ytmDSepPZ+TwhSU0ZwZa1UTDDzmtZ0exKdmtZWybX78LWP1QxVez3rItMxrr+EKdtX1mpHrD13WuxFvMD+da9WtKWXkyh58imXdKtnK4stmeQEZNYjWPHc4WkUmWx/V6mTCx3ZKP2PRCWrWJxW3ozYz0rNv6EbgF8v4y0YHoWI9mhHCGJEEIqGR1RqGq4aOybORIffzQEnm1c0P7LyzDyXIZVI221h5fkCsjV/5OfgkdRNxASkoACuQgsMw0ZmiMDybgcEA5Wtxf6t9RXJ/D0YNdvPPrYl2vXma/LM5w/FwKVnStskoIRFBSk+QSnmsHGvACRoRFCxpJxz87jXIgKdq42SArWzhsUFIxUMxuYF0QiNKIAYjMXOFtz8F8/Dd/7PcILZ1BKJ7aDz4mnCPJt+ZqXJqmQmJgMlcgEZmblbP8rSOx6Y3RfO2HZYtRo0gS2omQkJOie/xDD3MwESHuGJDr3QAh5SyhQqGpYAbJTk5CcXgBD14H4atdfCP59AhoVvowx7So2jHHnB+oasHdpjlbunbHwQoFmkubtYapExD9TQVTLEpZvOi5y8XjKl6WM3ASv9h7w8BA+HSfjYLICJqaFgUjJuPineKZSInKTF9oXzst/Ok4+iGSFCUz1RYCiI3x3rsIH4uOY9p4jHFp/hGUnHqLUGxgqQKVUD94SSCovTniZTAopOKhUOudxeBKJ+ldYCU0VCCHkLaBAoaqROGPkT0dw7PAf2PPzaswa8h9Ufz7AZeH0l0Pw+b5ceG4KRGxWHvLzUvCzp+7l/lL1mAVkZyHrle8dFUHEj9OMMbDiY1sRkRxyvmi9lr4Iy85DXp7OJzcd4as6CBlLJpLLIeP3uVv6hiFbd17+k5sejlWa2xTEMGszBXvDonH9wNfoUnAM8z7sg6//qqxQQQQDQwP+32xkZ//dL2JlyMrKAZPqw0AhJBFCSCWjQIEUUd7BxctPIGo7Hgu9WqC2Qr158Hv8uhfKSazQwMEY3N1gXE8R0niqJzcQWeyRhBIYGuiDJcUj4XmyEvev39BeZKgmsYGLoxlYdAhC04W0UojFfNRRUIB8nbFYYuMCRzOG6JBQvGZ2PnN1NOk/G9v+mA8P7hbOX3hcSbeDilHTqjb0uUTExf7du/X5ePo0GSILK9Qp600VhBBSThQokCJiC9SpJQMX5Q+/OH7Q41IRsmkclp7SnnrQMkCnfj1hkXEcy2bvRkRKJmIDNmL0BzNxIll3j1qKZi2bQp54BN9964+nGXEI2DACfX2voKg0fXT1Hoy6aQcx32czAuO1e/nK5Cic274ZR6MLh3IxLCyqA0+v4My1ZGQ8jsT9VD7a0O8K78F1kXZwPnw2B0I7uxLJUeewffNRqGdXXtuAmb77EJygnpiFO36BeABT2NezKPZgpDchd3FFfXES7kQ9hW6oxD0NwpED+7F//0EE8f3Jch8h4A/++4HjCHkeLaVg9+DqkFmOwZEyX0AhUN5G1N08SBu4wll9lIcQQt4G7TWN5N2nZHdWtWfVDN5j6x6Ufv1/+sWFrIOFlEmqmbPaNUyYZdtJ7JtJbsyozVIWUXhngeoR+31CU2YiFqkjAyaS1mGdv1jCRjbQ07nrgZfuzxZ3smB6IvXlDSImt+nBlhxaw3oZmrPhvxdepp/KAtcNZk4mEiYSS5m+YTUm5cuV1uzIlgYV3W+QF7KSdTTn86iPt0sc2CQ/4Q6D1EC2brATM5GImFiqzwyrSZlYJGU1Oy5l6tkLwr9nva3kTCSRsWpyPf6nMXMZsY1Fve5WhvLIPct86kqZ2ZC9LF1IUkv65QNmoGn7Cx+RKfPaL7Rf9YSt6yxjEuvxTHtDQw47PKoWkzeaw67o3EShDF/CWiuM2cBdmUIKP2vcRtZdX8pa+N587Z0ZhBBSUSL1P/wfL0Ke4zLuIyjwFlIMnODeygFGJR53UvF77ldw9W42zF3boqVlCKY37oTNjX9DxgEvIQ9PlYZ7QVcRlWmGRm1bwKaU6xO5zEcIuxaBmCw9mFjVRyNXe5i+cDg9PyEcAUH3kV+jMV8vOxgI6fzcyHwUhmsRMcjSM4FV/UZwtTctulshLxG3gq7jXqoENZzd4OZgWmlHE7Sy8ecnTvjgWHccuv0Ter76GsxiuIcb0bvZTKRMv4gL85rpPIfh9VJ2DUS9kXfhE3gVvs3o3AMh5O2gQIFUjnz/kgOFKiLPfwaadt6Ddv+NxJbehkLq6+Ti4rT/4AP/oTh9fgHcynNBIpeIHQMb4pOE2bh2fhac3uYdF4SQKo2uUSCkEsjbTMDE9pk49KvwRMiyUD3A42ofYv3Ps8sXJPBUj/bg19MyfOAzEo4UJBBC3iI6okAqB5eAS9u24nqtAZjcq56QWLWoUu7jVrIxnOpVf81DmipB7lNE3c1HHWfbUk4NEUJI5aBAgRBCCCGlon0RQgghhJSKAgVCCCGElIoCBUIIIYSUigIFQgghhJSKAgVCCCGElIoCBUIqBYfUsMPYuttf+E4IIe8Guj2SvJNyb+7Fqh3BgMsA+HzUEmY6ITGXEoBf1p6G8ZA5GOwiPPEgPwaX9+/FyYgUyGzbot+wXnA20k4qm3z4T2+MTpsboyDjgJBGCCH/fnREgbyDVLh3aDUWrViBBWMGYeb/dN6HzeNiT2PjsiXYEZijTci/iXUfNEenST/hQtgV7P3qQ7RqPxNnU7WTSVnlwW9GE1h5+CLo737jNiHkraFAgbyb1AfKpPXR0C4WO+Z9gyt5QnoJck+vxcpzMny8LQBnj5zElcPTYB+xEWt+TxBykLJhSH8Wj8T4JGSX9THWhJB/PAoUyLtL7IwxMz1hfPNHzPvpLlRCcnEc4m9HI1HcGG08TDUpisbN4aqfh0f3Hmm+lygtBL9O7oXmDtawbtAWXktO4mkJC1DGnMU3Y7uhmYMV6tg6wX3QXByIyhWmlkAZip98xuE7/3gE/zoFni3qwdq6IdyHLsaJx0UL4FKCsWvBKPRo5QTbOpawadgG/b/Yi8hiRWcgdOvn6NVcXUYDtBm6FKfuX8K6cROw8Vq+Nkv+FXw/fjQWHIrhe6KQCg9+n4vREzcJ37Ve2Zbcy1g7ZiTWXkqHKvEkFo/wwrCPpmF7lFBnZQzOfjMW3Zo5wKqOLZzcB2HugSi8oicIIf8QFCiQdxhD9UG+mNaqAOeWL8ShEt/WJIaRsRH0uGdIEEZ6Li0JyXkiVK9ZU/P9JVwsdo33xPhN4ajuORFTPm6K+E3DMGbrY53Bls+WfAJTu3licZAlvBZtxKaVn8Dl/o8Y3tOnlLrw8u/g3M5t+M6nG7rNC4SF5wRM8mqIZ4cXYLDXKtzQHNLn8GjrdMw4mIKG/adh6erlmN5dgYA1IzF8WTC0R/05xO4eh97jNiK8em9MnPIxmiVsxKDOI7Bi6w6cvi2cG8iPxKnfduCPK7HFAoWYywewffsp4XsZ2iKWQVFNAalEBIj0IFMooFDoQ6F+bzaXjBNTu8FzcRAsvRZh46aV+MTlPn4c3hM+hxK1CyCE/HOpL2Yk5N2iZOGL3JhU7sl+SWUs4+wk5iiVsUaz/FkWP7Xgpi9rIZWzD35N1+RWPdjMeptJmWXnKWztTz+wub3tmax6b7b5vlIz/UUFNxby80uZ8/RLmvI0aQ/2sBH1ZUxkOEBIUbKIZW2YwrAzWxtdVI7y1jLWVq7Puqx/KKS8IGs/8zIVMz3rAeznqFwhMY8FzWvGpHoObNI5IS03h+WqtP+robzDVrhLmazDGnZfnV5wgy1sIWVS5+nsUlEl2Z4R9ZlMZMgG7BISM7ayPnIpazQnkBVoU3h57NI0R6ZX7rbksEPeFkxabzI7nyck8ZQRy1gbhSHrvDaaL0mgvMWWtZUz/S7rhQRCyD8VHVEg7zzDjnPw1YdmuLVxHjYXHgrXIbYbg18Or8GHhlexbd1P8JN4Yt2x3zDGvuT3NydfDkA4q4te/VtCX0jTs+uH8X3s8XwO7hnOnwuBys4VNknBCAoK0nyCU81gY16AyNAIIWNJJHAYNAUfOcqF7zI07vEe6uIJQq/HaZPkCsjVv735KXgUdQMhIQkokIvAMtOQoT40kHwZAeEMdXv1R8uiSqLf+D4opVmle6O2cHh2/hxCVHZwtUlCsDBvUHAqzGzMURAZKuQjhPxTUaBA3n1iSwxdOB3u3AV8s/ggkhggEiYVMncbjVW7/8TFgEv4c9dyfNzUUJjyIhUS459BJaoFS8tXjLhcPJ4+U0EZuQle7T3g4SF8Ok7GwWQFTEwLR++ykdSuhRoihrRU4VaMtKvYMMadH6hrwN6lOVq5d8bCCwWaSer7nVWJ8XimEqGWpWVR8FJRb9QWDvFP+f5SRmKTV/uieT06YvLBZChMtNeFEEL+uShQIFWCxHkiFo9rgIR9i7A2TFksUOBifkR3U0MYGup8jN2xWHtBwEukMin/bzaysl7xCBKRHHIZvxPf0hdh2XnIy9P55KYjfFUHIWPZsMwsqG/mNODrBmTh9JdD8Pm+XHhuCkRsVh7y81Lws6f6ggCBVAZNLbOyNIFDqUQivi+Y+hSkzjUKL3ijtogg184M37Ds4vPm5SI9fJWQjxDyT0WBAqkiDNDui4UYWCMcG1ccQbLO6Cm2Go1dEZGIjNT53DqCqa7Cw5iKkcCqgQOMuWgEX0spGlxVT3AjMqnou8QGLo5mYNEhCE0X0sqMQ9LtCMQ8P0vCISHgCu5wFnBubA0o7+Di5ScQtR2PhV4tUFuh/jXm9/h1zqpIrBrAwZjD3eDrKHqKhApPbkQiSTcikBjCQJ8hKT6hqO7K+7h+I7FCbRGL+RCsoAD5z/tXAhsXR5ixaISUvyMIIf8AFCiQKkNcawAWzGwP7kYw7hY7WKCPWg6OaNiw4fOPYz1LGJXy22HQqR96WmTi+PLZ2BuRgszYAGwc3QdzzmQIOdT00dV7MOqmHcR8n80IjNfejqhMjsK57ZtxNPrlayWK8IHC/6bhgzGbcSUuA/FBmzFlxVnk1RuEjzsq+IZYoE4tGbgof/jF8Q3hUhGyaRyWntKeetAw6IR+PS2QcXwZZu+OQEpmLAI2jsYHM08UC5IgbYaWTeVIPPIdvvV/ioy4AGwY0Re+V3TKKnNbxLCwqA48vYIz15KR8TgS91M56Hf1xuC6aTg43webA+OhmVuZjKhz27H5aLRmTkLIP5j2mkZC3iVKdmdVe6ZvMpDtyhCSCuUGs1VdazGptA4bcyRHSCwvFXv0x0TWzETM+P1nBpGU1W4/k+355kNmbD5cyKOWygLXDWZOJhImEkuZvmE1JhWLmLRmR7Y0qOgeg2I0dz1IWd2B09noZqaM30Hnh3URk9v0YMv9U4RMjKVfXMg6WEiZpJo5q13DhFm2ncS+meTGjNosZRHCrQWqR7+zCU1NnpchrdOZfbFkJGugp3PXAy/dfzHrZKEntEXObHosYVdybCsAACHASURBVIfW9GKGFWhLXshK1tGcz6MuS+LAJvlpb39IDVzHBjuZMIlIzKT6hqyalO87aU3WcWmQZjoh5J+L3vVASAWpUm4jMOgecsxc0NrNFgZC+ou4zEcIuxaBmCw9mFjVRyNXe5iWdFZDLfsAhlkNw7VRZ3FjpSPu+F/DY1ihaesmsFQIeQRcxn0EBd5CioET3Fs5lHwERMXvuV+5irvZ5nBt2xKWIdPRuNNmNP4tHge8ii5CVKXdQ9DVKGSaNULbFjbP7+Z4UVnakp8QjoCg+8iv0Zivl11Rv3CZeBR2DRExWdAzsUL9Rq6wL7UjCCH/FBQoEPJPohsorGkHncsTK0W+f8mBAiGElIauUSCEEEJIqSRf84T/J4T8fxNXg75hbTR9rwua2xq89LyHNyVSGMCougvad2uLBua0n0AIeT069UAIIYSQUtEuBSGEEEJKRYECIYQQQkpFgQIhhBBCSkWBAiGEEEJKRYECIVUNl4DTy0Zh2NyDiNN970Ml4lLDcHjrbvjHlmcBHOIC9mLroVCkvKV6/StxqQg7vBW7/WOFBEL+XhQokHdSduhOLJw1EzNmzMDMmV/gywVLsW7b/xAqvKfgH4FLxtFZXeD+wXIEVGK1uOSjmNXFHR8sDxBSiks9tQATFl2GkbsHar2lvwDK8G2YOW48vj2fK6SURS7813+K8bO2IbzkF3e+YzgkH52FLu4fYPmrNgBlOLbNHIfx354XEgj5e1GgQN5BKjw48h2WrN6EfSf9cO7cKRzd/QPmjfPEfxyc0Xvh6be2J10+eUh6EI3ou3FIr8z65CXhQXQ07saV8LbG7ACs+GIfTKf/itW9a9IfgFfJ88OMJlbw8A3C24pb8pIeIDr6LuIqdQMgpHLR3wnyjmKApAkm/fcKgoKuI+x2DBLunMSy94Ezvv3Rb/FVfv/1/5nYEt77HiIh4jt0f+E9Dm9CbOmNfQ8TEPFddyFFh549hm32x4mv3WEoJJFSsHQ8i09EfFJ20Su3K5UYlt778DAhAt9V5gZASCWjQIFUGQq7rvhiz++Y66bC1W99sVPn/Lky5iy+GdsNzRysUMfWCe6D5uJAlE4okReNP+b2R2tHa1haO8Ktlw+239LZz8yOxIF5Q9DO2RZ1rOujefexWHU6RjtNGYqffMZitd89/LnAE67W1nAdvVs9AaFbfDBq7gE8EN7UrAz9CT7jvoN/fDB+neKJFvWsYd3QHUMXn8Bj3TdTv2Z5W3xGYe6BB9rvaqqnuLj+M3h6dEKvD7ugeZN2GDxnF27ovBlbs+yxq3E+/iZ2TOuFZvZWsHXpjLEbriJNyFOyNIT8Ohm9mjvA2roB2notwcmnJbxGWxmDs9+MRbdmDrCqYwsn90F8HaPKGbBlI/LAPAxp5wzbOtao37w7xq46jZjCxRW2s2VD2NSxgp3ry+18vj7Ox+Pmjmno1cweVrYu6Dx2A64KDc29vBZjRq7FpXQVEk8uxgivYfho2nZEFa6n120vZViGmjJ0C3xG8fMWbgC8tJBfMblXczjw20mDtl5YcvIpXu5NFZ5eXI/PPFuioU0dWNm5ot3gOdhVrKGEVBL1kxkJebcoWfgiNyaVerCV0cI7l59TsaebezIDsRHr91uyNiXpOPNxrsZMmn7Mlu84zA7vXsPGtDBlsrpj2MEEFZ+jgF1f0IJVM27Bxq7bx44c2sFWfz6EzT6YrpmfqZ6wXV42TKqwZ90mLWHfrvFlPp5OzNxtoXa68Orohm1bMav6vdnM5YvZnG9PqSew/V6mTOo4lV3Uvo2Zz+rFTKV1WbPG1VmdtqPYV6uWsxkfNGDV+Pp6LAvja8Ir4/Icp17UfmfJ7NSURkxfz5w1Hzqbrfj2GzZ/TDtmJZUwi14bWJTQRdpl12etW1kxu86fMt9Vi9gn7WozPT07Nu6Y0NaXqFjMzsHMSk/GbLtOYktWLWSfdLZhRiYmfJ11XmetSmLHfZxZNZOm7OPlO9jhw7vZmjEtmKmsLhtzMEGbp4T+KE7FnuzyYjZSBbPvxi/r2zXM18eTOZm7sYU31D1TtnYW9k/91vz6sOvMPvVdxRZ90o7V1tNjduOOMXVL865uYJ95v88cq4mZSaPezHvkKDZm7j52jy/j9dtL2Zahzabuc0c2VWiwKmYnG2ylx2S2XdmkJavYwk86MxsjE2bC18NwwC5NHrXkU1NYI309Zt58KJu94lv2zfwxrJ2VlEkserENzxtKSOWgQIG8g14VKPCDwF+zmLOelDVfEMoPvEoWsawNUxh2Zmt18ipvLWNt5fqsy/qH/F/vWPZ9FxmTdf2BxQnjgK6Cq1+yxlIZa/HVdZYrpDGWw2IfxWv/VzNoiJjIuD1bHlaUo6SBUTNwiPWY9YCfWVRh1rwgNq+ZlOk5TGLn+LSyLa8oUFCGL2Gt5fx3nzMsVZOilsOCvmrB5BI7NuFUjiZFu2w5cxy1jz3QRCR80+O2sN7Gesxq/AmdZekouMEWtpAyqfN0dkmICVjBA7ZnRH0mExUFCsqIZayNwpB1XhvN97hAeYstaytn+l3WCwmvCRQKrrIvG0uZrMVX7LpOZXJiH7F4vr5lbae2f8RM7jiK7StqKNvS25jpWY1nJwrLzjnEvC2krN7k86yoOmXYXtTKuIzigUIBu7GwBb/dOrPpRZ3JHuwZwerLREWBgjKcLWkt5/vJh50paijLCfqKtZBLmN2EU3yrCak8dOqBVDliuRwyEaBSqQDuGc6fC4HKzhU2ScEICgrSfIJTzWBjXoDI0Ah+BjO4OFuD81+Pad/74VGxY+UcYi5eQhRc0bt/Y8iFVEABSxsL4f/VJLAaMgeTGhflKJXEAYOmfATHwqyyxujxXl3gSSiuxynLuLxCHJ6eOY0QzgkDvTvAREhV5282tB+aimMRcDFSSONJ7NB7dF/Y6Wm/ims0QRNbEZITEkq+oC/5MgLCGer26o+WhW+t1rNDv/F9YC8RvvN1eHb+HEJUdnC1SUKw0MdBwakwszFHQWSokO/VuJiLuBQFuPbuD91uVFjawEKvnO3k14dd79HoW9RQNGliC1FyAhJedeViWbaX58q7jGRcDggHq9sL/Ys6E3b9xqNPUWeCe3oGp0M4OA30RoeihkLRbCj6NRUjNuAiIt/W1ZekSqJAgVQ5qthYJHJi1KhdC2IuHk+fqaCM3ASv9h7w8BA+HSfjYLICJqbqP9gKdPTdiVUfiHF82ntwdGiNj5adwEPNHW1KxCckgRPXRJ06woBQIhH0DY34P/sVIUHtWjUgYmlITc0v4/IK8YFFbAJUYkvYFg5YAomNDWpLOKQkJgkpJZFBKuUHJz6oKumCPlViPJ6pRKhlacnXsjQc4p8+g0oZiU1e7Yv62KMjJh9MhsLEVMj3asr4BCTx661mnTol9OObtpNvqbahUL3qysUybS+le+UyVImI58sW1bKEZemdCWVMLBJUYlja2hXvB4kNbGpLwKUkIunlixoIqTAKFEgVk4egs5eQIG6A1q0tIBbJIZfx+20tfRGWnYe8PJ1PbjrCV3XQzCU2a4Mpe8MQff0Avu5SgGPzPkSfr/9CPv8rJJNJ+UE8F9lZb+faePUdHJlZOfxPAxgaSsq5PDHfPhlEXDYyM4uPHlxGBrL4gdfQ1FhIqQApH0jwP7KzstT3mZRCBLm2k+Ebll28j/NykR6+Ssj3amK+HVIRQ252VglBy1tuZ6Eybi8VI+UDCf4H376sV7zTV8xXQCbikJ2ZWfwiRy4DGfw2ITY0hfErAg1CyosCBVKlpP61ArO3RMOg/Vh4/4ffH+P3wlwczcCiQxBawmMHipOgepP+mL3tD8z34HDr/AU8VunB3rEuqqlu4erV4gVk8wNUhXBJuB0RUzQIcAkIuHIHnIUzGlvLy7k8PTi4NIABFw7/S0k6AyyHJL/zCOXM0Lyls5BWfhKrBnAw5hAdfE3naYoqPLkRye/9C1/5frNxcYQZi0bI6zu5VHr2jqhbTYVbV6+iWCnZ/ACpfBvtFPOBJFBQkF8UBJVreykniRUaOBiDiw7GNZ1HU6qe3EBkUWdCz8EFDQw4hPtf0ulj9Wbjh/OhHMyat4Tzy4dcCKkwChTIOywZESd/x/79+7D71/VY+El3tOy2EEE1BuO7TZ/BUbPXpY+u3oNRN+0g5vtsRqDw5EZlchTObd+Mo9H8cK28hg0zfbEvOAHqqVl3/BD4ADC1rwcLvgzjHl7wtEjGfxdMxVY+T3bmQ1z4cRQ6vL9UU1a58YHC/6Z9gDGbryAuIx5Bm6dgxdk81Bv0MToqyr88ox7eGGidgaPzP8Vav/tIy03DvTOrMW7OQWS6jsXEnm/wRAWDTujX0wKZx5dj9t4IpGTGImDjaPSZcwa6YYt+V28MrpuGg/N9sDkwXtOPfCcj6tx2bD4arcnzWsY94OVpgeT/LsDUrcFIyM7Ewws/YlSH97H0Wn7lt1NsAYvqwNMrZ3AtOQOPI+8jlSvD9lJhBujUrycsMo9j+ey9iEjJRGzARozuMwdndDvTqAe8B1oj4+h8fLrWD/fTcpF27wxWj5uDg5muGDuxJz0jg1Qu4aJGQt4hKvbwx+7MRCxS7wgyiMRMqm/ObBt3Zl5fbmNXn71460IqC1w3mDmZSJhILGX6htWYlJ9XWrMjWxpUwFhBOPu+txWTiyRMVk3O9Pifxi4j2LYo4Wp2fnmxR2cyj1pSxu+A8ssUMbGRIxvw3VXt5JzDbFQtOWs054rO1fNqOezwqFpM3mgOu6J714O0Lhs4fTRrZirWlieSM5sey5l/ijZPeZanpWLJ/itZ33oGQn51mVJm0WoC2/X81gr1bKNYLXkjNqewMmqaK+wVzHjgLpYpJL1I9egPNrGZCeP3vjV1kdZuz2bu+YZ9aGzOhh8ouv4+NXAdG+xkwiSa9WHIqkn59klrso5Lg4QcL/fHi1SxR9lMj1pMqlkW+PVlxBwHfMeuaipXtnaWvD6ULHxJa6YwHsh2PW9oHgtZ2ZGZS7TbkcRhEvPTzPCa7UWtjMt4qc9Vj9gfE5s933ZF0tqs/cw97JsPjZn58APaPDxVsj9b2bceMxD6QdPvFq3YhF1RJd+dQsgbEKn/4Tc0Qqo8LvMRwq5FICZLDyZW9dHI1R6mzw/h5iHxVhCu30uFpIYz3NwcYPrieeDsGIReDUNMgTmcWrrBwaT8J4qzDwyD1bBrGHX2BlY63oH/tceAVVO0bmKJl57dV97lKVNx9/p13H5WACPbpnBrVPvlMitKlYLbgUG4l2MGl9ZusDUQ0l/EZeJR2DVExGRBz8QK9Ru5wr6ok8soGzGhVxEWUwBzp5ZwczApfiFlpbYzHwnhAQi6n48ajd3Ryq6oYa/eXv6vvTuBi6rq+wD+mxlmUQQEaWRHUVkFTBABt6x83LCSTAVNMZfSB8wH1MQsw0dxSXi1ek0sH62ecKPSVjNMDJFkEZQHZVExVHYYkB1m7nkuM3dgxhzAfF8XPF8/94OcuXPmzH8O9yz33Dv3QwFZXgrSrjXC2HkkPHUGU47qq+dxPq8CrQY2cPccCjN6g0fq/wHtKFDUI0SzoxA9WsSlUhRFPTx0jQJFURRFUTrRjgJFPULEHq9iw8a34G9Pl61TFPVooKceKIqiKIrSic4oUBRFURSlE+0oUBRFURSlE+0oUBRFURSlE+0oUBRFURSlE+0oUNQDwFRfxLf7DyCpSOPm/PdBnr0fIa++hx81b/bfUzHVuPjtfhxIKuISHhNMMZIP7sPRTNldvsTq4ftrdVKBgkOrMG9NHK7fz92qqccKveqB6pEaLnyJ97/MRC2jWb154PcbjTdWvwi7e79p4n1pSQqD6zN74Pp5KeICOv8q4q5V45v5LpiTF4z0M+FwesDv5YFrSUKY6zPY4/o5auMCuMTHQEMcAi0Dkb7gV2RFj8ajdvusv1onm8+uhPuz32FK/EVEjxZzqVRPRmcUqB5Igevf7cSmqBgcPpGAhAT1dgoJZ7JR1o2RUHPCSrhZjsKGNDmX8uhgio/g02PV8AkMhMOj2EloTsBKN0uM2pCGRy961P0Se83FLKfrOPjpca0v/qJ6LtpRoHooAgjcEPLNOaSlpbVvKT+shXc3hnbkdgVKy0tR2fCoTRozKDn2FU43eWKqn9Wj+QdMbqOitByllQ2P5JQ7dZ/0hmLqpCGoOP4VTtZxaVSPRjsK1BOr+crXeNt/JOytzGFl74kpwV/gsrwJZ3csRNCOM7itKMeJjfMQEDgXoV/kom0igpFlIHb9AkzycoSNhTmsHbzh/9Yh5DSp8lSpQea+5Zgy3A5WVkPgE7AJJ0ruMo2hKEHih3+H3wgHWFtYwtZlNGaGxyKr02HabZz65Xe0DPbFaEv1dAIDWUYs1i+YBC9HG1iYW8PB2x9vHcqBVrHQgJy4dZg12oktuxUGD5+IRe/H45a6aPJb+HX7IkwYZgdLCxs4+r6Ct+NyNfKQ48InwVi8MwmlGfuwws8Dg6ys4OA7GxuP31DGp+nsDiwM2oEztxUoP7ER8wICMTf0C+SqgoeM2PVYMMkLjjYWMLd2gLf/WzikHTzUZO7D8inDYcfmPcQnAJtOlCjz1qZASeKH+LvfCDhYW8DS1gWjZ4YjtvPg/Yn8wicIXhSFhGs/Y72fC/t5ueC1AyXcg13Fo00XMW1DapDGxm2imy0sbZwxftHHSK3hHmN1XadqcWprEAIDAhCg3tg6GfKvLOWMzYOvk3pwG+ONp6pO4+ffm7k0qiejHQXqySTPwObZc/FRoRtC/ucT7FofCPuKS8hr5EMk6QWJUAAe+09PJIFEIkFvSds0BIPC/WFYeVQGB/9QREZtQdhECZKjgzBncwY3zc6gKHYJ/JbEILufH5ateBXupTEIXLgfN7SG1zLEr5yASaEHUTzYHyGrQzHfh4ezUfPw/OzdyLvLMVyp5QJSLtSjl6MbnNUzI0wh9oetxFGZA/xDIxG1JQwTJcmIDpqDzRnqyX8Gtw4swt8Co5DSewLeWB2G+aNESNoSjr2X2X2YKhz/xwT4bUyDecA/sTtmG153LsCuOZMRfKycy6MF+ae+xGc7gzFhwjqkSP2wNCQADhXfYv3MALyfJQefjVcviRACHsDTEyljJ+ktUZ6fZwr3I2zlUcgc/BEaGYUtYRMhSY5G0JzNUBeTKYrFEr8liMnuB79lK/CqeyliAhdiv3bwIItfiQmTQnGweDD8Q1YjdL4PeGejMO/52ditM3h/1pJ/Cl9+/gnWBixELKYiZOmLcHuKLW234tFFTLl9itl9pm28BLtXQrB0Sj/kfLYcr6z6kZu2706dYmsi04Km5mY0t23VlxF/6CCOnitiu0sPp06K3N3hwCvG+ZRrd+nEUT1O22JGiupZ5CT7n55EyDckA572Il5e3OY9lWw6q/ref0XRR+Q5kYg8/7/FRKFM0dZ4bD6RCgeR5adV+7draiRNmk+Q55OtvkIiGhtNCtrSW7NIhIeQCJ3CyJl61S6k9To5OG8wEfH6kJdjVYny7E1kpFhI7INPkmplSptGkvauBxELbMnSXxq5tDtUfkqmSPSIfegZolmypsYmrfchz99KfIUiMja6QJXemkrWurLl9HiXnG9S7qLUWFRISlvZ/S9tJt6SPmT8jits9Djyy2Szj5j0fu5DLqGeHAnoS/h6VuTlvblEnU1z2joyTKhH7EJOqdIaj5H5UiEZtPy0VhnZUpJG7eCR/K2+RCgaS6JVwSNZER5EKHQiYR3BI9cPziODRTzS5+VYVZI8m2waKSZC+2BysiN4pDHtXeIhFhDbpb+wkeye+iMBpC+PRwzHbCEXNeLSrXh0EVM2cxLQl0/E9gvI4ettCSxFMfl0qiHRs1xCjquf01Wd0lJLToe5ELHROLI9m8vzYdRJ9jMOkuoRadCxbseaenzRGQWq5+IZYMBwb/j4+HCbBwYbq6o839gZTlYMkj4MxUcJhXdMJ3dCLIG4LYsWGQpzs5CZWYZWMQ+krga1baOzqrNIziYYOMUfI9QLyfVsMX3JCxjQvvCQQcnJeGQyjpgxfyyMuFRAgmGzp8OdX4TkxBwuTZuivBxVCh6MjI2huY5RLBErpwdbZIXIzcpEZlkrxDyCuppa9tXYV7yViDO5gMtUf7hqLFSXmFtDqseg4vQpZCps4WJdiQz1mo6Mahhbm6A15wK3t4rA7hWsmGsPdTYi10l4diBw88J5FGsP/O8ghkQVPMgKc5GVmYmyVjF4pA41quDhbHI2yMAp8O8IHmynL8ELHcEDU3IS8ZkMHGfMx9iO4EEybDamu/NRlJyIHPWAvjsElpgVHqIRl+7Fo/OYcr+wn5Lt1Nfwoi2XwDeFm5sNeFVlKFOXsas6paEhORJv7voDw1fvRIgzl+fDqJN8ExizO9VUVIKefOj52qoXRfVM/AGYEh6NHTt2qLboCMx05A6uknHY8OX7mMb/CaHP2sNu5FxsPv4H24R1oSYVHy/0hbWJKQY4D4eX73hE/NaqfKjtQkxFeSkq2Ia8v7m5VkOuTY5bRWVQ8M1ho25AOAJra5gJGMjKK7mUOyjkyulkgUA795rUj7HQ1xompgPgPNwLvuMjoCqW6vJQeWkZKhk+nrKwYJveOzEoLalgs85BTMAYjBo1itvGYfnRKkiM+nL76SAwQ39TtmGqqUZ1px2FGqR+vBC+bGNrOsAZw718MT7iN7QXU1GO0goFeP3NYa47eJDfKkKZgg9zG1vt9yKwhrWZAIysHJX3Mh/O640+Bpo5dS8encdUN5FQyL6EAgp1rLqoU+2aUrE1ZCfyXEKxM9S943LLh1InBRC0tR5yVX2kejbaUaCeUHwYe6/AoYtXcD7uPTzX+gPWvfQC3vu9s65CPeLXzsKbh5vgF5OCovpmtDTLsNev/ZANCEVgmwE01NdrH+S18CEWicBjGlBXp92iMbW1qGcbnz59DbkUbTz9PtDnsfk3NHTkXx+PtbPexOEmP8SkFKG+uQXNsr3QLBaffT0hj6CpoV45w6CNB7GY3VlvBDZcbFCdB2/fmnA7+31uPx1IHeob2Z9s2fqwZdOlPn4tZr15GE1+MUgpqkdzSzNke/007i8gZBtR9gdbxnrdwQOfLauIx6Chrk77/DhTi9p6Bvw+fWHYSUeja92LR+cx7a5u1CmlZmRGLUd09hAs3/kWRki45IdVJwn7GTUSCHvro70oVI9FOwrUk03QD27+a/DZ1+9gFHMZp39Trd4Hn882F61obdE4tMrzkXj2Jng+SxAR4AEzSdufjwJyjeOqwHII7AwZXMlIh6y99VDgZlYOO/rkfmXHn3bOQ6DPZCPpTKVGI8OgMuE0LjDGGD7CiUvTxn/KEma9GZQXF7WP5OT5iTh7kwefJREI8DCDqlhyrUZUb4A9BvZS4HJqKm5zaUoNbOMqF8Da2R7G5AoyL2g9eldMZR4uaSzrZ8qScS6fgdTJFVbKBpoPPtthaG1t0WiY5MhPPIubPB8siQiAh5lEefBRaAcPQ+wMwVzJQHpH8KC4mYUcjTtQ6tk5Y4g+g+ykMxoxbStXAk5fYGA8fASc7mWI/yfdi0fnMeX+35Vu1Kk28v98gDe3ZcBm6U6s9dW4OdLDqpMtJSip4kFqeW+zKdTjqa1WUVQPVYVLJ77CkSNH2re4H9JRyh4F5ekfY9WGw8goa5tBqEd+Qgquoy8GDJIqp2f5Uin6oQTnTqajqvYGcgqqwfClsOgvApObhIRitiVgqpEZsxiRv6imeZX0n8H0yVLU/bQFaw5dgqyuCMm7X8ML4Se1bk5jMGk+ZljV4vt33sCOhALUNNXg2skoLA4/ijqXRVg2uQ+35x3EznAZzEdlfi5KuKM5X2qB/iIGuUkJUBUrEzGLI6FZLBhOQoCfFFXfrMc/9megrKEOf/y2CwvG/g2R6S3o/fx8zBxYg6PvBGNPSqnqFIy8CrmnvsCe768os1BjKn9E6LSF2HOuGLWladizYit+bR6EV14dpxpdsnGS9gNKzp1EelUtbuQUoJodkUot+kPE5CIpoZjtNjCozozB4shfVKcelPTxzPTJkNb9hC1rDuGSrA5Fybvx2gvhOKkdPMyfYYXa79/BGzsSUFDThJprJxG1OBxH61ywaNlkqKInw4GZ/SAyX4jvur0IRaVb8egipt3SnTrF3MLnazcjieeJSa5lOK6sy3H4OiEP9Q+pTsrzcnG1WYghLk7K2Qqqh+MWNVJUD6Igf+yaSIz4vLYBrdbGM5xBDtQR0pr9EZlqKSY8gYj0EuuxPw2J87zPSC63kJw0Z5Jt40yIgNf2PAGxC0lQruC/nRhBxkqFRNDLhJiZGhFznxCyPcSTGHhHkkvc8nhF4ddk2TAjwo6q2efyiNBsDFl1cDt5ydCEzIlTrxFXkKqkbeTFQfqEHXyryscTEqnXUhKbq7GE/k+ayK/BA4nQeBY5dJtLIrdJYsRYIhUKSC8TM2JqZE58QraTEE8D4h15qX3VvqLoe7JqVH8iVJaLjQXfgNi/vJOksvFoU53yAZnpaMS+Zz4R9u5Degn5hCd8ioyLTFPtwF31IBw4g4S9Noz05eLLE1uTSVuSiIzbiw0eydw2jpgIVI8L7EJIgip4JGKslAgFvYiJmSkxMvchIdtDiKeBN4nsCB75etmw9s+OJzQjY1YdJNtfMiQmc+JU+7AUVUlk24uDiD73XpRxlnqRpbEdV2MQxU3ywXgREVhpXGFwh8ZvF5D+4qEk/NwdV7ewuo5HFzFt/JYs6C8mQ8PPaVz9ISfZm0YSCVsPY7m4d1mnWlPJOndRRz1Rv1+3t0kaW18ffJ1UkOLdE0lvoQfZ8B/1HwzVk9HveqCeXM3luJx2HteqBTB18oSnXV/txV4tZchOTkNBiylcfb1gq69KZmoLkJZyGTJ9R/h62cHgbvNyChnyUtJwrdEYziM9YcM990/k1bh6/jzyKlphYOMOz6FmXZ7zbfj5dThO+wETj+Xhk8nqaWgGtQVpSLksg76jL7zsDHRMFzbg1oVUXLzVChPHEex7NtJ+z0wdCi+m49KteugZWWLwUBcM6KueXG5AXKAlAtMX4NesbbDPT0L6DcDSfSTczO8sdQvKspORVtACU1e2PB3BQ0FaCi7L9OHIxtTu7sGDLC8FadcaYew8Ep66g4fqq+dxPq8CrQY2cPccCjONYjB/7MbUYasgC0vEb+uG/bXvWug0HmpdxLQbulWnOvFg66QMsTMGIehqMFJSN2AYPffQ49GOAkU9bpqTsNJ9PA6O/gY5n07lptkfBM2OQjRG/6WW90FpQmLo05iWNBvxp9fDs6veF9VtTPm/McPhdZStScfp1Y733CmiHj/32G+lKOqhE3tj6bIxqDu2D8fKO5adURoU13Gj10v4cO8a2kn4P6VA4cF9iBdNQ3CQPe0kPCHojAJFPY4UMhRcroKh4yD0e2BTvwoU/LQLR4qfRlDQaEjpMOOJ1FSSi6stFnCy0XV6i+ppaEeBoiiKoiidaIeQoiiKoiidaEeBoiiKoiidaEeBoiiKoiidaEeBoiiKoiidaEeBoiiKoigdgP8CbtebHrNOrKYAAAAASUVORK5CYII=;" parent="1" vertex="1">
          <mxGeometry x="569" y="70" width="522" height="547" as="geometry" />
        </mxCell>
        <mxCell id="cyOIONu8UUpMF8aO_cER-13" value="Destinos" style="swimlane;fontStyle=0;childLayout=stackLayout;horizontal=1;startSize=26;horizontalStack=0;resizeParent=1;resizeParentMax=0;resizeLast=0;collapsible=1;marginBottom=0;align=center;fontSize=13;" parent="1" vertex="1">
          <mxGeometry x="829.5" y="740" width="201" height="210" as="geometry" />
        </mxCell>
        <mxCell id="cyOIONu8UUpMF8aO_cER-14" value="&lt;div style=&quot;font-size: 13px;&quot;&gt;&lt;u&gt;Cod. Tipo de envío&lt;/u&gt;&lt;/div&gt;" style="text;strokeColor=none;fillColor=none;spacingLeft=4;spacingRight=4;overflow=hidden;rotatable=0;points=[[0,0.5],[1,0.5]];portConstraint=eastwest;fontSize=13;whiteSpace=wrap;html=1;" parent="cyOIONu8UUpMF8aO_cER-13" vertex="1">
          <mxGeometry y="26" width="201" height="30" as="geometry" />
        </mxCell>
        <mxCell id="cyOIONu8UUpMF8aO_cER-15" value="&lt;span style=&quot;font-size: 13px;&quot;&gt;&lt;u&gt;N° de envío&lt;/u&gt;&lt;/span&gt;" style="text;strokeColor=none;fillColor=none;spacingLeft=4;spacingRight=4;overflow=hidden;rotatable=0;points=[[0,0.5],[1,0.5]];portConstraint=eastwest;fontSize=13;whiteSpace=wrap;html=1;" parent="cyOIONu8UUpMF8aO_cER-13" vertex="1">
          <mxGeometry y="56" width="201" height="30" as="geometry" />
        </mxCell>
        <mxCell id="cyOIONu8UUpMF8aO_cER-24" value="&lt;u&gt;N° de Remito&lt;/u&gt;" style="text;strokeColor=none;fillColor=none;spacingLeft=4;spacingRight=4;overflow=hidden;rotatable=0;points=[[0,0.5],[1,0.5]];portConstraint=eastwest;fontSize=13;whiteSpace=wrap;html=1;" parent="cyOIONu8UUpMF8aO_cER-13" vertex="1">
          <mxGeometry y="86" width="201" height="30" as="geometry" />
        </mxCell>
        <mxCell id="cyOIONu8UUpMF8aO_cER-25" value="DNI destinatario" style="text;strokeColor=none;fillColor=none;spacingLeft=4;spacingRight=4;overflow=hidden;rotatable=0;points=[[0,0.5],[1,0.5]];portConstraint=eastwest;fontSize=13;whiteSpace=wrap;html=1;" parent="cyOIONu8UUpMF8aO_cER-13" vertex="1">
          <mxGeometry y="116" width="201" height="30" as="geometry" />
        </mxCell>
        <mxCell id="cyOIONu8UUpMF8aO_cER-26" value="Nombre destinatario" style="text;strokeColor=none;fillColor=none;spacingLeft=4;spacingRight=4;overflow=hidden;rotatable=0;points=[[0,0.5],[1,0.5]];portConstraint=eastwest;fontSize=13;whiteSpace=wrap;html=1;" parent="cyOIONu8UUpMF8aO_cER-13" vertex="1">
          <mxGeometry y="146" width="201" height="34" as="geometry" />
        </mxCell>
        <mxCell id="cyOIONu8UUpMF8aO_cER-27" value="&lt;font style=&quot;font-size: 14px;&quot;&gt;Dirección destinatario&lt;/font&gt;" style="text;strokeColor=none;fillColor=none;spacingLeft=4;spacingRight=4;overflow=hidden;rotatable=0;points=[[0,0.5],[1,0.5]];portConstraint=eastwest;fontSize=13;whiteSpace=wrap;html=1;" parent="cyOIONu8UUpMF8aO_cER-13" vertex="1">
          <mxGeometry y="180" width="201" height="30" as="geometry" />
        </mxCell>
      </root>
    </mxGraphModel>
  </diagram>
</mxfile>
